<?xml version="1.0" encoding="UTF-8" standalone="no"?>
<!DOCTYPE svg PUBLIC "-//W3C//DTD SVG 1.1//EN" "http://www.w3.org/Graphics/SVG/1.1/DTD/svg11.dtd">
<!-- Generated by graphviz version 2.40.1 (20161225.0304)
 -->
<!-- Title: G Pages: 1 -->
<svg width="576pt" height="383pt" viewBox="0.00 0.00 576.00 383.01" xmlns="http://www.w3.org/2000/svg" xmlns:xlink="http://www.w3.org/1999/xlink">
<g id="graph0" class="graph" transform="scale(.1501 .1501) rotate(0) translate(4 2547.981)">
<title>G</title>
<polygon fill="#ffffff" stroke="transparent" points="-4,4 -4,-2547.981 3833.9114,-2547.981 3833.9114,4 -4,4"/>
<!-- Semester 1 -->
<g id="node1" class="node">
<title>Semester 1</title>
<ellipse fill="none" stroke="#000000" cx="2406.9215" cy="-1881.6053" rx="61.0329" ry="19.4695"/>
<text text-anchor="middle" x="2406.9215" y="-1876.8053" font-family="Times,serif" font-size="16.00" fill="#000000">Semester 1</text>
</g>
<!-- Semester 2 -->
<g id="node2" class="node">
<title>Semester 2</title>
<ellipse fill="none" stroke="#000000" cx="2601.4535" cy="-1881.6053" rx="61.0329" ry="19.4695"/>
<text text-anchor="middle" x="2601.4535" y="-1876.8053" font-family="Times,serif" font-size="16.00" fill="#000000">Semester 2</text>
</g>
<!-- Semester 1&#45;&gt;Semester 2 -->
<g id="edge1" class="edge">
<title>Semester 1-&gt;Semester 2</title>
<path fill="none" stroke="#000000" d="M2468.2057,-1881.6053C2487.8319,-1881.6053 2509.7334,-1881.6053 2530.0188,-1881.6053"/>
<polygon fill="#000000" stroke="#000000" points="2530.1434,-1885.1054 2540.1433,-1881.6053 2530.1433,-1878.1054 2530.1434,-1885.1054"/>
</g>
<!-- Semester 3 -->
<g id="node3" class="node">
<title>Semester 3</title>
<ellipse fill="none" stroke="#000000" cx="2795.9855" cy="-1881.6053" rx="61.0329" ry="19.4695"/>
<text text-anchor="middle" x="2795.9855" y="-1876.8053" font-family="Times,serif" font-size="16.00" fill="#000000">Semester 3</text>
</g>
<!-- Semester 2&#45;&gt;Semester 3 -->
<g id="edge2" class="edge">
<title>Semester 2-&gt;Semester 3</title>
<path fill="none" stroke="#000000" d="M2662.7376,-1881.6053C2682.3639,-1881.6053 2704.2654,-1881.6053 2724.5508,-1881.6053"/>
<polygon fill="#000000" stroke="#000000" points="2724.6753,-1885.1054 2734.6753,-1881.6053 2724.6753,-1878.1054 2724.6753,-1885.1054"/>
</g>
<!-- Semester 4 -->
<g id="node4" class="node">
<title>Semester 4</title>
<ellipse fill="none" stroke="#000000" cx="2990.5175" cy="-1881.6053" rx="61.0329" ry="19.4695"/>
<text text-anchor="middle" x="2990.5175" y="-1876.8053" font-family="Times,serif" font-size="16.00" fill="#000000">Semester 4</text>
</g>
<!-- Semester 3&#45;&gt;Semester 4 -->
<g id="edge3" class="edge">
<title>Semester 3-&gt;Semester 4</title>
<path fill="none" stroke="#000000" d="M2857.2696,-1881.6053C2876.8959,-1881.6053 2898.7974,-1881.6053 2919.0828,-1881.6053"/>
<polygon fill="#000000" stroke="#000000" points="2919.2073,-1885.1054 2929.2073,-1881.6053 2919.2073,-1878.1054 2919.2073,-1885.1054"/>
</g>
<!-- Semester 5 -->
<g id="node5" class="node">
<title>Semester 5</title>
<ellipse fill="none" stroke="#000000" cx="3185.0495" cy="-1881.6053" rx="61.0329" ry="19.4695"/>
<text text-anchor="middle" x="3185.0495" y="-1876.8053" font-family="Times,serif" font-size="16.00" fill="#000000">Semester 5</text>
</g>
<!-- Semester 4&#45;&gt;Semester 5 -->
<g id="edge4" class="edge">
<title>Semester 4-&gt;Semester 5</title>
<path fill="none" stroke="#000000" d="M3051.8016,-1881.6053C3071.4279,-1881.6053 3093.3294,-1881.6053 3113.6148,-1881.6053"/>
<polygon fill="#000000" stroke="#000000" points="3113.7393,-1885.1054 3123.7393,-1881.6053 3113.7393,-1878.1054 3113.7393,-1885.1054"/>
</g>
<!-- Semester 6 -->
<g id="node6" class="node">
<title>Semester 6</title>
<ellipse fill="none" stroke="#000000" cx="3379.5815" cy="-1881.6053" rx="61.0329" ry="19.4695"/>
<text text-anchor="middle" x="3379.5815" y="-1876.8053" font-family="Times,serif" font-size="16.00" fill="#000000">Semester 6</text>
</g>
<!-- Semester 5&#45;&gt;Semester 6 -->
<g id="edge5" class="edge">
<title>Semester 5-&gt;Semester 6</title>
<path fill="none" stroke="#000000" d="M3246.3336,-1881.6053C3265.9599,-1881.6053 3287.8614,-1881.6053 3308.1468,-1881.6053"/>
<polygon fill="#000000" stroke="#000000" points="3308.2713,-1885.1054 3318.2713,-1881.6053 3308.2712,-1878.1054 3308.2713,-1885.1054"/>
</g>
<!-- Semester 7 -->
<g id="node7" class="node">
<title>Semester 7</title>
<ellipse fill="none" stroke="#000000" cx="3574.1135" cy="-1881.6053" rx="61.0329" ry="19.4695"/>
<text text-anchor="middle" x="3574.1135" y="-1876.8053" font-family="Times,serif" font-size="16.00" fill="#000000">Semester 7</text>
</g>
<!-- Semester 6&#45;&gt;Semester 7 -->
<g id="edge6" class="edge">
<title>Semester 6-&gt;Semester 7</title>
<path fill="none" stroke="#000000" d="M3440.8656,-1881.6053C3460.4918,-1881.6053 3482.3934,-1881.6053 3502.6788,-1881.6053"/>
<polygon fill="#000000" stroke="#000000" points="3502.8033,-1885.1054 3512.8033,-1881.6053 3502.8032,-1878.1054 3502.8033,-1885.1054"/>
</g>
<!-- Semester 8 -->
<g id="node8" class="node">
<title>Semester 8</title>
<ellipse fill="none" stroke="#000000" cx="3768.6454" cy="-1881.6053" rx="61.0329" ry="19.4695"/>
<text text-anchor="middle" x="3768.6454" y="-1876.8053" font-family="Times,serif" font-size="16.00" fill="#000000">Semester 8</text>
</g>
<!-- Semester 7&#45;&gt;Semester 8 -->
<g id="edge7" class="edge">
<title>Semester 7-&gt;Semester 8</title>
<path fill="none" stroke="#000000" d="M3635.3976,-1881.6053C3655.0238,-1881.6053 3676.9253,-1881.6053 3697.2108,-1881.6053"/>
<polygon fill="#000000" stroke="#000000" points="3697.3353,-1885.1054 3707.3353,-1881.6053 3697.3352,-1878.1054 3697.3353,-1885.1054"/>
</g>
<!-- AIF181101 -->
<g id="node9" class="node">
<title>AIF181101</title>
<polygon fill="none" stroke="#000000" points="154.0789,-1160.2072 -.0263,-1160.2072 -.0263,-1119.0034 154.0789,-1119.0034 154.0789,-1160.2072"/>
<text text-anchor="middle" x="77.0263" y="-1143.8053" font-family="Times,serif" font-size="14.00" fill="#000000">AIF181101-03</text>
<text text-anchor="middle" x="77.0263" y="-1127.0053" font-family="Times,serif" font-size="14.00" fill="#000000">Computational Thinking</text>
</g>
<!-- AIF181100 -->
<g id="node16" class="node">
<title>AIF181100</title>
<polygon fill="none" stroke="#000000" points="1967.3453,-1160.2072 1837.0049,-1160.2072 1837.0049,-1119.0034 1967.3453,-1119.0034 1967.3453,-1160.2072"/>
<text text-anchor="middle" x="1902.1751" y="-1143.8053" font-family="Times,serif" font-size="14.00" fill="#000000">AIF181100-04</text>
<text text-anchor="middle" x="1902.1751" y="-1127.0053" font-family="Times,serif" font-size="14.00" fill="#000000">Dasar Pemrograman</text>
</g>
<!-- AIF181101&#45;&gt;AIF181100 -->
<g id="edge8" class="edge">
<title>AIF181101-&gt;AIF181100</title>
<path fill="none" stroke="#000000" d="M154.2849,-1139.6053C453.0125,-1139.6053 1530.4767,-1139.6053 1826.4763,-1139.6053"/>
<polygon fill="#000000" stroke="#000000" points="1826.6737,-1143.1054 1836.6737,-1139.6053 1826.6737,-1136.1054 1826.6737,-1143.1054"/>
</g>
<!-- AIF181103 -->
<g id="node10" class="node">
<title>AIF181103</title>
<polygon fill="none" stroke="#000000" points="2051.2899,-1835.2072 1932.2771,-1835.2072 1932.2771,-1794.0034 2051.2899,-1794.0034 2051.2899,-1835.2072"/>
<text text-anchor="middle" x="1991.7835" y="-1818.8053" font-family="Times,serif" font-size="14.00" fill="#000000">AIF181103-04</text>
<text text-anchor="middle" x="1991.7835" y="-1802.0053" font-family="Times,serif" font-size="14.00" fill="#000000">Matematika Dasar</text>
</g>
<!-- AIF181105 -->
<g id="node11" class="node">
<title>AIF181105</title>
<polygon fill="none" stroke="#000000" points="2640.7806,-1749.3057 2499.6584,-1749.3057 2499.6584,-1708.1019 2640.7806,-1708.1019 2640.7806,-1749.3057"/>
<text text-anchor="middle" x="2570.2195" y="-1732.9038" font-family="Times,serif" font-size="14.00" fill="#000000">AIF181105-02</text>
<text text-anchor="middle" x="2570.2195" y="-1716.1038" font-family="Times,serif" font-size="14.00" fill="#000000">Pengantar Informatika</text>
</g>
<!-- AIF182308 -->
<g id="node34" class="node">
<title>AIF182308</title>
<polygon fill="none" stroke="#000000" points="2611.6121,-1613.5137 2440.5839,-1613.5137 2440.5839,-1572.3099 2611.6121,-1572.3099 2611.6121,-1613.5137"/>
<text text-anchor="middle" x="2526.098" y="-1597.1118" font-family="Times,serif" font-size="14.00" fill="#000000">AIF182308-03</text>
<text text-anchor="middle" x="2526.098" y="-1580.3118" font-family="Times,serif" font-size="14.00" fill="#000000">Pengantar Sistem Informasi</text>
</g>
<!-- AIF181105&#45;&gt;AIF182308 -->
<g id="edge13" class="edge">
<title>AIF181105-&gt;AIF182308</title>
<path fill="none" stroke="#000000" d="M2563.5184,-1708.0799C2556.1974,-1685.5481 2544.3961,-1649.2275 2536.005,-1623.4024"/>
<polygon fill="#000000" stroke="#000000" points="2539.2811,-1622.1587 2532.8622,-1613.7298 2532.6237,-1624.3219 2539.2811,-1622.1587"/>
</g>
<!-- AIF181107 -->
<g id="node12" class="node">
<title>AIF181107</title>
<polygon fill="none" stroke="#000000" points="901.5981,-1852.8833 774.4506,-1852.8833 774.4506,-1811.6795 901.5981,-1811.6795 901.5981,-1852.8833"/>
<text text-anchor="middle" x="838.0244" y="-1836.4814" font-family="Times,serif" font-size="14.00" fill="#000000">AIF181107-03</text>
<text text-anchor="middle" x="838.0244" y="-1819.6814" font-family="Times,serif" font-size="14.00" fill="#000000">Matematika Diskret</text>
</g>
<!-- AIF182103 -->
<g id="node23" class="node">
<title>AIF182103</title>
<polygon fill="none" stroke="#000000" points="1010.2073,-1999.7505 904.0206,-1999.7505 904.0206,-1958.5467 1010.2073,-1958.5467 1010.2073,-1999.7505"/>
<text text-anchor="middle" x="957.1139" y="-1983.3486" font-family="Times,serif" font-size="14.00" fill="#000000">AIF182103-04</text>
<text text-anchor="middle" x="957.1139" y="-1966.5486" font-family="Times,serif" font-size="14.00" fill="#000000">Struktur Diskret</text>
</g>
<!-- AIF181107&#45;&gt;AIF182103 -->
<g id="edge24" class="edge">
<title>AIF181107-&gt;AIF182103</title>
<path fill="none" stroke="#000000" stroke-dasharray="1,5" d="M854.8344,-1853.0124C875.4921,-1878.4885 910.6535,-1921.8513 933.8842,-1950.5005"/>
<polygon fill="#000000" stroke="#000000" points="931.3725,-1952.9601 940.3894,-1958.5231 936.8097,-1948.5513 931.3725,-1952.9601"/>
</g>
<!-- MKU170130 -->
<g id="node13" class="node">
<title>MKU170130</title>
<polygon fill="none" stroke="#000000" points="1425.134,-1697.2072 1310.4329,-1697.2072 1310.4329,-1656.0034 1425.134,-1656.0034 1425.134,-1697.2072"/>
<text text-anchor="middle" x="1367.7835" y="-1680.8053" font-family="Times,serif" font-size="14.00" fill="#000000">MKU170130-02</text>
<text text-anchor="middle" x="1367.7835" y="-1664.0053" font-family="Times,serif" font-size="14.00" fill="#000000">Bahasa Indonesia</text>
</g>
<!-- MKU170110 -->
<g id="node14" class="node">
<title>MKU170110</title>
<polygon fill="none" stroke="#000000" points="1701.3137,-1628.2072 1518.2533,-1628.2072 1518.2533,-1587.0034 1701.3137,-1587.0034 1701.3137,-1628.2072"/>
<text text-anchor="middle" x="1609.7835" y="-1611.8053" font-family="Times,serif" font-size="14.00" fill="#000000">MKU170110-02</text>
<text text-anchor="middle" x="1609.7835" y="-1595.0053" font-family="Times,serif" font-size="14.00" fill="#000000">Pendidikan Kewarganegaraan</text>
</g>
<!-- MKU170120 -->
<g id="node15" class="node">
<title>MKU170120</title>
<polygon fill="none" stroke="#000000" points="1972.6024,-1697.2072 1862.9646,-1697.2072 1862.9646,-1656.0034 1972.6024,-1656.0034 1972.6024,-1697.2072"/>
<text text-anchor="middle" x="1917.7835" y="-1680.8053" font-family="Times,serif" font-size="14.00" fill="#000000">MKU170120-02</text>
<text text-anchor="middle" x="1917.7835" y="-1664.0053" font-family="Times,serif" font-size="14.00" fill="#000000">Logika</text>
</g>
<!-- AIF182101 -->
<g id="node22" class="node">
<title>AIF182101</title>
<polygon fill="none" stroke="#000000" points="2069.5599,-1440.366 1916.8486,-1440.366 1916.8486,-1399.1622 2069.5599,-1399.1622 2069.5599,-1440.366"/>
<text text-anchor="middle" x="1993.2042" y="-1423.9641" font-family="Times,serif" font-size="14.00" fill="#000000">AIF182101-03</text>
<text text-anchor="middle" x="1993.2042" y="-1407.1641" font-family="Times,serif" font-size="14.00" fill="#000000">Algoritma Struktur Data</text>
</g>
<!-- AIF181100&#45;&gt;AIF182101 -->
<g id="edge9" class="edge">
<title>AIF181100-&gt;AIF182101</title>
<path fill="none" stroke="#000000" d="M1909.0171,-1160.6627C1924.9703,-1209.7617 1964.6881,-1332.0005 1983.2937,-1389.2628"/>
<polygon fill="#000000" stroke="#000000" points="1979.9881,-1390.4155 1986.407,-1398.8445 1986.6455,-1388.2523 1979.9881,-1390.4155"/>
</g>
<!-- AIF182105 -->
<g id="node24" class="node">
<title>AIF182105</title>
<polygon fill="none" stroke="#000000" points="2095.3629,-880.0483 1891.0456,-880.0483 1891.0456,-838.8445 2095.3629,-838.8445 2095.3629,-880.0483"/>
<text text-anchor="middle" x="1993.2042" y="-863.6464" font-family="Times,serif" font-size="14.00" fill="#000000">AIF182105-02</text>
<text text-anchor="middle" x="1993.2042" y="-846.8464" font-family="Times,serif" font-size="14.00" fill="#000000">Pemrograman Berorientasi Objek</text>
</g>
<!-- AIF181100&#45;&gt;AIF182105 -->
<g id="edge10" class="edge">
<title>AIF181100-&gt;AIF182105</title>
<path fill="none" stroke="#000000" d="M1909.0171,-1118.5478C1924.9703,-1069.4488 1964.6881,-947.2101 1983.2937,-889.9478"/>
<polygon fill="#000000" stroke="#000000" points="1986.6455,-890.9582 1986.407,-880.3661 1979.9881,-888.7951 1986.6455,-890.9582"/>
</g>
<!-- AIF181202 -->
<g id="node17" class="node">
<title>AIF181202</title>
<polygon fill="none" stroke="#000000" points="1737.8867,-1352.2072 1517.6803,-1352.2072 1517.6803,-1311.0034 1737.8867,-1311.0034 1737.8867,-1352.2072"/>
<text text-anchor="middle" x="1627.7835" y="-1335.8053" font-family="Times,serif" font-size="14.00" fill="#000000">AIF181202-04</text>
<text text-anchor="middle" x="1627.7835" y="-1319.0053" font-family="Times,serif" font-size="14.00" fill="#000000">Arsitektur dan Organisasi Komputer</text>
</g>
<!-- AIF181104 -->
<g id="node18" class="node">
<title>AIF181104</title>
<polygon fill="none" stroke="#000000" points="1460.992,-2543.7829 1335.5104,-2543.7829 1335.5104,-2502.5791 1460.992,-2502.5791 1460.992,-2543.7829"/>
<text text-anchor="middle" x="1398.2512" y="-2527.381" font-family="Times,serif" font-size="14.00" fill="#000000">AIF181104-03</text>
<text text-anchor="middle" x="1398.2512" y="-2510.581" font-family="Times,serif" font-size="14.00" fill="#000000">Logika Informatika</text>
</g>
<!-- AIF183107 -->
<g id="node39" class="node">
<title>AIF183107</title>
<polygon fill="none" stroke="#000000" points="1342.3112,-2378.648 1186.3867,-2378.648 1186.3867,-2337.4442 1342.3112,-2337.4442 1342.3112,-2378.648"/>
<text text-anchor="middle" x="1264.349" y="-2362.2461" font-family="Times,serif" font-size="14.00" fill="#000000">AIF183107-03</text>
<text text-anchor="middle" x="1264.349" y="-2345.4461" font-family="Times,serif" font-size="14.00" fill="#000000">Pengantar Sistem Cerdas</text>
</g>
<!-- AIF181104&#45;&gt;AIF183107 -->
<g id="edge33" class="edge">
<title>AIF181104-&gt;AIF183107</title>
<path fill="none" stroke="#000000" stroke-dasharray="1,5" d="M1381.2924,-2502.2666C1357.5479,-2472.9837 1314.3127,-2419.6639 1287.5871,-2386.7045"/>
<polygon fill="#000000" stroke="#000000" points="1290.187,-2384.3537 1281.1701,-2378.7907 1284.7498,-2388.7625 1290.187,-2384.3537"/>
</g>
<!-- AIF181106 -->
<g id="node19" class="node">
<title>AIF181106</title>
<polygon fill="none" stroke="#000000" points="1407.4676,-1490.2072 1242.0994,-1490.2072 1242.0994,-1449.0034 1407.4676,-1449.0034 1407.4676,-1490.2072"/>
<text text-anchor="middle" x="1324.7835" y="-1473.8053" font-family="Times,serif" font-size="14.00" fill="#000000">AIF181106-03</text>
<text text-anchor="middle" x="1324.7835" y="-1457.0053" font-family="Times,serif" font-size="14.00" fill="#000000">Matriks dan Ruang Vektor</text>
</g>
<!-- MKU180240 -->
<g id="node20" class="node">
<title>MKU180240</title>
<polygon fill="none" stroke="#000000" points="1834.6024,-1835.2072 1724.9646,-1835.2072 1724.9646,-1794.0034 1834.6024,-1794.0034 1834.6024,-1835.2072"/>
<text text-anchor="middle" x="1779.7835" y="-1818.8053" font-family="Times,serif" font-size="14.00" fill="#000000">MKU180240-02</text>
<text text-anchor="middle" x="1779.7835" y="-1802.0053" font-family="Times,serif" font-size="14.00" fill="#000000">Etika</text>
</g>
<!-- MKU180360 -->
<g id="node21" class="node">
<title>MKU180360</title>
<polygon fill="none" stroke="#000000" points="1213.6024,-1766.2072 1103.9646,-1766.2072 1103.9646,-1725.0034 1213.6024,-1725.0034 1213.6024,-1766.2072"/>
<text text-anchor="middle" x="1158.7835" y="-1749.8053" font-family="Times,serif" font-size="14.00" fill="#000000">MKU180360-02</text>
<text text-anchor="middle" x="1158.7835" y="-1733.0053" font-family="Times,serif" font-size="14.00" fill="#000000">Estetika</text>
</g>
<!-- AIF182302 -->
<g id="node31" class="node">
<title>AIF182302</title>
<polygon fill="none" stroke="#000000" points="2345.5005,-1613.5137 2117.5427,-1613.5137 2117.5427,-1572.3099 2345.5005,-1572.3099 2345.5005,-1613.5137"/>
<text text-anchor="middle" x="2231.5216" y="-1597.1118" font-family="Times,serif" font-size="14.00" fill="#000000">AIF182302-04</text>
<text text-anchor="middle" x="2231.5216" y="-1580.3118" font-family="Times,serif" font-size="14.00" fill="#000000">Manajemen Informasi dan Basis Data</text>
</g>
<!-- AIF182101&#45;&gt;AIF182302 -->
<g id="edge25" class="edge">
<title>AIF182101-&gt;AIF182302</title>
<path fill="none" stroke="#000000" stroke-dasharray="1,5" d="M2021.9509,-1440.6498C2065.2789,-1472.1294 2147.2965,-1531.7187 2194.8642,-1566.2787"/>
<polygon fill="#000000" stroke="#000000" points="2192.8965,-1569.1753 2203.0439,-1572.2216 2197.011,-1563.5121 2192.8965,-1569.1753"/>
</g>
<!-- AIF182106 -->
<g id="node33" class="node">
<title>AIF182106</title>
<polygon fill="none" stroke="#000000" points="1204.8762,-2188.7463 1015.8522,-2188.7463 1015.8522,-2147.5425 1204.8762,-2147.5425 1204.8762,-2188.7463"/>
<text text-anchor="middle" x="1110.3642" y="-2172.3444" font-family="Times,serif" font-size="14.00" fill="#000000">AIF182106-03</text>
<text text-anchor="middle" x="1110.3642" y="-2155.5444" font-family="Times,serif" font-size="14.00" fill="#000000">Desain dan Analisis Algoritma</text>
</g>
<!-- AIF182101&#45;&gt;AIF182106 -->
<g id="edge12" class="edge">
<title>AIF182101-&gt;AIF182106</title>
<path fill="none" stroke="#000000" d="M1968.6706,-1440.5612C1844.2975,-1545.9918 1283.8485,-2021.0824 1142.708,-2140.7267"/>
<polygon fill="#000000" stroke="#000000" points="1140.1441,-2138.3117 1134.7792,-2147.4479 1144.6705,-2143.6514 1140.1441,-2138.3117"/>
</g>
<!-- AIF183201 -->
<g id="node36" class="node">
<title>AIF183201</title>
<polygon fill="none" stroke="#000000" points="863.6792,-1624.0962 762.3886,-1624.0962 762.3886,-1582.8924 863.6792,-1582.8924 863.6792,-1624.0962"/>
<text text-anchor="middle" x="813.0339" y="-1607.6943" font-family="Times,serif" font-size="14.00" fill="#000000">AIF183201-03</text>
<text text-anchor="middle" x="813.0339" y="-1590.8943" font-family="Times,serif" font-size="14.00" fill="#000000">Sistem Operasi</text>
</g>
<!-- AIF182101&#45;&gt;AIF183201 -->
<g id="edge29" class="edge">
<title>AIF182101-&gt;AIF183201</title>
<path fill="none" stroke="#000000" stroke-dasharray="1,5" d="M1916.6793,-1431.6776C1697.6595,-1465.7748 1071.4091,-1563.2702 873.6487,-1594.0577"/>
<polygon fill="#000000" stroke="#000000" points="873.0688,-1590.6057 863.7263,-1595.6025 874.1457,-1597.5224 873.0688,-1590.6057"/>
</g>
<!-- AIF182103&#45;&gt;AIF182106 -->
<g id="edge27" class="edge">
<title>AIF182103-&gt;AIF182106</title>
<path fill="none" stroke="#000000" stroke-dasharray="1,5" d="M974.0999,-2000.0966C1001.559,-2033.9605 1055.759,-2100.8026 1086.8898,-2139.1947"/>
<polygon fill="#000000" stroke="#000000" points="1084.5188,-2141.8277 1093.5357,-2147.3907 1089.956,-2137.4189 1084.5188,-2141.8277"/>
</g>
<!-- AIF182100 -->
<g id="node30" class="node">
<title>AIF182100</title>
<polygon fill="none" stroke="#000000" points="2344.7344,-706.9007 2118.3088,-706.9007 2118.3088,-665.6968 2344.7344,-665.6968 2344.7344,-706.9007"/>
<text text-anchor="middle" x="2231.5216" y="-690.4988" font-family="Times,serif" font-size="14.00" fill="#000000">AIF182100-04</text>
<text text-anchor="middle" x="2231.5216" y="-673.6988" font-family="Times,serif" font-size="14.00" fill="#000000">Analisis dan Desain Perangkat Lunak</text>
</g>
<!-- AIF182105&#45;&gt;AIF182100 -->
<g id="edge11" class="edge">
<title>AIF182105-&gt;AIF182100</title>
<path fill="none" stroke="#000000" d="M2021.9509,-838.5608C2065.2789,-807.0811 2147.2965,-747.4918 2194.8642,-712.9319"/>
<polygon fill="#000000" stroke="#000000" points="2197.011,-715.6984 2203.0439,-706.989 2192.8965,-710.0353 2197.011,-715.6984"/>
</g>
<!-- AIF182007 -->
<g id="node25" class="node">
<title>AIF182007</title>
<polygon fill="none" stroke="#000000" points="1383.9086,-868.9879 1268.0781,-868.9879 1268.0781,-827.7841 1383.9086,-827.7841 1383.9086,-868.9879"/>
<text text-anchor="middle" x="1325.9933" y="-852.586" font-family="Times,serif" font-size="14.00" fill="#000000">AIF182007-02</text>
<text text-anchor="middle" x="1325.9933" y="-835.786" font-family="Times,serif" font-size="14.00" fill="#000000">Teknik Presentasi</text>
</g>
<!-- AIF184001 -->
<g id="node47" class="node">
<title>AIF184001</title>
<polygon fill="none" stroke="#000000" points="1479.0323,-1011.2072 1379.611,-1011.2072 1379.611,-970.0034 1479.0323,-970.0034 1479.0323,-1011.2072"/>
<text text-anchor="middle" x="1429.3217" y="-994.8053" font-family="Times,serif" font-size="14.00" fill="#000000">AIF184001-03</text>
<text text-anchor="middle" x="1429.3217" y="-978.0053" font-family="Times,serif" font-size="14.00" fill="#000000">Skripsi 1</text>
</g>
<!-- AIF182007&#45;&gt;AIF184001 -->
<g id="edge17" class="edge">
<title>AIF182007-&gt;AIF184001</title>
<path fill="none" stroke="#000000" d="M1341.0181,-869.0659C1358.6954,-893.3965 1388.163,-933.9553 1408.1496,-961.4645"/>
<polygon fill="#000000" stroke="#000000" points="1405.5692,-963.8675 1414.2787,-969.9004 1411.2324,-959.753 1405.5692,-963.8675"/>
</g>
<!-- AIF184002 -->
<g id="node51" class="node">
<title>AIF184002</title>
<polygon fill="none" stroke="#000000" points="1375.7039,-1153.4264 1276.2827,-1153.4264 1276.2827,-1112.2226 1375.7039,-1112.2226 1375.7039,-1153.4264"/>
<text text-anchor="middle" x="1325.9933" y="-1137.0245" font-family="Times,serif" font-size="14.00" fill="#000000">AIF184002-05</text>
<text text-anchor="middle" x="1325.9933" y="-1120.2245" font-family="Times,serif" font-size="14.00" fill="#000000">Skripsi 2</text>
</g>
<!-- AIF182007&#45;&gt;AIF184002 -->
<g id="edge21" class="edge">
<title>AIF182007-&gt;AIF184002</title>
<path fill="none" stroke="#000000" d="M1325.9933,-869.3015C1325.9933,-918.8207 1325.9933,-1043.4404 1325.9933,-1101.7879"/>
<polygon fill="#000000" stroke="#000000" points="1322.4934,-1101.8784 1325.9933,-1111.8784 1329.4934,-1101.8785 1322.4934,-1101.8784"/>
</g>
<!-- AIF184004 -->
<g id="node52" class="node">
<title>AIF184004</title>
<polygon fill="none" stroke="#000000" points="1208.5152,-923.3108 1109.0939,-923.3108 1109.0939,-882.107 1208.5152,-882.107 1208.5152,-923.3108"/>
<text text-anchor="middle" x="1158.8046" y="-906.9089" font-family="Times,serif" font-size="14.00" fill="#000000">AIF184004-08</text>
<text text-anchor="middle" x="1158.8046" y="-890.1089" font-family="Times,serif" font-size="14.00" fill="#000000">Tugas Akhir</text>
</g>
<!-- AIF182007&#45;&gt;AIF184004 -->
<g id="edge23" class="edge">
<title>AIF182007-&gt;AIF184004</title>
<path fill="none" stroke="#000000" d="M1267.988,-867.2331C1251.977,-872.4354 1234.5799,-878.0881 1218.4761,-883.3205"/>
<polygon fill="#000000" stroke="#000000" points="1217.0694,-880.0974 1208.6404,-886.5163 1219.2325,-886.7548 1217.0694,-880.0974"/>
</g>
<!-- AIF182109 -->
<g id="node26" class="node">
<title>AIF182109</title>
<polygon fill="none" stroke="#000000" points="1410.2217,-1352.2072 1241.3453,-1352.2072 1241.3453,-1311.0034 1410.2217,-1311.0034 1410.2217,-1352.2072"/>
<text text-anchor="middle" x="1325.7835" y="-1335.8053" font-family="Times,serif" font-size="14.00" fill="#000000">AIF182109-03</text>
<text text-anchor="middle" x="1325.7835" y="-1319.0053" font-family="Times,serif" font-size="14.00" fill="#000000">Statistika untuk Komputasi</text>
</g>
<!-- MKU180370 -->
<g id="node27" class="node">
<title>MKU180370</title>
<polygon fill="none" stroke="#000000" points="1627.6024,-869.2072 1517.9646,-869.2072 1517.9646,-828.0034 1627.6024,-828.0034 1627.6024,-869.2072"/>
<text text-anchor="middle" x="1572.7835" y="-852.8053" font-family="Times,serif" font-size="14.00" fill="#000000">MKU180370-02</text>
<text text-anchor="middle" x="1572.7835" y="-836.0053" font-family="Times,serif" font-size="14.00" fill="#000000">Agama Katolik</text>
</g>
<!-- MKU180380 -->
<g id="node28" class="node">
<title>MKU180380</title>
<polygon fill="none" stroke="#000000" points="1844.5936,-869.2072 1724.9733,-869.2072 1724.9733,-828.0034 1844.5936,-828.0034 1844.5936,-869.2072"/>
<text text-anchor="middle" x="1784.7835" y="-852.8053" font-family="Times,serif" font-size="14.00" fill="#000000">MKU180380-02</text>
<text text-anchor="middle" x="1784.7835" y="-836.0053" font-family="Times,serif" font-size="14.00" fill="#000000">Fenomena Katolik</text>
</g>
<!-- MKU180250 -->
<g id="node29" class="node">
<title>MKU180250</title>
<polygon fill="none" stroke="#000000" points="1420.6024,-1835.2072 1310.9646,-1835.2072 1310.9646,-1794.0034 1420.6024,-1794.0034 1420.6024,-1835.2072"/>
<text text-anchor="middle" x="1365.7835" y="-1818.8053" font-family="Times,serif" font-size="14.00" fill="#000000">MKU180250-02</text>
<text text-anchor="middle" x="1365.7835" y="-1802.0053" font-family="Times,serif" font-size="14.00" fill="#000000">Pancasila</text>
</g>
<!-- AIF183303 -->
<g id="node37" class="node">
<title>AIF183303</title>
<polygon fill="none" stroke="#000000" points="2610.4828,-706.9007 2441.7132,-706.9007 2441.7132,-665.6968 2610.4828,-665.6968 2610.4828,-706.9007"/>
<text text-anchor="middle" x="2526.098" y="-690.4988" font-family="Times,serif" font-size="14.00" fill="#000000">AIF183303-03</text>
<text text-anchor="middle" x="2526.098" y="-673.6988" font-family="Times,serif" font-size="14.00" fill="#000000">Rekayasa Perangkat Lunak</text>
</g>
<!-- AIF182100&#45;&gt;AIF183303 -->
<g id="edge30" class="edge">
<title>AIF182100-&gt;AIF183303</title>
<path fill="none" stroke="#000000" stroke-dasharray="1,5" d="M2344.9911,-686.2988C2373.5724,-686.2988 2403.9496,-686.2988 2431.4953,-686.2988"/>
<polygon fill="#000000" stroke="#000000" points="2431.507,-689.7989 2441.507,-686.2988 2431.5069,-682.7989 2431.507,-689.7989"/>
</g>
<!-- AIF183209 -->
<g id="node40" class="node">
<title>AIF183209</title>
<polygon fill="none" stroke="#000000" points="2291.6228,-524.8983 2053.1481,-524.8983 2053.1481,-483.6945 2291.6228,-483.6945 2291.6228,-524.8983"/>
<text text-anchor="middle" x="2172.3854" y="-508.4964" font-family="Times,serif" font-size="14.00" fill="#000000">AIF183209-03</text>
<text text-anchor="middle" x="2172.3854" y="-491.6964" font-family="Times,serif" font-size="14.00" fill="#000000">Pemrograman pada Perangkat Bergerak</text>
</g>
<!-- AIF182100&#45;&gt;AIF183209 -->
<g id="edge34" class="edge">
<title>AIF182100-&gt;AIF183209</title>
<path fill="none" stroke="#000000" stroke-dasharray="1,5" d="M2224.7379,-665.4208C2214.311,-633.3302 2194.2927,-571.7201 2182.2581,-534.6812"/>
<polygon fill="#000000" stroke="#000000" points="2185.5089,-533.3599 2179.09,-524.9309 2178.8515,-535.523 2185.5089,-533.3599"/>
</g>
<!-- AIF182204 -->
<g id="node32" class="node">
<title>AIF182204</title>
<polygon fill="none" stroke="#000000" points="2267.2925,-2112.7756 2090.9639,-2112.7756 2090.9639,-2071.5718 2267.2925,-2071.5718 2267.2925,-2112.7756"/>
<text text-anchor="middle" x="2179.1282" y="-2096.3737" font-family="Times,serif" font-size="14.00" fill="#000000">AIF182204-03</text>
<text text-anchor="middle" x="2179.1282" y="-2079.5737" font-family="Times,serif" font-size="14.00" fill="#000000">Pemrograman Berbasis Web</text>
</g>
<!-- AIF182302&#45;&gt;AIF182204 -->
<g id="edge26" class="edge">
<title>AIF182302-&gt;AIF182204</title>
<path fill="none" stroke="#000000" stroke-dasharray="1,5" d="M2229.337,-1613.7288C2221.1308,-1691.9265 2192.1194,-1968.3787 2182.3594,-2061.3835"/>
<polygon fill="#000000" stroke="#000000" points="2178.856,-2061.2336 2181.2931,-2071.5443 2185.8177,-2061.9642 2178.856,-2061.2336"/>
</g>
<!-- AIF182302&#45;&gt;AIF182308 -->
<g id="edge28" class="edge">
<title>AIF182302-&gt;AIF182308</title>
<path fill="none" stroke="#000000" stroke-dasharray="1,5" d="M2345.4125,-1592.9118C2373.407,-1592.9118 2403.1006,-1592.9118 2430.1529,-1592.9118"/>
<polygon fill="#000000" stroke="#000000" points="2430.3826,-1596.4119 2440.3826,-1592.9118 2430.3825,-1589.4119 2430.3826,-1596.4119"/>
</g>
<!-- AIF183300 -->
<g id="node42" class="node">
<title>AIF183300</title>
<polygon fill="none" stroke="#000000" points="2031.6094,-2040.0923 1893.9971,-2040.0923 1893.9971,-1998.8885 2031.6094,-1998.8885 2031.6094,-2040.0923"/>
<text text-anchor="middle" x="1962.8033" y="-2023.6904" font-family="Times,serif" font-size="14.00" fill="#000000">AIF183300-02</text>
<text text-anchor="middle" x="1962.8033" y="-2006.8904" font-family="Times,serif" font-size="14.00" fill="#000000">Teknologi Basis Data</text>
</g>
<!-- AIF182302&#45;&gt;AIF183300 -->
<g id="edge14" class="edge">
<title>AIF182302-&gt;AIF183300</title>
<path fill="none" stroke="#000000" d="M2218.3788,-1613.7753C2174.4459,-1683.5169 2032.5875,-1908.711 1981.4215,-1989.9347"/>
<polygon fill="#000000" stroke="#000000" points="1978.2894,-1988.3404 1975.9207,-1998.667 1984.2122,-1992.0714 1978.2894,-1988.3404"/>
</g>
<!-- AIF182106&#45;&gt;AIF183107 -->
<g id="edge32" class="edge">
<title>AIF182106-&gt;AIF183107</title>
<path fill="none" stroke="#000000" stroke-dasharray="1,5" d="M1127.1364,-2188.8287C1154.674,-2222.7895 1209.537,-2290.4492 1240.9054,-2329.1343"/>
<polygon fill="#000000" stroke="#000000" points="1238.5805,-2331.8243 1247.5974,-2337.3873 1244.0177,-2327.4155 1238.5805,-2331.8243"/>
</g>
<!-- AIF183308 -->
<g id="node46" class="node">
<title>AIF183308</title>
<polygon fill="none" stroke="#000000" points="2847.1092,-1440.366 2681.7215,-1440.366 2681.7215,-1399.1622 2847.1092,-1399.1622 2847.1092,-1440.366"/>
<text text-anchor="middle" x="2764.4153" y="-1423.9641" font-family="Times,serif" font-size="14.00" fill="#000000">AIF183308-03</text>
<text text-anchor="middle" x="2764.4153" y="-1407.1641" font-family="Times,serif" font-size="14.00" fill="#000000">Proyek Sistem Informasi 1</text>
</g>
<!-- AIF182308&#45;&gt;AIF183308 -->
<g id="edge15" class="edge">
<title>AIF182308-&gt;AIF183308</title>
<path fill="none" stroke="#000000" d="M2554.8446,-1572.0261C2598.1726,-1540.5465 2680.1903,-1480.9572 2727.758,-1446.3972"/>
<polygon fill="#000000" stroke="#000000" points="2729.9048,-1449.1638 2735.9377,-1440.4543 2725.7903,-1443.5006 2729.9048,-1449.1638"/>
</g>
<!-- AIF182210 -->
<g id="node35" class="node">
<title>AIF182210</title>
<polygon fill="none" stroke="#000000" points="2176.6143,-255.7955 1993.283,-255.7955 1993.283,-214.5917 2176.6143,-214.5917 2176.6143,-255.7955"/>
<text text-anchor="middle" x="2084.9486" y="-239.3936" font-family="Times,serif" font-size="14.00" fill="#000000">AIF182210-02</text>
<text text-anchor="middle" x="2084.9486" y="-222.5936" font-family="Times,serif" font-size="14.00" fill="#000000">Pengantar Jaringan Komputer</text>
</g>
<!-- AIF182210&#45;&gt;AIF183209 -->
<g id="edge35" class="edge">
<title>AIF182210-&gt;AIF183209</title>
<path fill="none" stroke="#000000" stroke-dasharray="1,5" d="M2091.6645,-255.8628C2106.9864,-303.0188 2144.5815,-418.7246 2162.5331,-473.9742"/>
<polygon fill="#000000" stroke="#000000" points="2159.2278,-475.1278 2165.6467,-483.5568 2165.8852,-472.9646 2159.2278,-475.1278"/>
</g>
<!-- AIF183204 -->
<g id="node44" class="node">
<title>AIF183204</title>
<polygon fill="none" stroke="#000000" points="2076.9763,-41.4019 1953.5995,-41.4019 1953.5995,-.1981 2076.9763,-.1981 2076.9763,-41.4019"/>
<text text-anchor="middle" x="2015.2879" y="-25" font-family="Times,serif" font-size="14.00" fill="#000000">AIF183204-02</text>
<text text-anchor="middle" x="2015.2879" y="-8.2" font-family="Times,serif" font-size="14.00" fill="#000000">Jaringan Komputer</text>
</g>
<!-- AIF182210&#45;&gt;AIF183204 -->
<g id="edge36" class="edge">
<title>AIF182210-&gt;AIF183204</title>
<path fill="none" stroke="#000000" stroke-dasharray="1,5" d="M2078.1424,-214.2463C2065.7556,-176.1234 2039.4869,-95.2769 2025.1421,-51.1281"/>
<polygon fill="#000000" stroke="#000000" points="2028.4381,-49.9457 2022.0192,-41.5167 2021.7807,-52.1089 2028.4381,-49.9457"/>
</g>
<!-- AIF183305 -->
<g id="node38" class="node">
<title>AIF183305</title>
<polygon fill="none" stroke="#000000" points="2918.1867,-1160.2072 2792.7022,-1160.2072 2792.7022,-1119.0034 2918.1867,-1119.0034 2918.1867,-1160.2072"/>
<text text-anchor="middle" x="2855.4445" y="-1143.8053" font-family="Times,serif" font-size="14.00" fill="#000000">AIF183305-02</text>
<text text-anchor="middle" x="2855.4445" y="-1127.0053" font-family="Times,serif" font-size="14.00" fill="#000000">Manajemen Proyek</text>
</g>
<!-- AIF183303&#45;&gt;AIF183305 -->
<g id="edge31" class="edge">
<title>AIF183303-&gt;AIF183305</title>
<path fill="none" stroke="#000000" stroke-dasharray="1,5" d="M2541.1051,-706.9543C2594.1494,-779.9635 2772.9124,-1026.0097 2834.4352,-1110.6884"/>
<polygon fill="#000000" stroke="#000000" points="2831.6397,-1112.7955 2840.3492,-1118.8284 2837.3028,-1108.6809 2831.6397,-1112.7955"/>
</g>
<!-- AIF183106 -->
<g id="node45" class="node">
<title>AIF183106</title>
<polygon fill="none" stroke="#000000" points="2827.1562,-880.0483 2701.6745,-880.0483 2701.6745,-838.8445 2827.1562,-838.8445 2827.1562,-880.0483"/>
<text text-anchor="middle" x="2764.4153" y="-863.6464" font-family="Times,serif" font-size="14.00" fill="#000000">AIF183106-06</text>
<text text-anchor="middle" x="2764.4153" y="-846.8464" font-family="Times,serif" font-size="14.00" fill="#000000">Proyek Informatika</text>
</g>
<!-- AIF183303&#45;&gt;AIF183106 -->
<g id="edge37" class="edge">
<title>AIF183303-&gt;AIF183106</title>
<path fill="none" stroke="#000000" stroke-dasharray="1,5" d="M2554.8446,-707.1844C2598.1726,-738.664 2680.1903,-798.2533 2727.758,-832.8133"/>
<polygon fill="#000000" stroke="#000000" points="2725.7903,-835.7099 2735.9377,-838.7562 2729.9048,-830.0468 2725.7903,-835.7099"/>
</g>
<!-- AIF183305&#45;&gt;AIF183106 -->
<g id="edge38" class="edge">
<title>AIF183305-&gt;AIF183106</title>
<path fill="none" stroke="#000000" stroke-dasharray="1,5" d="M2848.6025,-1118.5478C2832.6493,-1069.4488 2792.9315,-947.2101 2774.3258,-889.9478"/>
<polygon fill="#000000" stroke="#000000" points="2777.6315,-888.7951 2771.2125,-880.3661 2770.9741,-890.9582 2777.6315,-888.7951"/>
</g>
<!-- AIF183305&#45;&gt;AIF183308 -->
<g id="edge39" class="edge">
<title>AIF183305-&gt;AIF183308</title>
<path fill="none" stroke="#000000" stroke-dasharray="1,5" d="M2848.6025,-1160.6627C2832.6493,-1209.7617 2792.9315,-1332.0005 2774.3258,-1389.2628"/>
<polygon fill="#000000" stroke="#000000" points="2770.9741,-1388.2523 2771.2125,-1398.8445 2777.6315,-1390.4155 2770.9741,-1388.2523"/>
</g>
<!-- AIF183111 -->
<g id="node41" class="node">
<title>AIF183111</title>
<polygon fill="none" stroke="#000000" points="1694.2317,-1145.2072 1517.3353,-1145.2072 1517.3353,-1104.0034 1694.2317,-1104.0034 1694.2317,-1145.2072"/>
<text text-anchor="middle" x="1605.7835" y="-1128.8053" font-family="Times,serif" font-size="14.00" fill="#000000">AIF183111-03</text>
<text text-anchor="middle" x="1605.7835" y="-1112.0053" font-family="Times,serif" font-size="14.00" fill="#000000">Interaksi Manusia Komputer</text>
</g>
<!-- AIF183002 -->
<g id="node43" class="node">
<title>AIF183002</title>
<polygon fill="none" stroke="#000000" points="1214.2902,-1099.1035 1103.3189,-1099.1035 1103.3189,-1057.8997 1214.2902,-1057.8997 1214.2902,-1099.1035"/>
<text text-anchor="middle" x="1158.8046" y="-1082.7016" font-family="Times,serif" font-size="14.00" fill="#000000">AIF183002-02</text>
<text text-anchor="middle" x="1158.8046" y="-1065.9016" font-family="Times,serif" font-size="14.00" fill="#000000">Penulisan Ilmiah</text>
</g>
<!-- AIF183002&#45;&gt;AIF184001 -->
<g id="edge16" class="edge">
<title>AIF183002-&gt;AIF184001</title>
<path fill="none" stroke="#000000" d="M1214.2005,-1060.5024C1259.5145,-1045.779 1323.4599,-1025.0018 1369.8469,-1009.9298"/>
<polygon fill="#000000" stroke="#000000" points="1371.0368,-1013.2234 1379.4658,-1006.8044 1368.8737,-1006.566 1371.0368,-1013.2234"/>
</g>
<!-- AIF183002&#45;&gt;AIF184002 -->
<g id="edge19" class="edge">
<title>AIF183002-&gt;AIF184002</title>
<path fill="none" stroke="#000000" d="M1214.476,-1096.5903C1231.1513,-1102.0085 1249.5015,-1107.9708 1266.4177,-1113.4672"/>
<polygon fill="#000000" stroke="#000000" points="1265.5963,-1116.8804 1276.1884,-1116.6419 1267.7595,-1110.223 1265.5963,-1116.8804"/>
</g>
<!-- AIF183002&#45;&gt;AIF184004 -->
<g id="edge22" class="edge">
<title>AIF183002-&gt;AIF184004</title>
<path fill="none" stroke="#000000" d="M1158.8046,-1057.6455C1158.8046,-1026.9845 1158.8046,-969.5276 1158.8046,-933.8554"/>
<polygon fill="#000000" stroke="#000000" points="1162.3047,-933.5378 1158.8046,-923.5379 1155.3047,-933.5379 1162.3047,-933.5378"/>
</g>
<!-- AIF184303 -->
<g id="node48" class="node">
<title>AIF184303</title>
<polygon fill="none" stroke="#000000" points="2972.3829,-1531.3827 2806.9951,-1531.3827 2806.9951,-1490.1789 2972.3829,-1490.1789 2972.3829,-1531.3827"/>
<text text-anchor="middle" x="2889.689" y="-1514.9808" font-family="Times,serif" font-size="14.00" fill="#000000">AIF184303-03</text>
<text text-anchor="middle" x="2889.689" y="-1498.1808" font-family="Times,serif" font-size="14.00" fill="#000000">Proyek Sistem Informasi 2</text>
</g>
<!-- AIF183308&#45;&gt;AIF184303 -->
<g id="edge18" class="edge">
<title>AIF183308-&gt;AIF184303</title>
<path fill="none" stroke="#000000" d="M2792.8419,-1440.4172C2810.5751,-1453.3011 2833.5855,-1470.0192 2852.7272,-1483.9265"/>
<polygon fill="#000000" stroke="#000000" points="2850.7939,-1486.848 2860.9413,-1489.8944 2854.9084,-1481.1849 2850.7939,-1486.848"/>
</g>
<!-- AIF184001&#45;&gt;AIF184002 -->
<g id="edge20" class="edge">
<title>AIF184001-&gt;AIF184002</title>
<path fill="none" stroke="#000000" d="M1414.2968,-1011.2852C1396.6196,-1035.6158 1367.1519,-1076.1745 1347.1653,-1103.6837"/>
<polygon fill="#000000" stroke="#000000" points="1344.0826,-1101.9722 1341.0363,-1112.1197 1349.7457,-1106.0867 1344.0826,-1101.9722"/>
</g>
<!-- AIF184005 -->
<g id="node49" class="node">
<title>AIF184005</title>
<polygon fill="none" stroke="#000000" points="1752.5601,-1007.2072 1587.0069,-1007.2072 1587.0069,-966.0034 1752.5601,-966.0034 1752.5601,-1007.2072"/>
<text text-anchor="middle" x="1669.7835" y="-990.8053" font-family="Times,serif" font-size="14.00" fill="#000000">AIF184005-02</text>
<text text-anchor="middle" x="1669.7835" y="-974.0053" font-family="Times,serif" font-size="14.00" fill="#000000">Komputer dan Masyarakat</text>
</g>
<!-- AIF184000 -->
<g id="node50" class="node">
<title>AIF184000</title>
<polygon fill="none" stroke="#000000" points="1134.4941,-1490.2072 1035.0729,-1490.2072 1035.0729,-1449.0034 1134.4941,-1449.0034 1134.4941,-1490.2072"/>
<text text-anchor="middle" x="1084.7835" y="-1473.8053" font-family="Times,serif" font-size="14.00" fill="#000000">AIF184000-02</text>
<text text-anchor="middle" x="1084.7835" y="-1457.0053" font-family="Times,serif" font-size="14.00" fill="#000000">Etika Profesi</text>
</g>
</g>
</svg>