<?xml version="1.0" encoding="UTF-8" standalone="no"?>
<!DOCTYPE svg PUBLIC "-//W3C//DTD SVG 1.1//EN" "http://www.w3.org/Graphics/SVG/1.1/DTD/svg11.dtd">
<!-- Generated by graphviz version 2.40.1 (20161225.0304)
 -->
<!-- Title: G Pages: 1 -->
<svg width="576pt" height="251pt" viewBox="0.00 0.00 576.00 251.34" xmlns="http://www.w3.org/2000/svg" xmlns:xlink="http://www.w3.org/1999/xlink">
<g id="graph0" class="graph" transform="scale(.2516 .2516) rotate(0) translate(4 994.8)">
<title>G</title>
<polygon fill="#ffffff" stroke="transparent" points="-4,4 -4,-994.8 2284.9252,-994.8 2284.9252,4 -4,4"/>
<!-- Semester 1 -->
<g id="node1" class="node">
<title>Semester 1</title>
<ellipse fill="none" stroke="#000000" cx="61.266" cy="-970" rx="61.0329" ry="19.4695"/>
<text text-anchor="middle" x="61.266" y="-965.2" font-family="Times,serif" font-size="16.00" fill="#000000">Semester 1</text>
</g>
<!-- Semester 2 -->
<g id="node2" class="node">
<title>Semester 2</title>
<ellipse fill="none" stroke="#000000" cx="61.266" cy="-834.4" rx="61.0329" ry="19.4695"/>
<text text-anchor="middle" x="61.266" y="-829.6" font-family="Times,serif" font-size="16.00" fill="#000000">Semester 2</text>
</g>
<!-- Semester 1&#45;&gt;Semester 2 -->
<g id="edge1" class="edge">
<title>Semester 1-&gt;Semester 2</title>
<path fill="none" stroke="#000000" d="M61.266,-950.5718C61.266,-927.9158 61.266,-890.2233 61.266,-863.938"/>
<polygon fill="#000000" stroke="#000000" points="64.7661,-863.7921 61.266,-853.7921 57.7661,-863.7922 64.7661,-863.7921"/>
</g>
<!-- Semester 3 -->
<g id="node3" class="node">
<title>Semester 3</title>
<ellipse fill="none" stroke="#000000" cx="61.266" cy="-698.8" rx="61.0329" ry="19.4695"/>
<text text-anchor="middle" x="61.266" y="-694" font-family="Times,serif" font-size="16.00" fill="#000000">Semester 3</text>
</g>
<!-- Semester 2&#45;&gt;Semester 3 -->
<g id="edge2" class="edge">
<title>Semester 2-&gt;Semester 3</title>
<path fill="none" stroke="#000000" d="M61.266,-814.9718C61.266,-792.3158 61.266,-754.6233 61.266,-728.338"/>
<polygon fill="#000000" stroke="#000000" points="64.7661,-728.1921 61.266,-718.1921 57.7661,-728.1922 64.7661,-728.1921"/>
</g>
<!-- Semester 4 -->
<g id="node4" class="node">
<title>Semester 4</title>
<ellipse fill="none" stroke="#000000" cx="61.266" cy="-563.2" rx="61.0329" ry="19.4695"/>
<text text-anchor="middle" x="61.266" y="-558.4" font-family="Times,serif" font-size="16.00" fill="#000000">Semester 4</text>
</g>
<!-- Semester 3&#45;&gt;Semester 4 -->
<g id="edge3" class="edge">
<title>Semester 3-&gt;Semester 4</title>
<path fill="none" stroke="#000000" d="M61.266,-679.3718C61.266,-656.7158 61.266,-619.0233 61.266,-592.738"/>
<polygon fill="#000000" stroke="#000000" points="64.7661,-592.5921 61.266,-582.5921 57.7661,-592.5922 64.7661,-592.5921"/>
</g>
<!-- Semester 5 -->
<g id="node5" class="node">
<title>Semester 5</title>
<ellipse fill="none" stroke="#000000" cx="61.266" cy="-427.6" rx="61.0329" ry="19.4695"/>
<text text-anchor="middle" x="61.266" y="-422.8" font-family="Times,serif" font-size="16.00" fill="#000000">Semester 5</text>
</g>
<!-- Semester 4&#45;&gt;Semester 5 -->
<g id="edge4" class="edge">
<title>Semester 4-&gt;Semester 5</title>
<path fill="none" stroke="#000000" d="M61.266,-543.7718C61.266,-521.1158 61.266,-483.4233 61.266,-457.138"/>
<polygon fill="#000000" stroke="#000000" points="64.7661,-456.9921 61.266,-446.9921 57.7661,-456.9922 64.7661,-456.9921"/>
</g>
<!-- Semester 6 -->
<g id="node6" class="node">
<title>Semester 6</title>
<ellipse fill="none" stroke="#000000" cx="61.266" cy="-292" rx="61.0329" ry="19.4695"/>
<text text-anchor="middle" x="61.266" y="-287.2" font-family="Times,serif" font-size="16.00" fill="#000000">Semester 6</text>
</g>
<!-- Semester 5&#45;&gt;Semester 6 -->
<g id="edge5" class="edge">
<title>Semester 5-&gt;Semester 6</title>
<path fill="none" stroke="#000000" d="M61.266,-408.1718C61.266,-385.5158 61.266,-347.8233 61.266,-321.538"/>
<polygon fill="#000000" stroke="#000000" points="64.7661,-321.3921 61.266,-311.3921 57.7661,-321.3922 64.7661,-321.3921"/>
</g>
<!-- Semester 7 -->
<g id="node7" class="node">
<title>Semester 7</title>
<ellipse fill="none" stroke="#000000" cx="61.266" cy="-156.4" rx="61.0329" ry="19.4695"/>
<text text-anchor="middle" x="61.266" y="-151.6" font-family="Times,serif" font-size="16.00" fill="#000000">Semester 7</text>
</g>
<!-- Semester 6&#45;&gt;Semester 7 -->
<g id="edge6" class="edge">
<title>Semester 6-&gt;Semester 7</title>
<path fill="none" stroke="#000000" d="M61.266,-272.5718C61.266,-249.9158 61.266,-212.2233 61.266,-185.938"/>
<polygon fill="#000000" stroke="#000000" points="64.7661,-185.7921 61.266,-175.7921 57.7661,-185.7922 64.7661,-185.7921"/>
</g>
<!-- Semester 8 -->
<g id="node8" class="node">
<title>Semester 8</title>
<ellipse fill="none" stroke="#000000" cx="61.266" cy="-20.8" rx="61.0329" ry="19.4695"/>
<text text-anchor="middle" x="61.266" y="-16" font-family="Times,serif" font-size="16.00" fill="#000000">Semester 8</text>
</g>
<!-- Semester 7&#45;&gt;Semester 8 -->
<g id="edge7" class="edge">
<title>Semester 7-&gt;Semester 8</title>
<path fill="none" stroke="#000000" d="M61.266,-136.9718C61.266,-114.3158 61.266,-76.6233 61.266,-50.338"/>
<polygon fill="#000000" stroke="#000000" points="64.7661,-50.1921 61.266,-40.1921 57.7661,-50.1922 64.7661,-50.1921"/>
</g>
<!-- AIF181101 -->
<g id="node9" class="node">
<title>AIF181101</title>
<polygon fill="none" stroke="#000000" points="754.3186,-990.6019 600.2134,-990.6019 600.2134,-949.3981 754.3186,-949.3981 754.3186,-990.6019"/>
<text text-anchor="middle" x="677.266" y="-974.2" font-family="Times,serif" font-size="14.00" fill="#000000">AIF181101-03</text>
<text text-anchor="middle" x="677.266" y="-957.4" font-family="Times,serif" font-size="14.00" fill="#000000">Computational Thinking</text>
</g>
<!-- AIF181100 -->
<g id="node16" class="node">
<title>AIF181100</title>
<polygon fill="none" stroke="#000000" points="742.4362,-855.0019 612.0958,-855.0019 612.0958,-813.7981 742.4362,-813.7981 742.4362,-855.0019"/>
<text text-anchor="middle" x="677.266" y="-838.6" font-family="Times,serif" font-size="14.00" fill="#000000">AIF181100-04</text>
<text text-anchor="middle" x="677.266" y="-821.8" font-family="Times,serif" font-size="14.00" fill="#000000">Dasar Pemrograman</text>
</g>
<!-- AIF181101&#45;&gt;AIF181100 -->
<g id="edge8" class="edge">
<title>AIF181101-&gt;AIF181100</title>
<path fill="none" stroke="#000000" d="M677.266,-949.1097C677.266,-926.7481 677.266,-891.0335 677.266,-865.3945"/>
<polygon fill="#000000" stroke="#000000" points="680.7661,-865.0915 677.266,-855.0915 673.7661,-865.0916 680.7661,-865.0915"/>
</g>
<!-- AIF181103 -->
<g id="node10" class="node">
<title>AIF181103</title>
<polygon fill="none" stroke="#000000" points="1578.7724,-990.6019 1459.7596,-990.6019 1459.7596,-949.3981 1578.7724,-949.3981 1578.7724,-990.6019"/>
<text text-anchor="middle" x="1519.266" y="-974.2" font-family="Times,serif" font-size="14.00" fill="#000000">AIF181103-04</text>
<text text-anchor="middle" x="1519.266" y="-957.4" font-family="Times,serif" font-size="14.00" fill="#000000">Matematika Dasar</text>
</g>
<!-- AIF181105 -->
<g id="node11" class="node">
<title>AIF181105</title>
<polygon fill="none" stroke="#000000" points="1049.8271,-990.6019 908.7049,-990.6019 908.7049,-949.3981 1049.8271,-949.3981 1049.8271,-990.6019"/>
<text text-anchor="middle" x="979.266" y="-974.2" font-family="Times,serif" font-size="14.00" fill="#000000">AIF181105-02</text>
<text text-anchor="middle" x="979.266" y="-957.4" font-family="Times,serif" font-size="14.00" fill="#000000">Pengantar Informatika</text>
</g>
<!-- AIF182308 -->
<g id="node34" class="node">
<title>AIF182308</title>
<polygon fill="none" stroke="#000000" points="1064.7801,-583.8019 893.7519,-583.8019 893.7519,-542.5981 1064.7801,-542.5981 1064.7801,-583.8019"/>
<text text-anchor="middle" x="979.266" y="-567.4" font-family="Times,serif" font-size="14.00" fill="#000000">AIF182308-03</text>
<text text-anchor="middle" x="979.266" y="-550.6" font-family="Times,serif" font-size="14.00" fill="#000000">Pengantar Sistem Informasi</text>
</g>
<!-- AIF181105&#45;&gt;AIF182308 -->
<g id="edge13" class="edge">
<title>AIF181105-&gt;AIF182308</title>
<path fill="none" stroke="#000000" d="M979.266,-949.2675C979.266,-882.619 979.266,-673.59 979.266,-594.2038"/>
<polygon fill="#000000" stroke="#000000" points="982.7661,-593.8908 979.266,-583.8908 975.7661,-593.8908 982.7661,-593.8908"/>
</g>
<!-- AIF181107 -->
<g id="node12" class="node">
<title>AIF181107</title>
<polygon fill="none" stroke="#000000" points="1441.8397,-990.6019 1314.6923,-990.6019 1314.6923,-949.3981 1441.8397,-949.3981 1441.8397,-990.6019"/>
<text text-anchor="middle" x="1378.266" y="-974.2" font-family="Times,serif" font-size="14.00" fill="#000000">AIF181107-03</text>
<text text-anchor="middle" x="1378.266" y="-957.4" font-family="Times,serif" font-size="14.00" fill="#000000">Matematika Diskret</text>
</g>
<!-- AIF182103 -->
<g id="node23" class="node">
<title>AIF182103</title>
<polygon fill="none" stroke="#000000" points="1431.3594,-719.4019 1325.1726,-719.4019 1325.1726,-678.1981 1431.3594,-678.1981 1431.3594,-719.4019"/>
<text text-anchor="middle" x="1378.266" y="-703" font-family="Times,serif" font-size="14.00" fill="#000000">AIF182103-04</text>
<text text-anchor="middle" x="1378.266" y="-686.2" font-family="Times,serif" font-size="14.00" fill="#000000">Struktur Diskret</text>
</g>
<!-- AIF181107&#45;&gt;AIF182103 -->
<g id="edge24" class="edge">
<title>AIF181107-&gt;AIF182103</title>
<path fill="none" stroke="#000000" stroke-dasharray="1,5" d="M1378.266,-949.1697C1378.266,-901.7448 1378.266,-785.5223 1378.266,-729.7059"/>
<polygon fill="#000000" stroke="#000000" points="1381.7661,-729.7012 1378.266,-719.7013 1374.7661,-729.7013 1381.7661,-729.7012"/>
</g>
<!-- MKU170130 -->
<g id="node13" class="node">
<title>MKU170130</title>
<polygon fill="none" stroke="#000000" points="1711.6165,-990.6019 1596.9155,-990.6019 1596.9155,-949.3981 1711.6165,-949.3981 1711.6165,-990.6019"/>
<text text-anchor="middle" x="1654.266" y="-974.2" font-family="Times,serif" font-size="14.00" fill="#000000">MKU170130-02</text>
<text text-anchor="middle" x="1654.266" y="-957.4" font-family="Times,serif" font-size="14.00" fill="#000000">Bahasa Indonesia</text>
</g>
<!-- MKU170110 -->
<g id="node14" class="node">
<title>MKU170110</title>
<polygon fill="none" stroke="#000000" points="1912.7962,-990.6019 1729.7358,-990.6019 1729.7358,-949.3981 1912.7962,-949.3981 1912.7962,-990.6019"/>
<text text-anchor="middle" x="1821.266" y="-974.2" font-family="Times,serif" font-size="14.00" fill="#000000">MKU170110-02</text>
<text text-anchor="middle" x="1821.266" y="-957.4" font-family="Times,serif" font-size="14.00" fill="#000000">Pendidikan Kewarganegaraan</text>
</g>
<!-- MKU170120 -->
<g id="node15" class="node">
<title>MKU170120</title>
<polygon fill="none" stroke="#000000" points="2040.0849,-990.6019 1930.4471,-990.6019 1930.4471,-949.3981 2040.0849,-949.3981 2040.0849,-990.6019"/>
<text text-anchor="middle" x="1985.266" y="-974.2" font-family="Times,serif" font-size="14.00" fill="#000000">MKU170120-02</text>
<text text-anchor="middle" x="1985.266" y="-957.4" font-family="Times,serif" font-size="14.00" fill="#000000">Logika</text>
</g>
<!-- AIF182101 -->
<g id="node22" class="node">
<title>AIF182101</title>
<polygon fill="none" stroke="#000000" points="654.6217,-719.4019 501.9103,-719.4019 501.9103,-678.1981 654.6217,-678.1981 654.6217,-719.4019"/>
<text text-anchor="middle" x="578.266" y="-703" font-family="Times,serif" font-size="14.00" fill="#000000">AIF182101-03</text>
<text text-anchor="middle" x="578.266" y="-686.2" font-family="Times,serif" font-size="14.00" fill="#000000">Algoritma Struktur Data</text>
</g>
<!-- AIF181100&#45;&gt;AIF182101 -->
<g id="edge9" class="edge">
<title>AIF181100-&gt;AIF182101</title>
<path fill="none" stroke="#000000" d="M662.0142,-813.5097C645.251,-790.5492 618.2096,-753.5106 599.4067,-727.7563"/>
<polygon fill="#000000" stroke="#000000" points="602.0961,-725.5043 593.3727,-719.4915 596.4425,-729.6319 602.0961,-725.5043"/>
</g>
<!-- AIF182105 -->
<g id="node24" class="node">
<title>AIF182105</title>
<polygon fill="none" stroke="#000000" points="877.4247,-719.4019 673.1073,-719.4019 673.1073,-678.1981 877.4247,-678.1981 877.4247,-719.4019"/>
<text text-anchor="middle" x="775.266" y="-703" font-family="Times,serif" font-size="14.00" fill="#000000">AIF182105-02</text>
<text text-anchor="middle" x="775.266" y="-686.2" font-family="Times,serif" font-size="14.00" fill="#000000">Pemrograman Berorientasi Objek</text>
</g>
<!-- AIF181100&#45;&gt;AIF182105 -->
<g id="edge10" class="edge">
<title>AIF181100-&gt;AIF182105</title>
<path fill="none" stroke="#000000" d="M692.3637,-813.5097C708.9576,-790.5492 735.7259,-753.5106 754.3388,-727.7563"/>
<polygon fill="#000000" stroke="#000000" points="757.2911,-729.6466 760.3119,-719.4915 751.6176,-725.5463 757.2911,-729.6466"/>
</g>
<!-- AIF181202 -->
<g id="node17" class="node">
<title>AIF181202</title>
<polygon fill="none" stroke="#000000" points="1802.3692,-855.0019 1582.1628,-855.0019 1582.1628,-813.7981 1802.3692,-813.7981 1802.3692,-855.0019"/>
<text text-anchor="middle" x="1692.266" y="-838.6" font-family="Times,serif" font-size="14.00" fill="#000000">AIF181202-04</text>
<text text-anchor="middle" x="1692.266" y="-821.8" font-family="Times,serif" font-size="14.00" fill="#000000">Arsitektur dan Organisasi Komputer</text>
</g>
<!-- AIF181104 -->
<g id="node18" class="node">
<title>AIF181104</title>
<polygon fill="none" stroke="#000000" points="1564.0068,-855.0019 1438.5252,-855.0019 1438.5252,-813.7981 1564.0068,-813.7981 1564.0068,-855.0019"/>
<text text-anchor="middle" x="1501.266" y="-838.6" font-family="Times,serif" font-size="14.00" fill="#000000">AIF181104-03</text>
<text text-anchor="middle" x="1501.266" y="-821.8" font-family="Times,serif" font-size="14.00" fill="#000000">Logika Informatika</text>
</g>
<!-- AIF183107 -->
<g id="node39" class="node">
<title>AIF183107</title>
<polygon fill="none" stroke="#000000" points="1521.2282,-448.2019 1365.3038,-448.2019 1365.3038,-406.9981 1521.2282,-406.9981 1521.2282,-448.2019"/>
<text text-anchor="middle" x="1443.266" y="-431.8" font-family="Times,serif" font-size="14.00" fill="#000000">AIF183107-03</text>
<text text-anchor="middle" x="1443.266" y="-415" font-family="Times,serif" font-size="14.00" fill="#000000">Pengantar Sistem Cerdas</text>
</g>
<!-- AIF181104&#45;&gt;AIF183107 -->
<g id="edge33" class="edge">
<title>AIF181104-&gt;AIF183107</title>
<path fill="none" stroke="#000000" stroke-dasharray="1,5" d="M1501.7687,-813.6254C1502.5337,-765.4432 1502.1752,-642.5516 1482.266,-542.4 1476.4029,-512.9063 1464.9384,-480.5799 1455.95,-457.7671"/>
<polygon fill="#000000" stroke="#000000" points="1459.1241,-456.2789 1452.1485,-448.3045 1452.6287,-458.8884 1459.1241,-456.2789"/>
</g>
<!-- AIF181106 -->
<g id="node19" class="node">
<title>AIF181106</title>
<polygon fill="none" stroke="#000000" points="1985.9501,-855.0019 1820.5819,-855.0019 1820.5819,-813.7981 1985.9501,-813.7981 1985.9501,-855.0019"/>
<text text-anchor="middle" x="1903.266" y="-838.6" font-family="Times,serif" font-size="14.00" fill="#000000">AIF181106-03</text>
<text text-anchor="middle" x="1903.266" y="-821.8" font-family="Times,serif" font-size="14.00" fill="#000000">Matriks dan Ruang Vektor</text>
</g>
<!-- MKU180240 -->
<g id="node20" class="node">
<title>MKU180240</title>
<polygon fill="none" stroke="#000000" points="2114.0849,-855.0019 2004.4471,-855.0019 2004.4471,-813.7981 2114.0849,-813.7981 2114.0849,-855.0019"/>
<text text-anchor="middle" x="2059.266" y="-838.6" font-family="Times,serif" font-size="14.00" fill="#000000">MKU180240-02</text>
<text text-anchor="middle" x="2059.266" y="-821.8" font-family="Times,serif" font-size="14.00" fill="#000000">Etika</text>
</g>
<!-- MKU180360 -->
<g id="node21" class="node">
<title>MKU180360</title>
<polygon fill="none" stroke="#000000" points="2241.0849,-855.0019 2131.4471,-855.0019 2131.4471,-813.7981 2241.0849,-813.7981 2241.0849,-855.0019"/>
<text text-anchor="middle" x="2186.266" y="-838.6" font-family="Times,serif" font-size="14.00" fill="#000000">MKU180360-02</text>
<text text-anchor="middle" x="2186.266" y="-821.8" font-family="Times,serif" font-size="14.00" fill="#000000">Estetika</text>
</g>
<!-- AIF182302 -->
<g id="node31" class="node">
<title>AIF182302</title>
<polygon fill="none" stroke="#000000" points="368.2449,-583.8019 140.2871,-583.8019 140.2871,-542.5981 368.2449,-542.5981 368.2449,-583.8019"/>
<text text-anchor="middle" x="254.266" y="-567.4" font-family="Times,serif" font-size="14.00" fill="#000000">AIF182302-04</text>
<text text-anchor="middle" x="254.266" y="-550.6" font-family="Times,serif" font-size="14.00" fill="#000000">Manajemen Informasi dan Basis Data</text>
</g>
<!-- AIF182101&#45;&gt;AIF182302 -->
<g id="edge25" class="edge">
<title>AIF182101-&gt;AIF182302</title>
<path fill="none" stroke="#000000" stroke-dasharray="1,5" d="M528.7047,-678.0577C470.7365,-653.7969 374.8669,-613.6737 313.156,-587.8466"/>
<polygon fill="#000000" stroke="#000000" points="314.1321,-584.461 303.5562,-583.8288 311.4296,-590.9183 314.1321,-584.461"/>
</g>
<!-- AIF182106 -->
<g id="node33" class="node">
<title>AIF182106</title>
<polygon fill="none" stroke="#000000" points="1472.778,-583.8019 1283.754,-583.8019 1283.754,-542.5981 1472.778,-542.5981 1472.778,-583.8019"/>
<text text-anchor="middle" x="1378.266" y="-567.4" font-family="Times,serif" font-size="14.00" fill="#000000">AIF182106-03</text>
<text text-anchor="middle" x="1378.266" y="-550.6" font-family="Times,serif" font-size="14.00" fill="#000000">Desain dan Analisis Algoritma</text>
</g>
<!-- AIF182101&#45;&gt;AIF182106 -->
<g id="edge12" class="edge">
<title>AIF182101-&gt;AIF182106</title>
<path fill="none" stroke="#000000" d="M654.6245,-679.9769C657.8771,-679.2874 661.1013,-678.625 664.266,-678 930.5202,-625.4187 1002.9961,-631.925 1273.6005,-584.262"/>
<polygon fill="#000000" stroke="#000000" points="1274.4874,-587.6595 1283.7243,-582.4699 1273.2672,-580.7666 1274.4874,-587.6595"/>
</g>
<!-- AIF183201 -->
<g id="node36" class="node">
<title>AIF183201</title>
<polygon fill="none" stroke="#000000" points="640.9113,-448.2019 539.6207,-448.2019 539.6207,-406.9981 640.9113,-406.9981 640.9113,-448.2019"/>
<text text-anchor="middle" x="590.266" y="-431.8" font-family="Times,serif" font-size="14.00" fill="#000000">AIF183201-03</text>
<text text-anchor="middle" x="590.266" y="-415" font-family="Times,serif" font-size="14.00" fill="#000000">Sistem Operasi</text>
</g>
<!-- AIF182101&#45;&gt;AIF183201 -->
<g id="edge29" class="edge">
<title>AIF182101-&gt;AIF183201</title>
<path fill="none" stroke="#000000" stroke-dasharray="1,5" d="M579.1877,-677.9697C581.2861,-630.5448 586.4287,-514.3223 588.8985,-458.5059"/>
<polygon fill="#000000" stroke="#000000" points="592.3956,-458.6462 589.3412,-448.5013 585.4024,-458.3367 592.3956,-458.6462"/>
</g>
<!-- AIF182103&#45;&gt;AIF182106 -->
<g id="edge27" class="edge">
<title>AIF182103-&gt;AIF182106</title>
<path fill="none" stroke="#000000" stroke-dasharray="1,5" d="M1378.266,-677.9097C1378.266,-655.5481 1378.266,-619.8335 1378.266,-594.1945"/>
<polygon fill="#000000" stroke="#000000" points="1381.7661,-593.8915 1378.266,-583.8915 1374.7661,-593.8916 1381.7661,-593.8915"/>
</g>
<!-- AIF182100 -->
<g id="node30" class="node">
<title>AIF182100</title>
<polygon fill="none" stroke="#000000" points="875.4788,-583.8019 649.0532,-583.8019 649.0532,-542.5981 875.4788,-542.5981 875.4788,-583.8019"/>
<text text-anchor="middle" x="762.266" y="-567.4" font-family="Times,serif" font-size="14.00" fill="#000000">AIF182100-04</text>
<text text-anchor="middle" x="762.266" y="-550.6" font-family="Times,serif" font-size="14.00" fill="#000000">Analisis dan Desain Perangkat Lunak</text>
</g>
<!-- AIF182105&#45;&gt;AIF182100 -->
<g id="edge11" class="edge">
<title>AIF182105-&gt;AIF182100</title>
<path fill="none" stroke="#000000" d="M773.2632,-677.9097C771.1099,-655.4483 767.6649,-619.5143 765.2046,-593.8517"/>
<polygon fill="#000000" stroke="#000000" points="768.6881,-593.5119 764.2497,-583.8915 761.7201,-594.1799 768.6881,-593.5119"/>
</g>
<!-- AIF182007 -->
<g id="node25" class="node">
<title>AIF182007</title>
<polygon fill="none" stroke="#000000" points="1701.1812,-719.4019 1585.3508,-719.4019 1585.3508,-678.1981 1701.1812,-678.1981 1701.1812,-719.4019"/>
<text text-anchor="middle" x="1643.266" y="-703" font-family="Times,serif" font-size="14.00" fill="#000000">AIF182007-02</text>
<text text-anchor="middle" x="1643.266" y="-686.2" font-family="Times,serif" font-size="14.00" fill="#000000">Teknik Presentasi</text>
</g>
<!-- AIF184001 -->
<g id="node47" class="node">
<title>AIF184001</title>
<polygon fill="none" stroke="#000000" points="1700.9766,-177.0019 1601.5554,-177.0019 1601.5554,-135.7981 1700.9766,-135.7981 1700.9766,-177.0019"/>
<text text-anchor="middle" x="1651.266" y="-160.6" font-family="Times,serif" font-size="14.00" fill="#000000">AIF184001-03</text>
<text text-anchor="middle" x="1651.266" y="-143.8" font-family="Times,serif" font-size="14.00" fill="#000000">Skripsi 1</text>
</g>
<!-- AIF182007&#45;&gt;AIF184001 -->
<g id="edge17" class="edge">
<title>AIF182007-&gt;AIF184001</title>
<path fill="none" stroke="#000000" d="M1643.5747,-677.8696C1644.8022,-594.6451 1649.3414,-286.8856 1650.8067,-187.5392"/>
<polygon fill="#000000" stroke="#000000" points="1654.3103,-187.3186 1650.9582,-177.268 1647.311,-187.2153 1654.3103,-187.3186"/>
</g>
<!-- AIF184002 -->
<g id="node51" class="node">
<title>AIF184002</title>
<polygon fill="none" stroke="#000000" points="1700.9766,-41.4019 1601.5554,-41.4019 1601.5554,-.1981 1700.9766,-.1981 1700.9766,-41.4019"/>
<text text-anchor="middle" x="1651.266" y="-25" font-family="Times,serif" font-size="14.00" fill="#000000">AIF184002-05</text>
<text text-anchor="middle" x="1651.266" y="-8.2" font-family="Times,serif" font-size="14.00" fill="#000000">Skripsi 2</text>
</g>
<!-- AIF182007&#45;&gt;AIF184002 -->
<g id="edge21" class="edge">
<title>AIF182007-&gt;AIF184002</title>
<path fill="none" stroke="#000000" d="M1634.1147,-678.1717C1615.1404,-633.4604 1573.266,-523.8803 1573.266,-427.6 1573.266,-427.6 1573.266,-427.6 1573.266,-292 1573.266,-221.9778 1571.7194,-202.5398 1592.266,-135.6 1601.686,-104.9102 1619.0399,-72.6174 1632.4977,-50.127"/>
<polygon fill="#000000" stroke="#000000" points="1635.5896,-51.7791 1637.8075,-41.419 1629.613,-48.1348 1635.5896,-51.7791"/>
</g>
<!-- AIF184004 -->
<g id="node52" class="node">
<title>AIF184004</title>
<polygon fill="none" stroke="#000000" points="1818.9766,-41.4019 1719.5554,-41.4019 1719.5554,-.1981 1818.9766,-.1981 1818.9766,-41.4019"/>
<text text-anchor="middle" x="1769.266" y="-25" font-family="Times,serif" font-size="14.00" fill="#000000">AIF184004-08</text>
<text text-anchor="middle" x="1769.266" y="-8.2" font-family="Times,serif" font-size="14.00" fill="#000000">Tugas Akhir</text>
</g>
<!-- AIF182007&#45;&gt;AIF184004 -->
<g id="edge23" class="edge">
<title>AIF182007-&gt;AIF184004</title>
<path fill="none" stroke="#000000" d="M1667.4038,-677.955C1713.4435,-635.7366 1809.266,-534.9704 1809.266,-427.6 1809.266,-427.6 1809.266,-427.6 1809.266,-292 1809.266,-204.0241 1788.4102,-101.6967 1776.8176,-51.6137"/>
<polygon fill="#000000" stroke="#000000" points="1780.1926,-50.676 1774.4953,-41.7435 1773.3787,-52.2793 1780.1926,-50.676"/>
</g>
<!-- AIF182109 -->
<g id="node26" class="node">
<title>AIF182109</title>
<polygon fill="none" stroke="#000000" points="1887.7042,-719.4019 1718.8278,-719.4019 1718.8278,-678.1981 1887.7042,-678.1981 1887.7042,-719.4019"/>
<text text-anchor="middle" x="1803.266" y="-703" font-family="Times,serif" font-size="14.00" fill="#000000">AIF182109-03</text>
<text text-anchor="middle" x="1803.266" y="-686.2" font-family="Times,serif" font-size="14.00" fill="#000000">Statistika untuk Komputasi</text>
</g>
<!-- MKU180370 -->
<g id="node27" class="node">
<title>MKU180370</title>
<polygon fill="none" stroke="#000000" points="2015.0849,-719.4019 1905.4471,-719.4019 1905.4471,-678.1981 2015.0849,-678.1981 2015.0849,-719.4019"/>
<text text-anchor="middle" x="1960.266" y="-703" font-family="Times,serif" font-size="14.00" fill="#000000">MKU180370-02</text>
<text text-anchor="middle" x="1960.266" y="-686.2" font-family="Times,serif" font-size="14.00" fill="#000000">Agama Katolik</text>
</g>
<!-- MKU180380 -->
<g id="node28" class="node">
<title>MKU180380</title>
<polygon fill="none" stroke="#000000" points="2153.0761,-719.4019 2033.4558,-719.4019 2033.4558,-678.1981 2153.0761,-678.1981 2153.0761,-719.4019"/>
<text text-anchor="middle" x="2093.266" y="-703" font-family="Times,serif" font-size="14.00" fill="#000000">MKU180380-02</text>
<text text-anchor="middle" x="2093.266" y="-686.2" font-family="Times,serif" font-size="14.00" fill="#000000">Fenomena Katolik</text>
</g>
<!-- MKU180250 -->
<g id="node29" class="node">
<title>MKU180250</title>
<polygon fill="none" stroke="#000000" points="2281.0849,-719.4019 2171.4471,-719.4019 2171.4471,-678.1981 2281.0849,-678.1981 2281.0849,-719.4019"/>
<text text-anchor="middle" x="2226.266" y="-703" font-family="Times,serif" font-size="14.00" fill="#000000">MKU180250-02</text>
<text text-anchor="middle" x="2226.266" y="-686.2" font-family="Times,serif" font-size="14.00" fill="#000000">Pancasila</text>
</g>
<!-- AIF183303 -->
<g id="node37" class="node">
<title>AIF183303</title>
<polygon fill="none" stroke="#000000" points="827.6508,-448.2019 658.8812,-448.2019 658.8812,-406.9981 827.6508,-406.9981 827.6508,-448.2019"/>
<text text-anchor="middle" x="743.266" y="-431.8" font-family="Times,serif" font-size="14.00" fill="#000000">AIF183303-03</text>
<text text-anchor="middle" x="743.266" y="-415" font-family="Times,serif" font-size="14.00" fill="#000000">Rekayasa Perangkat Lunak</text>
</g>
<!-- AIF182100&#45;&gt;AIF183303 -->
<g id="edge30" class="edge">
<title>AIF182100-&gt;AIF183303</title>
<path fill="none" stroke="#000000" stroke-dasharray="1,5" d="M759.3389,-542.3097C756.1916,-519.8483 751.1566,-483.9143 747.5609,-458.2517"/>
<polygon fill="#000000" stroke="#000000" points="751.0191,-457.7091 746.1653,-448.2915 744.0868,-458.6805 751.0191,-457.7091"/>
</g>
<!-- AIF183209 -->
<g id="node40" class="node">
<title>AIF183209</title>
<polygon fill="none" stroke="#000000" points="1265.5033,-448.2019 1027.0286,-448.2019 1027.0286,-406.9981 1265.5033,-406.9981 1265.5033,-448.2019"/>
<text text-anchor="middle" x="1146.266" y="-431.8" font-family="Times,serif" font-size="14.00" fill="#000000">AIF183209-03</text>
<text text-anchor="middle" x="1146.266" y="-415" font-family="Times,serif" font-size="14.00" fill="#000000">Pemrograman pada Perangkat Bergerak</text>
</g>
<!-- AIF182100&#45;&gt;AIF183209 -->
<g id="edge34" class="edge">
<title>AIF182100-&gt;AIF183209</title>
<path fill="none" stroke="#000000" stroke-dasharray="1,5" d="M821.0053,-542.4577C890.2739,-517.9972 1005.205,-477.4122 1078.268,-451.6118"/>
<polygon fill="#000000" stroke="#000000" points="1079.5841,-454.8589 1087.848,-448.2288 1077.2532,-448.2584 1079.5841,-454.8589"/>
</g>
<!-- AIF182204 -->
<g id="node32" class="node">
<title>AIF182204</title>
<polygon fill="none" stroke="#000000" points="562.4303,-583.8019 386.1017,-583.8019 386.1017,-542.5981 562.4303,-542.5981 562.4303,-583.8019"/>
<text text-anchor="middle" x="474.266" y="-567.4" font-family="Times,serif" font-size="14.00" fill="#000000">AIF182204-03</text>
<text text-anchor="middle" x="474.266" y="-550.6" font-family="Times,serif" font-size="14.00" fill="#000000">Pemrograman Berbasis Web</text>
</g>
<!-- AIF182302&#45;&gt;AIF182204 -->
<g id="edge26" class="edge">
<title>AIF182302-&gt;AIF182204</title>
<path fill="none" stroke="#000000" stroke-dasharray="1,5" d="M368.1332,-563.2C370.733,-563.2 373.3327,-563.2 375.9325,-563.2"/>
<polygon fill="#000000" stroke="#000000" points="375.9602,-566.7001 385.9602,-563.2 375.9601,-559.7001 375.9602,-566.7001"/>
</g>
<!-- AIF182302&#45;&gt;AIF182308 -->
<g id="edge28" class="edge">
<title>AIF182302-&gt;AIF182308</title>
<path fill="none" stroke="#000000" stroke-dasharray="1,5" d="M284.3561,-583.9391C310.1006,-600.3459 348.8294,-621.9477 386.266,-631 597.5115,-682.0797 666.9371,-692.9101 875.266,-631 902.2022,-622.9952 928.6762,-605.5589 948.1725,-590.3738"/>
<polygon fill="#000000" stroke="#000000" points="950.4655,-593.0214 956.0819,-584.0377 946.089,-587.5582 950.4655,-593.0214"/>
</g>
<!-- AIF183300 -->
<g id="node42" class="node">
<title>AIF183300</title>
<polygon fill="none" stroke="#000000" points="323.0721,-312.6019 185.4599,-312.6019 185.4599,-271.3981 323.0721,-271.3981 323.0721,-312.6019"/>
<text text-anchor="middle" x="254.266" y="-296.2" font-family="Times,serif" font-size="14.00" fill="#000000">AIF183300-02</text>
<text text-anchor="middle" x="254.266" y="-279.4" font-family="Times,serif" font-size="14.00" fill="#000000">Teknologi Basis Data</text>
</g>
<!-- AIF182302&#45;&gt;AIF183300 -->
<g id="edge14" class="edge">
<title>AIF182302-&gt;AIF183300</title>
<path fill="none" stroke="#000000" d="M254.266,-542.3697C254.266,-494.9448 254.266,-378.7223 254.266,-322.9059"/>
<polygon fill="#000000" stroke="#000000" points="257.7661,-322.9012 254.266,-312.9013 250.7661,-322.9013 257.7661,-322.9012"/>
</g>
<!-- AIF182106&#45;&gt;AIF183107 -->
<g id="edge32" class="edge">
<title>AIF182106-&gt;AIF183107</title>
<path fill="none" stroke="#000000" stroke-dasharray="1,5" d="M1388.2798,-542.3097C1399.1424,-519.6487 1416.5784,-483.2744 1428.8999,-457.5698"/>
<polygon fill="#000000" stroke="#000000" points="1432.181,-458.822 1433.3475,-448.2915 1425.8687,-455.7962 1432.181,-458.822"/>
</g>
<!-- AIF183308 -->
<g id="node46" class="node">
<title>AIF183308</title>
<polygon fill="none" stroke="#000000" points="1058.9599,-312.6019 893.5721,-312.6019 893.5721,-271.3981 1058.9599,-271.3981 1058.9599,-312.6019"/>
<text text-anchor="middle" x="976.266" y="-296.2" font-family="Times,serif" font-size="14.00" fill="#000000">AIF183308-03</text>
<text text-anchor="middle" x="976.266" y="-279.4" font-family="Times,serif" font-size="14.00" fill="#000000">Proyek Sistem Informasi 1</text>
</g>
<!-- AIF182308&#45;&gt;AIF183308 -->
<g id="edge15" class="edge">
<title>AIF182308-&gt;AIF183308</title>
<path fill="none" stroke="#000000" d="M979.7127,-542.4532C980.2862,-512.4992 981.1124,-455.3971 980.266,-406.8 979.7713,-378.3977 978.5888,-346.0608 977.637,-322.9609"/>
<polygon fill="#000000" stroke="#000000" points="981.124,-322.5769 977.2057,-312.7332 974.1302,-322.8718 981.124,-322.5769"/>
</g>
<!-- AIF182210 -->
<g id="node35" class="node">
<title>AIF182210</title>
<polygon fill="none" stroke="#000000" points="1265.9317,-583.8019 1082.6003,-583.8019 1082.6003,-542.5981 1265.9317,-542.5981 1265.9317,-583.8019"/>
<text text-anchor="middle" x="1174.266" y="-567.4" font-family="Times,serif" font-size="14.00" fill="#000000">AIF182210-02</text>
<text text-anchor="middle" x="1174.266" y="-550.6" font-family="Times,serif" font-size="14.00" fill="#000000">Pengantar Jaringan Komputer</text>
</g>
<!-- AIF182210&#45;&gt;AIF183209 -->
<g id="edge35" class="edge">
<title>AIF182210-&gt;AIF183209</title>
<path fill="none" stroke="#000000" stroke-dasharray="1,5" d="M1169.9524,-542.3097C1165.3143,-519.8483 1157.8943,-483.9143 1152.5953,-458.2517"/>
<polygon fill="#000000" stroke="#000000" points="1155.9886,-457.3771 1150.5386,-448.2915 1149.1332,-458.7928 1155.9886,-457.3771"/>
</g>
<!-- AIF183204 -->
<g id="node44" class="node">
<title>AIF183204</title>
<polygon fill="none" stroke="#000000" points="1354.9544,-312.6019 1231.5776,-312.6019 1231.5776,-271.3981 1354.9544,-271.3981 1354.9544,-312.6019"/>
<text text-anchor="middle" x="1293.266" y="-296.2" font-family="Times,serif" font-size="14.00" fill="#000000">AIF183204-02</text>
<text text-anchor="middle" x="1293.266" y="-279.4" font-family="Times,serif" font-size="14.00" fill="#000000">Jaringan Komputer</text>
</g>
<!-- AIF182210&#45;&gt;AIF183204 -->
<g id="edge36" class="edge">
<title>AIF182210-&gt;AIF183204</title>
<path fill="none" stroke="#000000" stroke-dasharray="1,5" d="M1199.5442,-542.384C1223.1727,-521.3412 1257.2848,-486.5538 1274.266,-448.4 1292.3522,-407.7634 1295.1275,-355.6447 1294.7457,-323.0285"/>
<polygon fill="#000000" stroke="#000000" points="1298.2387,-322.6777 1294.5127,-312.7597 1291.2405,-322.8366 1298.2387,-322.6777"/>
</g>
<!-- AIF183305 -->
<g id="node38" class="node">
<title>AIF183305</title>
<polygon fill="none" stroke="#000000" points="971.0082,-448.2019 845.5238,-448.2019 845.5238,-406.9981 971.0082,-406.9981 971.0082,-448.2019"/>
<text text-anchor="middle" x="908.266" y="-431.8" font-family="Times,serif" font-size="14.00" fill="#000000">AIF183305-02</text>
<text text-anchor="middle" x="908.266" y="-415" font-family="Times,serif" font-size="14.00" fill="#000000">Manajemen Proyek</text>
</g>
<!-- AIF183303&#45;&gt;AIF183305 -->
<g id="edge31" class="edge">
<title>AIF183303-&gt;AIF183305</title>
<path fill="none" stroke="#000000" stroke-dasharray="1,5" d="M827.6996,-427.6C830.3156,-427.6 832.9317,-427.6 835.5477,-427.6"/>
<polygon fill="#000000" stroke="#000000" points="835.6382,-431.1001 845.6382,-427.6 835.6382,-424.1001 835.6382,-431.1001"/>
</g>
<!-- AIF183106 -->
<g id="node45" class="node">
<title>AIF183106</title>
<polygon fill="none" stroke="#000000" points="830.0068,-312.6019 704.5252,-312.6019 704.5252,-271.3981 830.0068,-271.3981 830.0068,-312.6019"/>
<text text-anchor="middle" x="767.266" y="-296.2" font-family="Times,serif" font-size="14.00" fill="#000000">AIF183106-06</text>
<text text-anchor="middle" x="767.266" y="-279.4" font-family="Times,serif" font-size="14.00" fill="#000000">Proyek Informatika</text>
</g>
<!-- AIF183303&#45;&gt;AIF183106 -->
<g id="edge37" class="edge">
<title>AIF183303-&gt;AIF183106</title>
<path fill="none" stroke="#000000" stroke-dasharray="1,5" d="M746.9634,-406.7097C750.9389,-384.2483 757.2989,-348.3143 761.8409,-322.6517"/>
<polygon fill="#000000" stroke="#000000" points="765.3073,-323.1485 763.6038,-312.6915 758.4144,-321.9285 765.3073,-323.1485"/>
</g>
<!-- AIF183305&#45;&gt;AIF183106 -->
<g id="edge38" class="edge">
<title>AIF183305-&gt;AIF183106</title>
<path fill="none" stroke="#000000" stroke-dasharray="1,5" d="M886.5437,-406.7097C862.3575,-383.4497 823.1481,-345.742 796.3336,-319.9544"/>
<polygon fill="#000000" stroke="#000000" points="798.4154,-317.1006 788.7815,-312.6915 793.5632,-322.146 798.4154,-317.1006"/>
</g>
<!-- AIF183305&#45;&gt;AIF183308 -->
<g id="edge39" class="edge">
<title>AIF183305-&gt;AIF183308</title>
<path fill="none" stroke="#000000" stroke-dasharray="1,5" d="M918.742,-406.7097C930.156,-383.9488 948.5075,-347.3537 961.4069,-321.6307"/>
<polygon fill="#000000" stroke="#000000" points="964.5356,-323.1995 965.8897,-312.6915 958.2783,-320.0616 964.5356,-323.1995"/>
</g>
<!-- AIF183111 -->
<g id="node41" class="node">
<title>AIF183111</title>
<polygon fill="none" stroke="#000000" points="2013.7142,-448.2019 1836.8178,-448.2019 1836.8178,-406.9981 2013.7142,-406.9981 2013.7142,-448.2019"/>
<text text-anchor="middle" x="1925.266" y="-431.8" font-family="Times,serif" font-size="14.00" fill="#000000">AIF183111-03</text>
<text text-anchor="middle" x="1925.266" y="-415" font-family="Times,serif" font-size="14.00" fill="#000000">Interaksi Manusia Komputer</text>
</g>
<!-- AIF183002 -->
<g id="node43" class="node">
<title>AIF183002</title>
<polygon fill="none" stroke="#000000" points="1781.7517,-312.6019 1670.7803,-312.6019 1670.7803,-271.3981 1781.7517,-271.3981 1781.7517,-312.6019"/>
<text text-anchor="middle" x="1726.266" y="-296.2" font-family="Times,serif" font-size="14.00" fill="#000000">AIF183002-02</text>
<text text-anchor="middle" x="1726.266" y="-279.4" font-family="Times,serif" font-size="14.00" fill="#000000">Penulisan Ilmiah</text>
</g>
<!-- AIF183002&#45;&gt;AIF184001 -->
<g id="edge16" class="edge">
<title>AIF183002-&gt;AIF184001</title>
<path fill="none" stroke="#000000" d="M1714.7116,-271.1097C1702.1226,-248.3488 1681.882,-211.7537 1667.6547,-186.0307"/>
<polygon fill="#000000" stroke="#000000" points="1670.6132,-184.1482 1662.7104,-177.0915 1664.4877,-187.5363 1670.6132,-184.1482"/>
</g>
<!-- AIF183002&#45;&gt;AIF184002 -->
<g id="edge19" class="edge">
<title>AIF183002-&gt;AIF184002</title>
<path fill="none" stroke="#000000" d="M1726.5667,-271.2855C1726.4713,-240.8885 1724.2367,-182.7018 1710.266,-135.6 1701.1931,-105.0111 1683.9616,-72.9361 1670.4534,-50.4904"/>
<polygon fill="#000000" stroke="#000000" points="1673.3273,-48.4819 1665.1131,-41.7903 1667.3615,-52.1438 1673.3273,-48.4819"/>
</g>
<!-- AIF183002&#45;&gt;AIF184004 -->
<g id="edge22" class="edge">
<title>AIF183002-&gt;AIF184004</title>
<path fill="none" stroke="#000000" d="M1729.5687,-271.1697C1737.0882,-223.7448 1755.5158,-107.5223 1764.3657,-51.7059"/>
<polygon fill="#000000" stroke="#000000" points="1767.8428,-52.126 1765.952,-41.7013 1760.9291,-51.0298 1767.8428,-52.126"/>
</g>
<!-- AIF184303 -->
<g id="node48" class="node">
<title>AIF184303</title>
<polygon fill="none" stroke="#000000" points="1058.9599,-177.0019 893.5721,-177.0019 893.5721,-135.7981 1058.9599,-135.7981 1058.9599,-177.0019"/>
<text text-anchor="middle" x="976.266" y="-160.6" font-family="Times,serif" font-size="14.00" fill="#000000">AIF184303-03</text>
<text text-anchor="middle" x="976.266" y="-143.8" font-family="Times,serif" font-size="14.00" fill="#000000">Proyek Sistem Informasi 2</text>
</g>
<!-- AIF183308&#45;&gt;AIF184303 -->
<g id="edge18" class="edge">
<title>AIF183308-&gt;AIF184303</title>
<path fill="none" stroke="#000000" d="M976.266,-271.1097C976.266,-248.7481 976.266,-213.0335 976.266,-187.3945"/>
<polygon fill="#000000" stroke="#000000" points="979.7661,-187.0915 976.266,-177.0915 972.7661,-187.0916 979.7661,-187.0915"/>
</g>
<!-- AIF184001&#45;&gt;AIF184002 -->
<g id="edge20" class="edge">
<title>AIF184001-&gt;AIF184002</title>
<path fill="none" stroke="#000000" d="M1651.266,-135.5097C1651.266,-113.1481 1651.266,-77.4335 1651.266,-51.7945"/>
<polygon fill="#000000" stroke="#000000" points="1654.7661,-51.4915 1651.266,-41.4915 1647.7661,-51.4916 1654.7661,-51.4915"/>
</g>
<!-- AIF184005 -->
<g id="node49" class="node">
<title>AIF184005</title>
<polygon fill="none" stroke="#000000" points="2003.0426,-177.0019 1837.4894,-177.0019 1837.4894,-135.7981 2003.0426,-135.7981 2003.0426,-177.0019"/>
<text text-anchor="middle" x="1920.266" y="-160.6" font-family="Times,serif" font-size="14.00" fill="#000000">AIF184005-02</text>
<text text-anchor="middle" x="1920.266" y="-143.8" font-family="Times,serif" font-size="14.00" fill="#000000">Komputer dan Masyarakat</text>
</g>
<!-- AIF184000 -->
<g id="node50" class="node">
<title>AIF184000</title>
<polygon fill="none" stroke="#000000" points="1935.9766,-41.4019 1836.5554,-41.4019 1836.5554,-.1981 1935.9766,-.1981 1935.9766,-41.4019"/>
<text text-anchor="middle" x="1886.266" y="-25" font-family="Times,serif" font-size="14.00" fill="#000000">AIF184000-02</text>
<text text-anchor="middle" x="1886.266" y="-8.2" font-family="Times,serif" font-size="14.00" fill="#000000">Etika Profesi</text>
</g>
</g>
</svg>