<?xml version="1.0" encoding="UTF-8" standalone="no"?>
<!DOCTYPE svg PUBLIC "-//W3C//DTD SVG 1.1//EN" "http://www.w3.org/Graphics/SVG/1.1/DTD/svg11.dtd">
<!-- Generated by graphviz version 2.40.1 (20161225.0304)
 -->
<!-- Title: G Pages: 1 -->
<svg width="576pt" height="480pt" viewBox="0.00 0.00 576.00 480.00" xmlns="http://www.w3.org/2000/svg" xmlns:xlink="http://www.w3.org/1999/xlink">
<g id="graph0" class="graph" transform="scale(.3243 .3243) rotate(0) translate(4 1476)">
<title>G</title>
<polygon fill="#ffffff" stroke="transparent" points="-4,4 -4,-1476 1772,-1476 1772,4 -4,4"/>
<!-- Semester 1 -->
<g id="node1" class="node">
<title>Semester 1</title>
<ellipse fill="none" stroke="#000000" cx="1129.3033" cy="-1377.3219" rx="61.0329" ry="19.4695"/>
<text text-anchor="middle" x="1129.3033" y="-1372.5219" font-family="Times,serif" font-size="16.00" fill="#000000">Semester 1</text>
</g>
<!-- Semester 2 -->
<g id="node2" class="node">
<title>Semester 2</title>
<ellipse fill="none" stroke="#000000" cx="1148.4219" cy="-1215.6754" rx="61.0329" ry="19.4695"/>
<text text-anchor="middle" x="1148.4219" y="-1210.8754" font-family="Times,serif" font-size="16.00" fill="#000000">Semester 2</text>
</g>
<!-- Semester 1&#45;&gt;Semester 2 -->
<g id="edge1" class="edge">
<title>Semester 1-&gt;Semester 2</title>
<path fill="none" stroke="#000000" d="M1131.6094,-1357.8236C1134.9198,-1329.8344 1141.0455,-1278.0425 1144.9178,-1245.3022"/>
<polygon fill="#000000" stroke="#000000" points="1148.4385,-1245.3332 1146.1374,-1234.9912 1141.4869,-1244.5109 1148.4385,-1245.3332"/>
</g>
<!-- Semester 3 -->
<g id="node3" class="node">
<title>Semester 3</title>
<ellipse fill="none" stroke="#000000" cx="1157.1495" cy="-1167.1431" rx="61.0329" ry="19.4695"/>
<text text-anchor="middle" x="1157.1495" y="-1162.3431" font-family="Times,serif" font-size="16.00" fill="#000000">Semester 3</text>
</g>
<!-- Semester 2&#45;&gt;Semester 3 -->
<g id="edge2" class="edge">
<title>Semester 2-&gt;Semester 3</title>
<path fill="none" stroke="#000000" d="M1151.9215,-1196.2151C1151.9393,-1196.1162 1151.9571,-1196.0172 1151.9749,-1195.9181"/>
<polygon fill="#000000" stroke="#000000" points="1155.3239,-1197.0694 1153.6492,-1186.6078 1148.4344,-1195.8304 1155.3239,-1197.0694"/>
</g>
<!-- Semester 4 -->
<g id="node4" class="node">
<title>Semester 4</title>
<ellipse fill="none" stroke="#000000" cx="1008.0373" cy="-1231.9079" rx="61.0329" ry="19.4695"/>
<text text-anchor="middle" x="1008.0373" y="-1227.1079" font-family="Times,serif" font-size="16.00" fill="#000000">Semester 4</text>
</g>
<!-- Semester 3&#45;&gt;Semester 4 -->
<g id="edge3" class="edge">
<title>Semester 3-&gt;Semester 4</title>
<path fill="none" stroke="#000000" d="M1121.0536,-1182.8209C1100.7066,-1191.6583 1075.097,-1202.7815 1053.4029,-1212.204"/>
<polygon fill="#000000" stroke="#000000" points="1051.8368,-1209.0683 1044.0589,-1216.2624 1054.6255,-1215.4888 1051.8368,-1209.0683"/>
</g>
<!-- Semester 5 -->
<g id="node5" class="node">
<title>Semester 5</title>
<ellipse fill="none" stroke="#000000" cx="977.3425" cy="-1184.4837" rx="61.0329" ry="19.4695"/>
<text text-anchor="middle" x="977.3425" y="-1179.6837" font-family="Times,serif" font-size="16.00" fill="#000000">Semester 5</text>
</g>
<!-- Semester 4&#45;&gt;Semester 5 -->
<g id="edge4" class="edge">
<title>Semester 4-&gt;Semester 5</title>
<path fill="none" stroke="#000000" d="M995.7294,-1212.8919C995.5418,-1212.602 995.3535,-1212.3111 995.1648,-1212.0195"/>
<polygon fill="#000000" stroke="#000000" points="998.0251,-1209.9972 989.6532,-1203.5039 992.1485,-1213.8007 998.0251,-1209.9972"/>
</g>
<!-- Semester 6 -->
<g id="node6" class="node">
<title>Semester 6</title>
<ellipse fill="none" stroke="#000000" cx="943.975" cy="-1121.9902" rx="61.0329" ry="19.4695"/>
<text text-anchor="middle" x="943.975" y="-1117.1902" font-family="Times,serif" font-size="16.00" fill="#000000">Semester 6</text>
</g>
<!-- Semester 5&#45;&gt;Semester 6 -->
<g id="edge5" class="edge">
<title>Semester 5-&gt;Semester 6</title>
<path fill="none" stroke="#000000" d="M967.1499,-1165.394C964.5625,-1160.5482 961.7284,-1155.2402 958.9575,-1150.0507"/>
<polygon fill="#000000" stroke="#000000" points="961.9028,-1148.1358 954.1053,-1140.963 955.7279,-1151.4328 961.9028,-1148.1358"/>
</g>
<!-- Semester 7 -->
<g id="node7" class="node">
<title>Semester 7</title>
<ellipse fill="none" stroke="#000000" cx="920.4273" cy="-1073.9243" rx="61.0329" ry="19.4695"/>
<text text-anchor="middle" x="920.4273" y="-1069.1243" font-family="Times,serif" font-size="16.00" fill="#000000">Semester 7</text>
</g>
<!-- Semester 6&#45;&gt;Semester 7 -->
<g id="edge6" class="edge">
<title>Semester 6-&gt;Semester 7</title>
<path fill="none" stroke="#000000" d="M934.5329,-1102.7169C934.485,-1102.619 934.4369,-1102.5209 934.3888,-1102.4228"/>
<polygon fill="#000000" stroke="#000000" points="937.4141,-1100.6424 929.8715,-1093.2019 931.1279,-1103.722 937.4141,-1100.6424"/>
</g>
<!-- Semester 8 -->
<g id="node8" class="node">
<title>Semester 8</title>
<ellipse fill="none" stroke="#000000" cx="900.9156" cy="-1027.2217" rx="61.0329" ry="19.4695"/>
<text text-anchor="middle" x="900.9156" y="-1022.4217" font-family="Times,serif" font-size="16.00" fill="#000000">Semester 8</text>
</g>
<!-- Semester 7&#45;&gt;Semester 8 -->
<g id="edge7" class="edge">
<title>Semester 7-&gt;Semester 8</title>
<path fill="none" stroke="#000000" d="M912.3785,-1054.659C912.3431,-1054.5742 912.3076,-1054.4893 912.2721,-1054.4043"/>
<polygon fill="#000000" stroke="#000000" points="916.0304,-1054.3207 908.9459,-1046.4428 909.5715,-1057.0192 916.0304,-1054.3207"/>
</g>
<!-- AIF181101 -->
<g id="node9" class="node">
<title>AIF181101</title>
<polygon fill="none" stroke="#000000" points="403.5543,-705.8358 249.4491,-705.8358 249.4491,-664.632 403.5543,-664.632 403.5543,-705.8358"/>
<text text-anchor="middle" x="326.5017" y="-689.4339" font-family="Times,serif" font-size="14.00" fill="#000000">AIF181101-03</text>
<text text-anchor="middle" x="326.5017" y="-672.6339" font-family="Times,serif" font-size="14.00" fill="#000000">Computational Thinking</text>
</g>
<!-- AIF181100 -->
<g id="node16" class="node">
<title>AIF181100</title>
<polygon fill="none" stroke="#000000" points="589.6379,-799.3629 459.2974,-799.3629 459.2974,-758.1591 589.6379,-758.1591 589.6379,-799.3629"/>
<text text-anchor="middle" x="524.4676" y="-782.961" font-family="Times,serif" font-size="14.00" fill="#000000">AIF181100-04</text>
<text text-anchor="middle" x="524.4676" y="-766.161" font-family="Times,serif" font-size="14.00" fill="#000000">Dasar Pemrograman</text>
</g>
<!-- AIF181101&#45;&gt;AIF181100 -->
<g id="edge8" class="edge">
<title>AIF181101-&gt;AIF181100</title>
<path fill="none" stroke="#000000" d="M370.4367,-705.9906C400.2956,-720.0971 439.9537,-738.8332 471.551,-753.761"/>
<polygon fill="#000000" stroke="#000000" points="470.1186,-756.9552 480.6554,-758.0623 473.1088,-750.626 470.1186,-756.9552"/>
</g>
<!-- AIF181103 -->
<g id="node10" class="node">
<title>AIF181103</title>
<polygon fill="none" stroke="#000000" points="790.7445,-881.2428 671.7317,-881.2428 671.7317,-840.039 790.7445,-840.039 790.7445,-881.2428"/>
<text text-anchor="middle" x="731.2381" y="-864.8409" font-family="Times,serif" font-size="14.00" fill="#000000">AIF181103-04</text>
<text text-anchor="middle" x="731.2381" y="-848.0409" font-family="Times,serif" font-size="14.00" fill="#000000">Matematika Dasar</text>
</g>
<!-- AIF181105 -->
<g id="node11" class="node">
<title>AIF181105</title>
<polygon fill="none" stroke="#000000" points="1422.1628,-1188.71 1281.0406,-1188.71 1281.0406,-1147.5062 1422.1628,-1147.5062 1422.1628,-1188.71"/>
<text text-anchor="middle" x="1351.6017" y="-1172.3081" font-family="Times,serif" font-size="14.00" fill="#000000">AIF181105-02</text>
<text text-anchor="middle" x="1351.6017" y="-1155.5081" font-family="Times,serif" font-size="14.00" fill="#000000">Pengantar Informatika</text>
</g>
<!-- AIF182308 -->
<g id="node34" class="node">
<title>AIF182308</title>
<polygon fill="none" stroke="#000000" points="1304.4706,-996.0363 1133.4425,-996.0363 1133.4425,-954.8325 1304.4706,-954.8325 1304.4706,-996.0363"/>
<text text-anchor="middle" x="1218.9566" y="-979.6344" font-family="Times,serif" font-size="14.00" fill="#000000">AIF182308-03</text>
<text text-anchor="middle" x="1218.9566" y="-962.8344" font-family="Times,serif" font-size="14.00" fill="#000000">Pengantar Sistem Informasi</text>
</g>
<!-- AIF181105&#45;&gt;AIF182308 -->
<g id="edge13" class="edge">
<title>AIF181105-&gt;AIF182308</title>
<path fill="none" stroke="#000000" d="M1337.4063,-1147.4886C1313.7331,-1113.1021 1266.1235,-1043.9467 1239.027,-1004.5878"/>
<polygon fill="#000000" stroke="#000000" points="1241.8038,-1002.4489 1233.2503,-996.1968 1236.0381,-1006.4183 1241.8038,-1002.4489"/>
</g>
<!-- AIF181107 -->
<g id="node12" class="node">
<title>AIF181107</title>
<polygon fill="none" stroke="#000000" points="127.4167,-1471.6523 .2693,-1471.6523 .2693,-1430.4485 127.4167,-1430.4485 127.4167,-1471.6523"/>
<text text-anchor="middle" x="63.843" y="-1455.2504" font-family="Times,serif" font-size="14.00" fill="#000000">AIF181107-03</text>
<text text-anchor="middle" x="63.843" y="-1438.4504" font-family="Times,serif" font-size="14.00" fill="#000000">Matematika Diskret</text>
</g>
<!-- AIF182103 -->
<g id="node23" class="node">
<title>AIF182103</title>
<polygon fill="none" stroke="#000000" points="254.8276,-1335.1767 148.6409,-1335.1767 148.6409,-1293.9729 254.8276,-1293.9729 254.8276,-1335.1767"/>
<text text-anchor="middle" x="201.7342" y="-1318.7748" font-family="Times,serif" font-size="14.00" fill="#000000">AIF182103-04</text>
<text text-anchor="middle" x="201.7342" y="-1301.9748" font-family="Times,serif" font-size="14.00" fill="#000000">Struktur Diskret</text>
</g>
<!-- AIF181107&#45;&gt;AIF182103 -->
<g id="edge24" class="edge">
<title>AIF181107-&gt;AIF182103</title>
<path fill="none" stroke="#000000" stroke-dasharray="1,5" d="M84.7857,-1430.3227C108.3745,-1406.976 146.8461,-1368.8994 173.1776,-1342.8382"/>
<polygon fill="#000000" stroke="#000000" points="175.949,-1345.0197 180.5944,-1335.4975 171.0249,-1340.0444 175.949,-1345.0197"/>
</g>
<!-- MKU170130 -->
<g id="node13" class="node">
<title>MKU170130</title>
<polygon fill="none" stroke="#000000" points="1500.5887,-1301.2428 1385.8876,-1301.2428 1385.8876,-1260.039 1500.5887,-1260.039 1500.5887,-1301.2428"/>
<text text-anchor="middle" x="1443.2381" y="-1284.8409" font-family="Times,serif" font-size="14.00" fill="#000000">MKU170130-02</text>
<text text-anchor="middle" x="1443.2381" y="-1268.0409" font-family="Times,serif" font-size="14.00" fill="#000000">Bahasa Indonesia</text>
</g>
<!-- MKU170110 -->
<g id="node14" class="node">
<title>MKU170110</title>
<polygon fill="none" stroke="#000000" points="1275.7683,-545.2428 1092.7079,-545.2428 1092.7079,-504.039 1275.7683,-504.039 1275.7683,-545.2428"/>
<text text-anchor="middle" x="1184.2381" y="-528.8409" font-family="Times,serif" font-size="14.00" fill="#000000">MKU170110-02</text>
<text text-anchor="middle" x="1184.2381" y="-512.0409" font-family="Times,serif" font-size="14.00" fill="#000000">Pendidikan Kewarganegaraan</text>
</g>
<!-- MKU170120 -->
<g id="node15" class="node">
<title>MKU170120</title>
<polygon fill="none" stroke="#000000" points="529.057,-335.2428 419.4193,-335.2428 419.4193,-294.039 529.057,-294.039 529.057,-335.2428"/>
<text text-anchor="middle" x="474.2381" y="-318.8409" font-family="Times,serif" font-size="14.00" fill="#000000">MKU170120-02</text>
<text text-anchor="middle" x="474.2381" y="-302.0409" font-family="Times,serif" font-size="14.00" fill="#000000">Logika</text>
</g>
<!-- AIF182101 -->
<g id="node22" class="node">
<title>AIF182101</title>
<polygon fill="none" stroke="#000000" points="700.2269,-1007.4403 547.5155,-1007.4403 547.5155,-966.2365 700.2269,-966.2365 700.2269,-1007.4403"/>
<text text-anchor="middle" x="623.8712" y="-991.0384" font-family="Times,serif" font-size="14.00" fill="#000000">AIF182101-03</text>
<text text-anchor="middle" x="623.8712" y="-974.2384" font-family="Times,serif" font-size="14.00" fill="#000000">Algoritma Struktur Data</text>
</g>
<!-- AIF181100&#45;&gt;AIF182101 -->
<g id="edge9" class="edge">
<title>AIF181100-&gt;AIF182101</title>
<path fill="none" stroke="#000000" d="M534.3623,-799.4729C552.0762,-836.5528 589.2589,-914.3859 609.6853,-957.1436"/>
<polygon fill="#000000" stroke="#000000" points="606.5478,-958.6957 614.0166,-966.2102 612.8641,-955.6782 606.5478,-958.6957"/>
</g>
<!-- AIF182105 -->
<g id="node24" class="node">
<title>AIF182105</title>
<polygon fill="none" stroke="#000000" points="688.0859,-749.4568 483.7686,-749.4568 483.7686,-708.253 688.0859,-708.253 688.0859,-749.4568"/>
<text text-anchor="middle" x="585.9273" y="-733.0549" font-family="Times,serif" font-size="14.00" fill="#000000">AIF182105-02</text>
<text text-anchor="middle" x="585.9273" y="-716.2549" font-family="Times,serif" font-size="14.00" fill="#000000">Pemrograman Berorientasi Objek</text>
</g>
<!-- AIF181100&#45;&gt;AIF182105 -->
<g id="edge10" class="edge">
<title>AIF181100-&gt;AIF182105</title>
<path fill="none" stroke="#000000" d="M550.1759,-757.8855C551.0312,-757.191 551.8917,-756.4922 552.7549,-755.7913"/>
<polygon fill="#000000" stroke="#000000" points="554.9622,-758.5076 560.5189,-749.4868 550.5496,-753.0735 554.9622,-758.5076"/>
</g>
<!-- AIF181202 -->
<g id="node17" class="node">
<title>AIF181202</title>
<polygon fill="none" stroke="#000000" points="1018.3413,-755.2428 798.1349,-755.2428 798.1349,-714.039 1018.3413,-714.039 1018.3413,-755.2428"/>
<text text-anchor="middle" x="908.2381" y="-738.8409" font-family="Times,serif" font-size="14.00" fill="#000000">AIF181202-04</text>
<text text-anchor="middle" x="908.2381" y="-722.0409" font-family="Times,serif" font-size="14.00" fill="#000000">Arsitektur dan Organisasi Komputer</text>
</g>
<!-- AIF181104 -->
<g id="node18" class="node">
<title>AIF181104</title>
<polygon fill="none" stroke="#000000" points="558.8578,-1295.3102 433.3762,-1295.3102 433.3762,-1254.1064 558.8578,-1254.1064 558.8578,-1295.3102"/>
<text text-anchor="middle" x="496.117" y="-1278.9083" font-family="Times,serif" font-size="14.00" fill="#000000">AIF181104-03</text>
<text text-anchor="middle" x="496.117" y="-1262.1083" font-family="Times,serif" font-size="14.00" fill="#000000">Logika Informatika</text>
</g>
<!-- AIF183107 -->
<g id="node39" class="node">
<title>AIF183107</title>
<polygon fill="none" stroke="#000000" points="469.2623,-1116.5869 313.3379,-1116.5869 313.3379,-1075.3831 469.2623,-1075.3831 469.2623,-1116.5869"/>
<text text-anchor="middle" x="391.3001" y="-1100.185" font-family="Times,serif" font-size="14.00" fill="#000000">AIF183107-03</text>
<text text-anchor="middle" x="391.3001" y="-1083.385" font-family="Times,serif" font-size="14.00" fill="#000000">Pengantar Sistem Cerdas</text>
</g>
<!-- AIF181104&#45;&gt;AIF183107 -->
<g id="edge33" class="edge">
<title>AIF181104-&gt;AIF183107</title>
<path fill="none" stroke="#000000" stroke-dasharray="1,5" d="M483.888,-1253.8567C465.2688,-1222.109 429.7402,-1161.5293 408.5191,-1125.3452"/>
<polygon fill="#000000" stroke="#000000" points="411.5292,-1123.5592 403.4511,-1116.7038 405.491,-1127.1005 411.5292,-1123.5592"/>
</g>
<!-- AIF181106 -->
<g id="node19" class="node">
<title>AIF181106</title>
<polygon fill="none" stroke="#000000" points="1089.9222,-419.2428 924.554,-419.2428 924.554,-378.039 1089.9222,-378.039 1089.9222,-419.2428"/>
<text text-anchor="middle" x="1007.2381" y="-402.8409" font-family="Times,serif" font-size="14.00" fill="#000000">AIF181106-03</text>
<text text-anchor="middle" x="1007.2381" y="-386.0409" font-family="Times,serif" font-size="14.00" fill="#000000">Matriks dan Ruang Vektor</text>
</g>
<!-- MKU180240 -->
<g id="node20" class="node">
<title>MKU180240</title>
<polygon fill="none" stroke="#000000" points="907.057,-1301.2428 797.4193,-1301.2428 797.4193,-1260.039 907.057,-1260.039 907.057,-1301.2428"/>
<text text-anchor="middle" x="852.2381" y="-1284.8409" font-family="Times,serif" font-size="14.00" fill="#000000">MKU180240-02</text>
<text text-anchor="middle" x="852.2381" y="-1268.0409" font-family="Times,serif" font-size="14.00" fill="#000000">Etika</text>
</g>
<!-- MKU180360 -->
<g id="node21" class="node">
<title>MKU180360</title>
<polygon fill="none" stroke="#000000" points="1495.057,-1007.2428 1385.4193,-1007.2428 1385.4193,-966.039 1495.057,-966.039 1495.057,-1007.2428"/>
<text text-anchor="middle" x="1440.2381" y="-990.8409" font-family="Times,serif" font-size="14.00" fill="#000000">MKU180360-02</text>
<text text-anchor="middle" x="1440.2381" y="-974.0409" font-family="Times,serif" font-size="14.00" fill="#000000">Estetika</text>
</g>
<!-- AIF182302 -->
<g id="node31" class="node">
<title>AIF182302</title>
<polygon fill="none" stroke="#000000" points="1034.2138,-891.935 806.256,-891.935 806.256,-850.7311 1034.2138,-850.7311 1034.2138,-891.935"/>
<text text-anchor="middle" x="920.2349" y="-875.533" font-family="Times,serif" font-size="14.00" fill="#000000">AIF182302-04</text>
<text text-anchor="middle" x="920.2349" y="-858.733" font-family="Times,serif" font-size="14.00" fill="#000000">Manajemen Informasi dan Basis Data</text>
</g>
<!-- AIF182101&#45;&gt;AIF182302 -->
<g id="edge25" class="edge">
<title>AIF182101-&gt;AIF182302</title>
<path fill="none" stroke="#000000" stroke-dasharray="1,5" d="M676.8551,-966.1884C727.5865,-946.4162 804.134,-916.5824 857.802,-895.6658"/>
<polygon fill="#000000" stroke="#000000" points="859.1646,-898.8912 867.2109,-891.9987 856.6226,-892.3691 859.1646,-898.8912"/>
</g>
<!-- AIF182106 -->
<g id="node33" class="node">
<title>AIF182106</title>
<polygon fill="none" stroke="#000000" points="478.722,-1174.0163 289.698,-1174.0163 289.698,-1132.8125 478.722,-1132.8125 478.722,-1174.0163"/>
<text text-anchor="middle" x="384.21" y="-1157.6144" font-family="Times,serif" font-size="14.00" fill="#000000">AIF182106-03</text>
<text text-anchor="middle" x="384.21" y="-1140.8144" font-family="Times,serif" font-size="14.00" fill="#000000">Desain dan Analisis Algoritma</text>
</g>
<!-- AIF182101&#45;&gt;AIF182106 -->
<g id="edge12" class="edge">
<title>AIF182101-&gt;AIF182106</title>
<path fill="none" stroke="#000000" d="M594.0025,-1007.5986C550.56,-1037.7932 469.9428,-1093.826 422.2896,-1126.9473"/>
<polygon fill="#000000" stroke="#000000" points="420.2916,-1124.0736 414.0777,-1132.6549 424.2867,-1129.8216 420.2916,-1124.0736"/>
</g>
<!-- AIF183201 -->
<g id="node36" class="node">
<title>AIF183201</title>
<polygon fill="none" stroke="#000000" points="724.4353,-1198.708 623.1446,-1198.708 623.1446,-1157.5042 724.4353,-1157.5042 724.4353,-1198.708"/>
<text text-anchor="middle" x="673.79" y="-1182.3061" font-family="Times,serif" font-size="14.00" fill="#000000">AIF183201-03</text>
<text text-anchor="middle" x="673.79" y="-1165.5061" font-family="Times,serif" font-size="14.00" fill="#000000">Sistem Operasi</text>
</g>
<!-- AIF182101&#45;&gt;AIF183201 -->
<g id="edge29" class="edge">
<title>AIF182101-&gt;AIF183201</title>
<path fill="none" stroke="#000000" stroke-dasharray="1,5" d="M629.3084,-1007.6715C638.123,-1041.4454 655.574,-1108.3104 665.8019,-1147.4991"/>
<polygon fill="#000000" stroke="#000000" points="662.4475,-1148.5067 668.3594,-1157.2987 669.2206,-1146.7389 662.4475,-1148.5067"/>
</g>
<!-- AIF182103&#45;&gt;AIF182106 -->
<g id="edge27" class="edge">
<title>AIF182103-&gt;AIF182106</title>
<path fill="none" stroke="#000000" stroke-dasharray="1,5" d="M225.2162,-1293.8358C257.7903,-1265.0667 316.7619,-1212.9838 353.006,-1180.9734"/>
<polygon fill="#000000" stroke="#000000" points="355.6398,-1183.3169 360.8182,-1174.0738 351.006,-1178.0702 355.6398,-1183.3169"/>
</g>
<!-- AIF182100 -->
<g id="node30" class="node">
<title>AIF182100</title>
<polygon fill="none" stroke="#000000" points="1005.4665,-622.2132 779.0409,-622.2132 779.0409,-581.0094 1005.4665,-581.0094 1005.4665,-622.2132"/>
<text text-anchor="middle" x="892.2537" y="-605.8113" font-family="Times,serif" font-size="14.00" fill="#000000">AIF182100-04</text>
<text text-anchor="middle" x="892.2537" y="-589.0113" font-family="Times,serif" font-size="14.00" fill="#000000">Analisis dan Desain Perangkat Lunak</text>
</g>
<!-- AIF182105&#45;&gt;AIF182100 -->
<g id="edge11" class="edge">
<title>AIF182105-&gt;AIF182100</title>
<path fill="none" stroke="#000000" d="M635.8257,-708.1278C689.8653,-685.6805 776.0075,-649.8983 833.3348,-626.0853"/>
<polygon fill="#000000" stroke="#000000" points="834.7384,-629.2924 842.6307,-622.224 832.0531,-622.8279 834.7384,-629.2924"/>
</g>
<!-- AIF182007 -->
<g id="node25" class="node">
<title>AIF182007</title>
<polygon fill="none" stroke="#000000" points="1447.3924,-538.8131 1331.562,-538.8131 1331.562,-497.6093 1447.3924,-497.6093 1447.3924,-538.8131"/>
<text text-anchor="middle" x="1389.4772" y="-522.4112" font-family="Times,serif" font-size="14.00" fill="#000000">AIF182007-02</text>
<text text-anchor="middle" x="1389.4772" y="-505.6112" font-family="Times,serif" font-size="14.00" fill="#000000">Teknik Presentasi</text>
</g>
<!-- AIF184001 -->
<g id="node47" class="node">
<title>AIF184001</title>
<polygon fill="none" stroke="#000000" points="1359.6839,-432.49 1260.2627,-432.49 1260.2627,-391.2862 1359.6839,-391.2862 1359.6839,-432.49"/>
<text text-anchor="middle" x="1309.9733" y="-416.0881" font-family="Times,serif" font-size="14.00" fill="#000000">AIF184001-03</text>
<text text-anchor="middle" x="1309.9733" y="-399.2881" font-family="Times,serif" font-size="14.00" fill="#000000">Skripsi 1</text>
</g>
<!-- AIF182007&#45;&gt;AIF184001 -->
<g id="edge17" class="edge">
<title>AIF182007-&gt;AIF184001</title>
<path fill="none" stroke="#000000" d="M1373.9593,-497.4586C1361.9205,-481.3588 1345.0865,-458.846 1331.7067,-440.9528"/>
<polygon fill="#000000" stroke="#000000" points="1334.2436,-438.501 1325.4521,-432.5883 1328.6376,-442.6929 1334.2436,-438.501"/>
</g>
<!-- AIF184002 -->
<g id="node51" class="node">
<title>AIF184002</title>
<polygon fill="none" stroke="#000000" points="1491.4315,-418.9158 1392.0102,-418.9158 1392.0102,-377.712 1491.4315,-377.712 1491.4315,-418.9158"/>
<text text-anchor="middle" x="1441.7208" y="-402.5139" font-family="Times,serif" font-size="14.00" fill="#000000">AIF184002-05</text>
<text text-anchor="middle" x="1441.7208" y="-385.7139" font-family="Times,serif" font-size="14.00" fill="#000000">Skripsi 2</text>
</g>
<!-- AIF182007&#45;&gt;AIF184002 -->
<g id="edge21" class="edge">
<title>AIF182007-&gt;AIF184002</title>
<path fill="none" stroke="#000000" d="M1398.4582,-497.6001C1406.7565,-478.5559 1419.1867,-450.029 1428.5968,-428.433"/>
<polygon fill="#000000" stroke="#000000" points="1431.8962,-429.6229 1432.6822,-419.0572 1425.4789,-426.8266 1431.8962,-429.6229"/>
</g>
<!-- AIF184004 -->
<g id="node52" class="node">
<title>AIF184004</title>
<polygon fill="none" stroke="#000000" points="1625.8644,-584.4948 1526.4432,-584.4948 1526.4432,-543.291 1625.8644,-543.291 1625.8644,-584.4948"/>
<text text-anchor="middle" x="1576.1538" y="-568.0929" font-family="Times,serif" font-size="14.00" fill="#000000">AIF184004-08</text>
<text text-anchor="middle" x="1576.1538" y="-551.2929" font-family="Times,serif" font-size="14.00" fill="#000000">Tugas Akhir</text>
</g>
<!-- AIF182007&#45;&gt;AIF184004 -->
<g id="edge23" class="edge">
<title>AIF182007-&gt;AIF184004</title>
<path fill="none" stroke="#000000" d="M1447.5196,-532.4148C1469.4239,-537.775 1494.3697,-543.8795 1516.4257,-549.2768"/>
<polygon fill="#000000" stroke="#000000" points="1515.7895,-552.7243 1526.3348,-551.7017 1517.4534,-545.925 1515.7895,-552.7243"/>
</g>
<!-- AIF182109 -->
<g id="node26" class="node">
<title>AIF182109</title>
<polygon fill="none" stroke="#000000" points="1344.6763,-335.2428 1175.7999,-335.2428 1175.7999,-294.039 1344.6763,-294.039 1344.6763,-335.2428"/>
<text text-anchor="middle" x="1260.2381" y="-318.8409" font-family="Times,serif" font-size="14.00" fill="#000000">AIF182109-03</text>
<text text-anchor="middle" x="1260.2381" y="-302.0409" font-family="Times,serif" font-size="14.00" fill="#000000">Statistika untuk Komputasi</text>
</g>
<!-- MKU180370 -->
<g id="node27" class="node">
<title>MKU180370</title>
<polygon fill="none" stroke="#000000" points="1075.057,-293.2428 965.4193,-293.2428 965.4193,-252.039 1075.057,-252.039 1075.057,-293.2428"/>
<text text-anchor="middle" x="1020.2381" y="-276.8409" font-family="Times,serif" font-size="14.00" fill="#000000">MKU180370-02</text>
<text text-anchor="middle" x="1020.2381" y="-260.0409" font-family="Times,serif" font-size="14.00" fill="#000000">Agama Katolik</text>
</g>
<!-- MKU180380 -->
<g id="node28" class="node">
<title>MKU180380</title>
<polygon fill="none" stroke="#000000" points="1254.0483,-1091.2428 1134.428,-1091.2428 1134.428,-1050.039 1254.0483,-1050.039 1254.0483,-1091.2428"/>
<text text-anchor="middle" x="1194.2381" y="-1074.8409" font-family="Times,serif" font-size="14.00" fill="#000000">MKU180380-02</text>
<text text-anchor="middle" x="1194.2381" y="-1058.0409" font-family="Times,serif" font-size="14.00" fill="#000000">Fenomena Katolik</text>
</g>
<!-- MKU180250 -->
<g id="node29" class="node">
<title>MKU180250</title>
<polygon fill="none" stroke="#000000" points="739.057,-1301.2428 629.4193,-1301.2428 629.4193,-1260.039 739.057,-1260.039 739.057,-1301.2428"/>
<text text-anchor="middle" x="684.2381" y="-1284.8409" font-family="Times,serif" font-size="14.00" fill="#000000">MKU180250-02</text>
<text text-anchor="middle" x="684.2381" y="-1268.0409" font-family="Times,serif" font-size="14.00" fill="#000000">Pancasila</text>
</g>
<!-- AIF183303 -->
<g id="node37" class="node">
<title>AIF183303</title>
<polygon fill="none" stroke="#000000" points="1300.7587,-670.6624 1131.989,-670.6624 1131.989,-629.4586 1300.7587,-629.4586 1300.7587,-670.6624"/>
<text text-anchor="middle" x="1216.3738" y="-654.2605" font-family="Times,serif" font-size="14.00" fill="#000000">AIF183303-03</text>
<text text-anchor="middle" x="1216.3738" y="-637.4605" font-family="Times,serif" font-size="14.00" fill="#000000">Rekayasa Perangkat Lunak</text>
</g>
<!-- AIF182100&#45;&gt;AIF183303 -->
<g id="edge30" class="edge">
<title>AIF182100-&gt;AIF183303</title>
<path fill="none" stroke="#000000" stroke-dasharray="1,5" d="M1005.6152,-618.5565C1043.5768,-624.231 1085.4686,-630.4929 1121.836,-635.9291"/>
<polygon fill="#000000" stroke="#000000" points="1121.5315,-639.4224 1131.9391,-637.4393 1122.5664,-632.4993 1121.5315,-639.4224"/>
</g>
<!-- AIF183209 -->
<g id="node40" class="node">
<title>AIF183209</title>
<polygon fill="none" stroke="#000000" points="989.2758,-565.9969 750.8011,-565.9969 750.8011,-524.7931 989.2758,-524.7931 989.2758,-565.9969"/>
<text text-anchor="middle" x="870.0385" y="-549.595" font-family="Times,serif" font-size="14.00" fill="#000000">AIF183209-03</text>
<text text-anchor="middle" x="870.0385" y="-532.795" font-family="Times,serif" font-size="14.00" fill="#000000">Pemrograman pada Perangkat Bergerak</text>
</g>
<!-- AIF182100&#45;&gt;AIF183209 -->
<g id="edge34" class="edge">
<title>AIF182100-&gt;AIF183209</title>
<path fill="none" stroke="#000000" stroke-dasharray="1,5" d="M884.1077,-580.9976C883.3833,-579.1645 882.6407,-577.2854 881.8937,-575.3949"/>
<polygon fill="#000000" stroke="#000000" points="885.1138,-574.02 878.1835,-566.0062 878.6037,-576.5927 885.1138,-574.02"/>
</g>
<!-- AIF182204 -->
<g id="node32" class="node">
<title>AIF182204</title>
<polygon fill="none" stroke="#000000" points="1256.4067,-841.1739 1080.0781,-841.1739 1080.0781,-799.9701 1256.4067,-799.9701 1256.4067,-841.1739"/>
<text text-anchor="middle" x="1168.2424" y="-824.772" font-family="Times,serif" font-size="14.00" fill="#000000">AIF182204-03</text>
<text text-anchor="middle" x="1168.2424" y="-807.972" font-family="Times,serif" font-size="14.00" fill="#000000">Pemrograman Berbasis Web</text>
</g>
<!-- AIF182302&#45;&gt;AIF182204 -->
<g id="edge26" class="edge">
<title>AIF182302-&gt;AIF182204</title>
<path fill="none" stroke="#000000" stroke-dasharray="1,5" d="M1021.109,-850.6866C1037.2122,-847.3907 1053.8549,-843.9843 1069.8984,-840.7006"/>
<polygon fill="#000000" stroke="#000000" points="1070.705,-844.1081 1079.8001,-838.674 1069.3013,-837.2503 1070.705,-844.1081"/>
</g>
<!-- AIF182302&#45;&gt;AIF182308 -->
<g id="edge28" class="edge">
<title>AIF182302-&gt;AIF182308</title>
<path fill="none" stroke="#000000" stroke-dasharray="1,5" d="M979.6098,-892.0246C1028.6828,-909.126 1098.4174,-933.4278 1149.9645,-951.3914"/>
<polygon fill="#000000" stroke="#000000" points="1149.0992,-954.7962 1159.694,-954.782 1151.4028,-948.1861 1149.0992,-954.7962"/>
</g>
<!-- AIF183300 -->
<g id="node42" class="node">
<title>AIF183300</title>
<polygon fill="none" stroke="#000000" points="995.8463,-842.3125 858.234,-842.3125 858.234,-801.1086 995.8463,-801.1086 995.8463,-842.3125"/>
<text text-anchor="middle" x="927.0402" y="-825.9106" font-family="Times,serif" font-size="14.00" fill="#000000">AIF183300-02</text>
<text text-anchor="middle" x="927.0402" y="-809.1106" font-family="Times,serif" font-size="14.00" fill="#000000">Teknologi Basis Data</text>
</g>
<!-- AIF182302&#45;&gt;AIF183300 -->
<g id="edge14" class="edge">
<title>AIF182302-&gt;AIF183300</title>
<path fill="none" stroke="#000000" d="M923.0815,-850.5762C923.1043,-850.4102 923.1271,-850.2439 923.1499,-850.0775"/>
<polygon fill="#000000" stroke="#000000" points="926.2918,-852.9266 924.1831,-842.5438 919.3567,-851.9754 926.2918,-852.9266"/>
</g>
<!-- AIF182106&#45;&gt;AIF183107 -->
<g id="edge32" class="edge">
<title>AIF182106-&gt;AIF183107</title>
<path fill="none" stroke="#000000" stroke-dasharray="1,5" d="M386.7697,-1132.6811C386.9878,-1130.914 387.2114,-1129.1031 387.4367,-1127.2782"/>
<polygon fill="#000000" stroke="#000000" points="390.9686,-1127.2343 388.7203,-1116.8808 384.0214,-1126.3766 390.9686,-1127.2343"/>
</g>
<!-- AIF183308 -->
<g id="node46" class="node">
<title>AIF183308</title>
<polygon fill="none" stroke="#000000" points="1527.4547,-868.4495 1362.0669,-868.4495 1362.0669,-827.2457 1527.4547,-827.2457 1527.4547,-868.4495"/>
<text text-anchor="middle" x="1444.7608" y="-852.0476" font-family="Times,serif" font-size="14.00" fill="#000000">AIF183308-03</text>
<text text-anchor="middle" x="1444.7608" y="-835.2476" font-family="Times,serif" font-size="14.00" fill="#000000">Proyek Sistem Informasi 1</text>
</g>
<!-- AIF182308&#45;&gt;AIF183308 -->
<g id="edge15" class="edge">
<title>AIF182308-&gt;AIF183308</title>
<path fill="none" stroke="#000000" d="M1255.4869,-954.7936C1294.7577,-932.6043 1357.2355,-897.3022 1399.5705,-873.3816"/>
<polygon fill="#000000" stroke="#000000" points="1401.2984,-876.4254 1408.283,-868.4588 1397.8548,-870.331 1401.2984,-876.4254"/>
</g>
<!-- AIF182210 -->
<g id="node35" class="node">
<title>AIF182210</title>
<polygon fill="none" stroke="#000000" points="895.5213,-263.8959 712.19,-263.8959 712.19,-222.6921 895.5213,-222.6921 895.5213,-263.8959"/>
<text text-anchor="middle" x="803.8557" y="-247.494" font-family="Times,serif" font-size="14.00" fill="#000000">AIF182210-02</text>
<text text-anchor="middle" x="803.8557" y="-230.694" font-family="Times,serif" font-size="14.00" fill="#000000">Pengantar Jaringan Komputer</text>
</g>
<!-- AIF182210&#45;&gt;AIF183209 -->
<g id="edge35" class="edge">
<title>AIF182210-&gt;AIF183209</title>
<path fill="none" stroke="#000000" stroke-dasharray="1,5" d="M808.4047,-264.0586C819.834,-316.2296 849.8014,-453.02 863.289,-514.5863"/>
<polygon fill="#000000" stroke="#000000" points="859.8986,-515.4658 865.4576,-524.4851 866.7365,-513.9677 859.8986,-515.4658"/>
</g>
<!-- AIF183204 -->
<g id="node44" class="node">
<title>AIF183204</title>
<polygon fill="none" stroke="#000000" points="808.1166,-40.9897 684.7398,-40.9897 684.7398,.2141 808.1166,.2141 808.1166,-40.9897"/>
<text text-anchor="middle" x="746.4282" y="-24.5878" font-family="Times,serif" font-size="14.00" fill="#000000">AIF183204-02</text>
<text text-anchor="middle" x="746.4282" y="-7.7878" font-family="Times,serif" font-size="14.00" fill="#000000">Jaringan Komputer</text>
</g>
<!-- AIF182210&#45;&gt;AIF183204 -->
<g id="edge36" class="edge">
<title>AIF182210-&gt;AIF183204</title>
<path fill="none" stroke="#000000" stroke-dasharray="1,5" d="M798.453,-222.3235C788.2515,-182.7258 766.1168,-96.8096 754.2752,-50.846"/>
<polygon fill="#000000" stroke="#000000" points="757.6589,-49.9507 751.7747,-41.1401 750.8803,-51.6971 757.6589,-49.9507"/>
</g>
<!-- AIF183305 -->
<g id="node38" class="node">
<title>AIF183305</title>
<polygon fill="none" stroke="#000000" points="1481.6162,-815.3703 1356.1318,-815.3703 1356.1318,-774.1665 1481.6162,-774.1665 1481.6162,-815.3703"/>
<text text-anchor="middle" x="1418.874" y="-798.9684" font-family="Times,serif" font-size="14.00" fill="#000000">AIF183305-02</text>
<text text-anchor="middle" x="1418.874" y="-782.1684" font-family="Times,serif" font-size="14.00" fill="#000000">Manajemen Proyek</text>
</g>
<!-- AIF183303&#45;&gt;AIF183305 -->
<g id="edge31" class="edge">
<title>AIF183303-&gt;AIF183305</title>
<path fill="none" stroke="#000000" stroke-dasharray="1,5" d="M1245.3872,-670.7937C1281.1757,-696.3684 1342.0889,-739.8973 1381.3888,-767.9813"/>
<polygon fill="#000000" stroke="#000000" points="1379.7434,-771.1073 1389.9145,-774.0738 1383.8133,-765.412 1379.7434,-771.1073"/>
</g>
<!-- AIF183106 -->
<g id="node45" class="node">
<title>AIF183106</title>
<polygon fill="none" stroke="#000000" points="1490.2984,-631.3627 1364.8167,-631.3627 1364.8167,-590.1589 1490.2984,-590.1589 1490.2984,-631.3627"/>
<text text-anchor="middle" x="1427.5576" y="-614.9608" font-family="Times,serif" font-size="14.00" fill="#000000">AIF183106-06</text>
<text text-anchor="middle" x="1427.5576" y="-598.1608" font-family="Times,serif" font-size="14.00" fill="#000000">Proyek Informatika</text>
</g>
<!-- AIF183303&#45;&gt;AIF183106 -->
<g id="edge37" class="edge">
<title>AIF183303-&gt;AIF183106</title>
<path fill="none" stroke="#000000" stroke-dasharray="1,5" d="M1300.7497,-634.3588C1318.6131,-631.0346 1337.3214,-627.5531 1354.714,-624.3164"/>
<polygon fill="#000000" stroke="#000000" points="1355.5954,-627.7126 1364.7862,-622.4421 1354.3146,-620.8307 1355.5954,-627.7126"/>
</g>
<!-- AIF183305&#45;&gt;AIF183106 -->
<g id="edge38" class="edge">
<title>AIF183305-&gt;AIF183106</title>
<path fill="none" stroke="#000000" stroke-dasharray="1,5" d="M1419.8532,-774.0181C1421.3752,-741.7675 1424.3174,-679.4197 1426.0928,-641.8002"/>
<polygon fill="#000000" stroke="#000000" points="1429.6065,-641.5892 1426.5819,-631.4353 1422.6143,-641.2591 1429.6065,-641.5892"/>
</g>
<!-- AIF183305&#45;&gt;AIF183308 -->
<g id="edge39" class="edge">
<title>AIF183305-&gt;AIF183308</title>
<path fill="none" stroke="#000000" stroke-dasharray="1,5" d="M1428.9566,-815.4422C1429.3665,-816.2827 1429.7805,-817.1315 1430.1967,-817.985"/>
<polygon fill="#000000" stroke="#000000" points="1427.1337,-819.6891 1434.6631,-827.1429 1433.4254,-816.6206 1427.1337,-819.6891"/>
</g>
<!-- AIF183111 -->
<g id="node41" class="node">
<title>AIF183111</title>
<polygon fill="none" stroke="#000000" points="722.6863,-461.2428 545.7899,-461.2428 545.7899,-420.039 722.6863,-420.039 722.6863,-461.2428"/>
<text text-anchor="middle" x="634.2381" y="-444.8409" font-family="Times,serif" font-size="14.00" fill="#000000">AIF183111-03</text>
<text text-anchor="middle" x="634.2381" y="-428.0409" font-family="Times,serif" font-size="14.00" fill="#000000">Interaksi Manusia Komputer</text>
</g>
<!-- AIF183002 -->
<g id="node43" class="node">
<title>AIF183002</title>
<polygon fill="none" stroke="#000000" points="1562.623,-480.5531 1451.6517,-480.5531 1451.6517,-439.3493 1562.623,-439.3493 1562.623,-480.5531"/>
<text text-anchor="middle" x="1507.1373" y="-464.1512" font-family="Times,serif" font-size="14.00" fill="#000000">AIF183002-02</text>
<text text-anchor="middle" x="1507.1373" y="-447.3512" font-family="Times,serif" font-size="14.00" fill="#000000">Penulisan Ilmiah</text>
</g>
<!-- AIF183002&#45;&gt;AIF184001 -->
<g id="edge16" class="edge">
<title>AIF183002-&gt;AIF184001</title>
<path fill="none" stroke="#000000" d="M1451.6915,-446.4351C1426.0384,-440.1816 1395.5311,-432.7447 1369.4043,-426.3757"/>
<polygon fill="#000000" stroke="#000000" points="1370.1691,-422.9598 1359.6247,-423.9917 1368.5112,-429.7606 1370.1691,-422.9598"/>
</g>
<!-- AIF183002&#45;&gt;AIF184002 -->
<g id="edge19" class="edge">
<title>AIF183002-&gt;AIF184002</title>
<path fill="none" stroke="#000000" d="M1484.9903,-439.0836C1480.6211,-434.9669 1475.9703,-430.5847 1471.3991,-426.2776"/>
<polygon fill="#000000" stroke="#000000" points="1473.5235,-423.4704 1463.8451,-419.16 1468.7231,-428.5651 1473.5235,-423.4704"/>
</g>
<!-- AIF183002&#45;&gt;AIF184004 -->
<g id="edge22" class="edge">
<title>AIF183002-&gt;AIF184004</title>
<path fill="none" stroke="#000000" d="M1521.1039,-480.9854C1531.3676,-496.443 1545.4432,-517.6414 1556.7921,-534.7333"/>
<polygon fill="#000000" stroke="#000000" points="1553.9962,-536.8501 1562.4436,-543.2448 1559.8278,-532.9779 1553.9962,-536.8501"/>
</g>
<!-- AIF184303 -->
<g id="node48" class="node">
<title>AIF184303</title>
<polygon fill="none" stroke="#000000" points="1768.0775,-909.2173 1602.6897,-909.2173 1602.6897,-868.0135 1768.0775,-868.0135 1768.0775,-909.2173"/>
<text text-anchor="middle" x="1685.3836" y="-892.8154" font-family="Times,serif" font-size="14.00" fill="#000000">AIF184303-03</text>
<text text-anchor="middle" x="1685.3836" y="-876.0154" font-family="Times,serif" font-size="14.00" fill="#000000">Proyek Sistem Informasi 2</text>
</g>
<!-- AIF183308&#45;&gt;AIF184303 -->
<g id="edge18" class="edge">
<title>AIF183308-&gt;AIF184303</title>
<path fill="none" stroke="#000000" d="M1527.5695,-861.8776C1548.4593,-865.4168 1571.0251,-869.2401 1592.3793,-872.858"/>
<polygon fill="#000000" stroke="#000000" points="1591.9781,-876.3398 1602.4223,-874.5596 1593.1474,-869.4382 1591.9781,-876.3398"/>
</g>
<!-- AIF184001&#45;&gt;AIF184002 -->
<g id="edge20" class="edge">
<title>AIF184001-&gt;AIF184002</title>
<path fill="none" stroke="#000000" d="M1359.7814,-406.7563C1366.9954,-406.013 1374.4831,-405.2415 1381.869,-404.4805"/>
<polygon fill="#000000" stroke="#000000" points="1382.2537,-407.9595 1391.8423,-403.453 1381.5362,-400.9964 1382.2537,-407.9595"/>
</g>
<!-- AIF184005 -->
<g id="node49" class="node">
<title>AIF184005</title>
<polygon fill="none" stroke="#000000" points="669.0147,-629.2428 503.4615,-629.2428 503.4615,-588.039 669.0147,-588.039 669.0147,-629.2428"/>
<text text-anchor="middle" x="586.2381" y="-612.8409" font-family="Times,serif" font-size="14.00" fill="#000000">AIF184005-02</text>
<text text-anchor="middle" x="586.2381" y="-596.0409" font-family="Times,serif" font-size="14.00" fill="#000000">Komputer dan Masyarakat</text>
</g>
<!-- AIF184000 -->
<g id="node50" class="node">
<title>AIF184000</title>
<polygon fill="none" stroke="#000000" points="476.9487,-1007.2428 377.5275,-1007.2428 377.5275,-966.039 476.9487,-966.039 476.9487,-1007.2428"/>
<text text-anchor="middle" x="427.2381" y="-990.8409" font-family="Times,serif" font-size="14.00" fill="#000000">AIF184000-02</text>
<text text-anchor="middle" x="427.2381" y="-974.0409" font-family="Times,serif" font-size="14.00" fill="#000000">Etika Profesi</text>
</g>
</g>
</svg>