<?xml version="1.0" encoding="UTF-8" standalone="no"?>
<!DOCTYPE svg PUBLIC "-//W3C//DTD SVG 1.1//EN" "http://www.w3.org/Graphics/SVG/1.1/DTD/svg11.dtd">
<!-- Generated by graphviz version 2.40.1 (20161225.0304)
 -->
<!-- Title: G Pages: 1 -->
<svg width="569pt" height="576pt" viewBox="0.00 0.00 568.84 576.00" xmlns="http://www.w3.org/2000/svg" xmlns:xlink="http://www.w3.org/1999/xlink">
<g id="graph0" class="graph" transform="scale(.6221 .6221) rotate(0) translate(4 921.8549)">
<title>G</title>
<polygon fill="#ffffff" stroke="transparent" points="-4,4 -4,-921.8549 910.35,-921.8549 910.35,4 -4,4"/>
<!-- Semester 1 -->
<g id="node1" class="node">
<title>Semester 1</title>
<ellipse fill="none" stroke="#000000" cx="545.266" cy="-898.6216" rx="61.0329" ry="19.4695"/>
<text text-anchor="middle" x="545.266" y="-893.8216" font-family="Times,serif" font-size="16.00" fill="#000000">Semester 1</text>
</g>
<!-- Semester 2 -->
<g id="node2" class="node">
<title>Semester 2</title>
<ellipse fill="none" stroke="#000000" cx="599.5821" cy="-850.9848" rx="61.0329" ry="19.4695"/>
<text text-anchor="middle" x="599.5821" y="-846.1848" font-family="Times,serif" font-size="16.00" fill="#000000">Semester 2</text>
</g>
<!-- Semester 1&#45;&gt;Semester 2 -->
<g id="edge1" class="edge">
<title>Semester 1-&gt;Semester 2</title>
<path fill="none" stroke="#000000" d="M566.1107,-880.3402C567.8122,-878.8479 569.5487,-877.3249 571.2915,-875.7965"/>
<polygon fill="#000000" stroke="#000000" points="573.6724,-878.3637 578.8829,-869.1386 569.0568,-873.101 573.6724,-878.3637"/>
</g>
<!-- Semester 3 -->
<g id="node3" class="node">
<title>Semester 3</title>
<ellipse fill="none" stroke="#000000" cx="646.8028" cy="-796.2997" rx="61.0329" ry="19.4695"/>
<text text-anchor="middle" x="646.8028" y="-791.4997" font-family="Times,serif" font-size="16.00" fill="#000000">Semester 3</text>
</g>
<!-- Semester 2&#45;&gt;Semester 3 -->
<g id="edge2" class="edge">
<title>Semester 2-&gt;Semester 3</title>
<path fill="none" stroke="#000000" d="M615.8328,-832.1653C618.4589,-829.1241 621.22,-825.9265 623.9672,-822.7451"/>
<polygon fill="#000000" stroke="#000000" points="626.7955,-824.8249 630.6821,-814.9687 621.4974,-820.25 626.7955,-824.8249"/>
</g>
<!-- Semester 4 -->
<g id="node4" class="node">
<title>Semester 4</title>
<ellipse fill="none" stroke="#000000" cx="692.4673" cy="-740.2423" rx="61.0329" ry="19.4695"/>
<text text-anchor="middle" x="692.4673" y="-735.4423" font-family="Times,serif" font-size="16.00" fill="#000000">Semester 4</text>
</g>
<!-- Semester 3&#45;&gt;Semester 4 -->
<g id="edge3" class="edge">
<title>Semester 3-&gt;Semester 4</title>
<path fill="none" stroke="#000000" d="M662.0084,-777.6334C664.8283,-774.1717 667.8236,-770.4948 670.7926,-766.85"/>
<polygon fill="#000000" stroke="#000000" points="673.5702,-768.9819 677.1724,-759.0182 668.143,-764.5609 673.5702,-768.9819"/>
</g>
<!-- Semester 5 -->
<g id="node5" class="node">
<title>Semester 5</title>
<ellipse fill="none" stroke="#000000" cx="730.8103" cy="-678.885" rx="61.0329" ry="19.4695"/>
<text text-anchor="middle" x="730.8103" y="-674.085" font-family="Times,serif" font-size="16.00" fill="#000000">Semester 5</text>
</g>
<!-- Semester 4&#45;&gt;Semester 5 -->
<g id="edge4" class="edge">
<title>Semester 4-&gt;Semester 5</title>
<path fill="none" stroke="#000000" d="M704.3891,-721.1648C707.247,-716.5916 710.3569,-711.615 713.4067,-706.7347"/>
<polygon fill="#000000" stroke="#000000" points="716.4324,-708.4972 718.7638,-698.162 710.4962,-704.7875 716.4324,-708.4972"/>
</g>
<!-- Semester 6 -->
<g id="node6" class="node">
<title>Semester 6</title>
<ellipse fill="none" stroke="#000000" cx="761.0502" cy="-613.1902" rx="61.0329" ry="19.4695"/>
<text text-anchor="middle" x="761.0502" y="-608.3902" font-family="Times,serif" font-size="16.00" fill="#000000">Semester 6</text>
</g>
<!-- Semester 5&#45;&gt;Semester 6 -->
<g id="edge5" class="edge">
<title>Semester 5-&gt;Semester 6</title>
<path fill="none" stroke="#000000" d="M739.7197,-659.5297C742.2807,-653.966 745.1295,-647.7772 747.8896,-641.781"/>
<polygon fill="#000000" stroke="#000000" points="751.0979,-643.1815 752.1,-632.6342 744.7392,-640.2545 751.0979,-643.1815"/>
</g>
<!-- Semester 7 -->
<g id="node7" class="node">
<title>Semester 7</title>
<ellipse fill="none" stroke="#000000" cx="785.6552" cy="-545.2443" rx="61.0329" ry="19.4695"/>
<text text-anchor="middle" x="785.6552" y="-540.4443" font-family="Times,serif" font-size="16.00" fill="#000000">Semester 7</text>
</g>
<!-- Semester 6&#45;&gt;Semester 7 -->
<g id="edge6" class="edge">
<title>Semester 6-&gt;Semester 7</title>
<path fill="none" stroke="#000000" d="M768.0352,-593.9014C770.2498,-587.7858 772.7491,-580.8841 775.1544,-574.2417"/>
<polygon fill="#000000" stroke="#000000" points="778.4532,-575.4115 778.5673,-564.8173 771.8715,-573.028 778.4532,-575.4115"/>
</g>
<!-- Semester 8 -->
<g id="node8" class="node">
<title>Semester 8</title>
<ellipse fill="none" stroke="#000000" cx="818.8696" cy="-481.2333" rx="61.0329" ry="19.4695"/>
<text text-anchor="middle" x="818.8696" y="-476.4333" font-family="Times,serif" font-size="16.00" fill="#000000">Semester 8</text>
</g>
<!-- Semester 7&#45;&gt;Semester 8 -->
<g id="edge7" class="edge">
<title>Semester 7-&gt;Semester 8</title>
<path fill="none" stroke="#000000" d="M795.6206,-526.0389C798.3137,-520.8487 801.2858,-515.1209 804.1792,-509.5447"/>
<polygon fill="#000000" stroke="#000000" points="807.4121,-510.9134 808.9112,-500.4252 801.1987,-507.6893 807.4121,-510.9134"/>
</g>
<!-- AIF181101 -->
<g id="node9" class="node">
<title>AIF181101</title>
<polygon fill="none" stroke="#000000" points="403.7481,-447.11 249.6429,-447.11 249.6429,-405.9062 403.7481,-405.9062 403.7481,-447.11"/>
<text text-anchor="middle" x="326.6955" y="-430.7081" font-family="Times,serif" font-size="14.00" fill="#000000">AIF181101-03</text>
<text text-anchor="middle" x="326.6955" y="-413.9081" font-family="Times,serif" font-size="14.00" fill="#000000">Computational Thinking</text>
</g>
<!-- AIF181100 -->
<g id="node16" class="node">
<title>AIF181100</title>
<polygon fill="none" stroke="#000000" points="440.7984,-377.2209 310.458,-377.2209 310.458,-336.0171 440.7984,-336.0171 440.7984,-377.2209"/>
<text text-anchor="middle" x="375.6282" y="-360.819" font-family="Times,serif" font-size="14.00" fill="#000000">AIF181100-04</text>
<text text-anchor="middle" x="375.6282" y="-344.019" font-family="Times,serif" font-size="14.00" fill="#000000">Dasar Pemrograman</text>
</g>
<!-- AIF181101&#45;&gt;AIF181100 -->
<g id="edge8" class="edge">
<title>AIF181101-&gt;AIF181100</title>
<path fill="none" stroke="#000000" d="M341.3769,-405.5391C345.6348,-399.4577 350.3661,-392.7002 354.9194,-386.1967"/>
<polygon fill="#000000" stroke="#000000" points="358.0888,-387.7724 360.9572,-377.5732 352.3546,-383.7576 358.0888,-387.7724"/>
</g>
<!-- AIF181103 -->
<g id="node10" class="node">
<title>AIF181103</title>
<polygon fill="none" stroke="#000000" points="889.0096,-195.4019 769.9968,-195.4019 769.9968,-154.1981 889.0096,-154.1981 889.0096,-195.4019"/>
<text text-anchor="middle" x="829.5032" y="-179" font-family="Times,serif" font-size="14.00" fill="#000000">AIF181103-04</text>
<text text-anchor="middle" x="829.5032" y="-162.2" font-family="Times,serif" font-size="14.00" fill="#000000">Matematika Dasar</text>
</g>
<!-- AIF181105 -->
<g id="node11" class="node">
<title>AIF181105</title>
<polygon fill="none" stroke="#000000" points="590.5693,-129.4019 449.4471,-129.4019 449.4471,-88.1981 590.5693,-88.1981 590.5693,-129.4019"/>
<text text-anchor="middle" x="520.0082" y="-113" font-family="Times,serif" font-size="14.00" fill="#000000">AIF181105-02</text>
<text text-anchor="middle" x="520.0082" y="-96.2" font-family="Times,serif" font-size="14.00" fill="#000000">Pengantar Informatika</text>
</g>
<!-- AIF182308 -->
<g id="node34" class="node">
<title>AIF182308</title>
<polygon fill="none" stroke="#000000" points="577.0347,-210.4684 406.0065,-210.4684 406.0065,-169.2646 577.0347,-169.2646 577.0347,-210.4684"/>
<text text-anchor="middle" x="491.5206" y="-194.0665" font-family="Times,serif" font-size="14.00" fill="#000000">AIF182308-03</text>
<text text-anchor="middle" x="491.5206" y="-177.2665" font-family="Times,serif" font-size="14.00" fill="#000000">Pengantar Sistem Informasi</text>
</g>
<!-- AIF181105&#45;&gt;AIF182308 -->
<g id="edge13" class="edge">
<title>AIF181105-&gt;AIF182308</title>
<path fill="none" stroke="#000000" d="M512.6719,-129.6766C509.482,-138.7543 505.6821,-149.5675 502.1889,-159.5078"/>
<polygon fill="#000000" stroke="#000000" points="498.8454,-158.4658 498.832,-169.0606 505.4495,-160.7866 498.8454,-158.4658"/>
</g>
<!-- AIF181107 -->
<g id="node12" class="node">
<title>AIF181107</title>
<polygon fill="none" stroke="#000000" points="210.4199,-147.6319 83.2725,-147.6319 83.2725,-106.4281 210.4199,-106.4281 210.4199,-147.6319"/>
<text text-anchor="middle" x="146.8462" y="-131.23" font-family="Times,serif" font-size="14.00" fill="#000000">AIF181107-03</text>
<text text-anchor="middle" x="146.8462" y="-114.43" font-family="Times,serif" font-size="14.00" fill="#000000">Matematika Diskret</text>
</g>
<!-- AIF182103 -->
<g id="node23" class="node">
<title>AIF182103</title>
<polygon fill="none" stroke="#000000" points="256.7422,-201.4232 150.5555,-201.4232 150.5555,-160.2194 256.7422,-160.2194 256.7422,-201.4232"/>
<text text-anchor="middle" x="203.6489" y="-185.0213" font-family="Times,serif" font-size="14.00" fill="#000000">AIF182103-04</text>
<text text-anchor="middle" x="203.6489" y="-168.2213" font-family="Times,serif" font-size="14.00" fill="#000000">Struktur Diskret</text>
</g>
<!-- AIF181107&#45;&gt;AIF182103 -->
<g id="edge24" class="edge">
<title>AIF181107-&gt;AIF182103</title>
<path fill="none" stroke="#000000" stroke-dasharray="1,5" d="M168.6452,-147.6733C170.5067,-149.4361 172.4083,-151.2369 174.3155,-153.043"/>
<polygon fill="#000000" stroke="#000000" points="171.959,-155.6317 181.6265,-159.9664 176.7722,-150.5491 171.959,-155.6317"/>
</g>
<!-- MKU170130 -->
<g id="node13" class="node">
<title>MKU170130</title>
<polygon fill="none" stroke="#000000" points="906.5255,-789.4019 791.8245,-789.4019 791.8245,-748.1981 906.5255,-748.1981 906.5255,-789.4019"/>
<text text-anchor="middle" x="849.175" y="-773" font-family="Times,serif" font-size="14.00" fill="#000000">MKU170130-02</text>
<text text-anchor="middle" x="849.175" y="-756.2" font-family="Times,serif" font-size="14.00" fill="#000000">Bahasa Indonesia</text>
</g>
<!-- MKU170110 -->
<g id="node14" class="node">
<title>MKU170110</title>
<polygon fill="none" stroke="#000000" points="293.295,-613.4019 110.2346,-613.4019 110.2346,-572.1981 293.295,-572.1981 293.295,-613.4019"/>
<text text-anchor="middle" x="201.7648" y="-597" font-family="Times,serif" font-size="14.00" fill="#000000">MKU170110-02</text>
<text text-anchor="middle" x="201.7648" y="-580.2" font-family="Times,serif" font-size="14.00" fill="#000000">Pendidikan Kewarganegaraan</text>
</g>
<!-- MKU170120 -->
<g id="node15" class="node">
<title>MKU170120</title>
<polygon fill="none" stroke="#000000" points="131.4781,-63.4019 21.8403,-63.4019 21.8403,-22.1981 131.4781,-22.1981 131.4781,-63.4019"/>
<text text-anchor="middle" x="76.6592" y="-47" font-family="Times,serif" font-size="14.00" fill="#000000">MKU170120-02</text>
<text text-anchor="middle" x="76.6592" y="-30.2" font-family="Times,serif" font-size="14.00" fill="#000000">Logika</text>
</g>
<!-- AIF182101 -->
<g id="node22" class="node">
<title>AIF182101</title>
<polygon fill="none" stroke="#000000" points="421.005,-289.3742 268.2936,-289.3742 268.2936,-248.1704 421.005,-248.1704 421.005,-289.3742"/>
<text text-anchor="middle" x="344.6493" y="-272.9723" font-family="Times,serif" font-size="14.00" fill="#000000">AIF182101-03</text>
<text text-anchor="middle" x="344.6493" y="-256.1723" font-family="Times,serif" font-size="14.00" fill="#000000">Algoritma Struktur Data</text>
</g>
<!-- AIF181100&#45;&gt;AIF182101 -->
<g id="edge9" class="edge">
<title>AIF181100-&gt;AIF182101</title>
<path fill="none" stroke="#000000" d="M368.2866,-335.8005C364.4286,-324.8603 359.6278,-311.2467 355.3626,-299.1518"/>
<polygon fill="#000000" stroke="#000000" points="358.5648,-297.7081 351.9382,-289.4413 351.9632,-300.0361 358.5648,-297.7081"/>
</g>
<!-- AIF182105 -->
<g id="node24" class="node">
<title>AIF182105</title>
<polygon fill="none" stroke="#000000" points="544.4253,-428.2845 340.108,-428.2845 340.108,-387.0807 544.4253,-387.0807 544.4253,-428.2845"/>
<text text-anchor="middle" x="442.2666" y="-411.8826" font-family="Times,serif" font-size="14.00" fill="#000000">AIF182105-02</text>
<text text-anchor="middle" x="442.2666" y="-395.0826" font-family="Times,serif" font-size="14.00" fill="#000000">Pemrograman Berorientasi Objek</text>
</g>
<!-- AIF181100&#45;&gt;AIF182105 -->
<g id="edge10" class="edge">
<title>AIF181100-&gt;AIF182105</title>
<path fill="none" stroke="#000000" d="M402.7326,-377.3885C404.1199,-378.4516 405.5221,-379.526 406.9291,-380.6042"/>
<polygon fill="#000000" stroke="#000000" points="404.9035,-383.4615 414.97,-386.7658 409.1612,-377.9052 404.9035,-383.4615"/>
</g>
<!-- AIF181202 -->
<g id="node17" class="node">
<title>AIF181202</title>
<polygon fill="none" stroke="#000000" points="374.1548,-525.4019 153.9484,-525.4019 153.9484,-484.1981 374.1548,-484.1981 374.1548,-525.4019"/>
<text text-anchor="middle" x="264.0516" y="-509" font-family="Times,serif" font-size="14.00" fill="#000000">AIF181202-04</text>
<text text-anchor="middle" x="264.0516" y="-492.2" font-family="Times,serif" font-size="14.00" fill="#000000">Arsitektur dan Organisasi Komputer</text>
</g>
<!-- AIF181104 -->
<g id="node18" class="node">
<title>AIF181104</title>
<polygon fill="none" stroke="#000000" points="169.3611,-339.7921 43.8795,-339.7921 43.8795,-298.5883 169.3611,-298.5883 169.3611,-339.7921"/>
<text text-anchor="middle" x="106.6203" y="-323.3902" font-family="Times,serif" font-size="14.00" fill="#000000">AIF181104-03</text>
<text text-anchor="middle" x="106.6203" y="-306.5902" font-family="Times,serif" font-size="14.00" fill="#000000">Logika Informatika</text>
</g>
<!-- AIF183107 -->
<g id="node39" class="node">
<title>AIF183107</title>
<polygon fill="none" stroke="#000000" points="257.6306,-310.9309 101.7062,-310.9309 101.7062,-269.7271 257.6306,-269.7271 257.6306,-310.9309"/>
<text text-anchor="middle" x="179.6684" y="-294.529" font-family="Times,serif" font-size="14.00" fill="#000000">AIF183107-03</text>
<text text-anchor="middle" x="179.6684" y="-277.729" font-family="Times,serif" font-size="14.00" fill="#000000">Pengantar Sistem Cerdas</text>
</g>
<!-- AIF181104&#45;&gt;AIF183107 -->
<g id="edge33" class="edge">
<title>AIF181104-&gt;AIF183107</title>
<path fill="none" stroke="#000000" stroke-dasharray="1,5" d="M158.9311,-298.5223C158.9768,-298.5042 159.0225,-298.4861 159.0682,-298.4681"/>
<polygon fill="#000000" stroke="#000000" points="151.1918,-305.3482 159.205,-298.414 148.6166,-298.8376 151.1918,-305.3482"/>
</g>
<!-- AIF181106 -->
<g id="node19" class="node">
<title>AIF181106</title>
<polygon fill="none" stroke="#000000" points="803.526,-107.4019 638.1578,-107.4019 638.1578,-66.1981 803.526,-66.1981 803.526,-107.4019"/>
<text text-anchor="middle" x="720.8419" y="-91" font-family="Times,serif" font-size="14.00" fill="#000000">AIF181106-03</text>
<text text-anchor="middle" x="720.8419" y="-74.2" font-family="Times,serif" font-size="14.00" fill="#000000">Matriks dan Ruang Vektor</text>
</g>
<!-- MKU180240 -->
<g id="node20" class="node">
<title>MKU180240</title>
<polygon fill="none" stroke="#000000" points="505.4781,-833.4019 395.8403,-833.4019 395.8403,-792.1981 505.4781,-792.1981 505.4781,-833.4019"/>
<text text-anchor="middle" x="450.6592" y="-817" font-family="Times,serif" font-size="14.00" fill="#000000">MKU180240-02</text>
<text text-anchor="middle" x="450.6592" y="-800.2" font-family="Times,serif" font-size="14.00" fill="#000000">Etika</text>
</g>
<!-- MKU180360 -->
<g id="node21" class="node">
<title>MKU180360</title>
<polygon fill="none" stroke="#000000" points="505.4781,-41.4019 395.8403,-41.4019 395.8403,-.1981 505.4781,-.1981 505.4781,-41.4019"/>
<text text-anchor="middle" x="450.6592" y="-25" font-family="Times,serif" font-size="14.00" fill="#000000">MKU180360-02</text>
<text text-anchor="middle" x="450.6592" y="-8.2" font-family="Times,serif" font-size="14.00" fill="#000000">Estetika</text>
</g>
<!-- AIF182302 -->
<g id="node31" class="node">
<title>AIF182302</title>
<polygon fill="none" stroke="#000000" points="517.5989,-222.1734 289.6411,-222.1734 289.6411,-180.9695 517.5989,-180.9695 517.5989,-222.1734"/>
<text text-anchor="middle" x="403.62" y="-205.7714" font-family="Times,serif" font-size="14.00" fill="#000000">AIF182302-04</text>
<text text-anchor="middle" x="403.62" y="-188.9714" font-family="Times,serif" font-size="14.00" fill="#000000">Manajemen Informasi dan Basis Data</text>
</g>
<!-- AIF182101&#45;&gt;AIF182302 -->
<g id="edge25" class="edge">
<title>AIF182101-&gt;AIF182302</title>
<path fill="none" stroke="#000000" stroke-dasharray="1,5" d="M362.9847,-247.8779C367.9126,-242.2623 373.3278,-236.0913 378.5535,-230.1363"/>
<polygon fill="#000000" stroke="#000000" points="381.5333,-232.047 385.4984,-222.2221 376.2719,-227.4299 381.5333,-232.047"/>
</g>
<!-- AIF182106 -->
<g id="node33" class="node">
<title>AIF182106</title>
<polygon fill="none" stroke="#000000" points="348.1291,-267.1106 159.1051,-267.1106 159.1051,-225.9068 348.1291,-225.9068 348.1291,-267.1106"/>
<text text-anchor="middle" x="253.6171" y="-250.7087" font-family="Times,serif" font-size="14.00" fill="#000000">AIF182106-03</text>
<text text-anchor="middle" x="253.6171" y="-233.9087" font-family="Times,serif" font-size="14.00" fill="#000000">Desain dan Analisis Algoritma</text>
</g>
<!-- AIF182101&#45;&gt;AIF182106 -->
<g id="edge12" class="edge">
<title>AIF182101-&gt;AIF182106</title>
<path fill="none" stroke="#000000" d="M268.243,-250.0857C268.1746,-250.069 268.1064,-250.0523 268.0383,-250.0357"/>
<polygon fill="#000000" stroke="#000000" points="278.3812,-248.9653 267.8346,-249.9859 276.7157,-255.765 278.3812,-248.9653"/>
</g>
<!-- AIF183201 -->
<g id="node36" class="node">
<title>AIF183201</title>
<polygon fill="none" stroke="#000000" points="347.3599,-335.4922 246.0693,-335.4922 246.0693,-294.2884 347.3599,-294.2884 347.3599,-335.4922"/>
<text text-anchor="middle" x="296.7146" y="-319.0903" font-family="Times,serif" font-size="14.00" fill="#000000">AIF183201-03</text>
<text text-anchor="middle" x="296.7146" y="-302.2903" font-family="Times,serif" font-size="14.00" fill="#000000">Sistem Operasi</text>
</g>
<!-- AIF182101&#45;&gt;AIF183201 -->
<g id="edge29" class="edge">
<title>AIF182101-&gt;AIF183201</title>
<path fill="none" stroke="#000000" stroke-dasharray="1,5" d="M323.2056,-289.4033C323.1059,-289.4993 323.0061,-289.5952 322.9063,-289.6913"/>
<polygon fill="#000000" stroke="#000000" points="323.1827,-284.5685 318.403,-294.0239 328.036,-289.6129 323.1827,-284.5685"/>
</g>
<!-- AIF182103&#45;&gt;AIF182106 -->
<g id="edge27" class="edge">
<title>AIF182103-&gt;AIF182106</title>
<path fill="none" stroke="#000000" stroke-dasharray="1,5" d="M219.4591,-201.6052C223.2869,-206.6371 227.4483,-212.1076 231.5071,-217.4433"/>
<polygon fill="#000000" stroke="#000000" points="228.8982,-219.7946 237.7382,-225.6345 234.4694,-215.5565 228.8982,-219.7946"/>
</g>
<!-- AIF182100 -->
<g id="node30" class="node">
<title>AIF182100</title>
<polygon fill="none" stroke="#000000" points="636.6563,-452.8079 410.2308,-452.8079 410.2308,-411.6041 636.6563,-411.6041 636.6563,-452.8079"/>
<text text-anchor="middle" x="523.4435" y="-436.406" font-family="Times,serif" font-size="14.00" fill="#000000">AIF182100-04</text>
<text text-anchor="middle" x="523.4435" y="-419.606" font-family="Times,serif" font-size="14.00" fill="#000000">Analisis dan Desain Perangkat Lunak</text>
</g>
<!-- AIF182105&#45;&gt;AIF182100 -->
<g id="edge11" class="edge">
<title>AIF182105-&gt;AIF182100</title>
<path fill="none" stroke="#000000" d="M510.7596,-428.3742C510.8191,-428.3922 510.8784,-428.4101 510.9375,-428.4279"/>
<polygon fill="#000000" stroke="#000000" points="500.5281,-428.9362 511.1145,-428.4814 502.5551,-422.2351 500.5281,-428.9362"/>
</g>
<!-- AIF182007 -->
<g id="node25" class="node">
<title>AIF182007</title>
<polygon fill="none" stroke="#000000" points="379.8728,-688.6847 264.0424,-688.6847 264.0424,-647.4809 379.8728,-647.4809 379.8728,-688.6847"/>
<text text-anchor="middle" x="321.9576" y="-672.2828" font-family="Times,serif" font-size="14.00" fill="#000000">AIF182007-02</text>
<text text-anchor="middle" x="321.9576" y="-655.4828" font-family="Times,serif" font-size="14.00" fill="#000000">Teknik Presentasi</text>
</g>
<!-- AIF184001 -->
<g id="node47" class="node">
<title>AIF184001</title>
<polygon fill="none" stroke="#000000" points="419.1218,-613.4019 319.7005,-613.4019 319.7005,-572.1981 419.1218,-572.1981 419.1218,-613.4019"/>
<text text-anchor="middle" x="369.4112" y="-597" font-family="Times,serif" font-size="14.00" fill="#000000">AIF184001-03</text>
<text text-anchor="middle" x="369.4112" y="-580.2" font-family="Times,serif" font-size="14.00" fill="#000000">Skripsi 1</text>
</g>
<!-- AIF182007&#45;&gt;AIF184001 -->
<g id="edge17" class="edge">
<title>AIF182007-&gt;AIF184001</title>
<path fill="none" stroke="#000000" d="M335.1761,-647.1124C340.0096,-639.4442 345.5722,-630.6194 350.7891,-622.343"/>
<polygon fill="#000000" stroke="#000000" points="353.892,-623.984 356.2636,-613.658 347.9703,-620.2513 353.892,-623.984"/>
</g>
<!-- AIF184002 -->
<g id="node51" class="node">
<title>AIF184002</title>
<polygon fill="none" stroke="#000000" points="425.2467,-662.1651 325.8254,-662.1651 325.8254,-620.9613 425.2467,-620.9613 425.2467,-662.1651"/>
<text text-anchor="middle" x="375.5361" y="-645.7632" font-family="Times,serif" font-size="14.00" fill="#000000">AIF184002-05</text>
<text text-anchor="middle" x="375.5361" y="-628.9632" font-family="Times,serif" font-size="14.00" fill="#000000">Skripsi 2</text>
</g>
<!-- AIF182007&#45;&gt;AIF184002 -->
<g id="edge21" class="edge">
<title>AIF182007-&gt;AIF184002</title>
<path fill="none" stroke="#000000" d="M363.6453,-647.4488C363.6993,-647.422 363.7532,-647.3953 363.807,-647.3687"/>
<polygon fill="#000000" stroke="#000000" points="356.5589,-654.8651 363.9681,-647.289 353.4516,-648.5911 356.5589,-654.8651"/>
</g>
<!-- AIF184004 -->
<g id="node52" class="node">
<title>AIF184004</title>
<polygon fill="none" stroke="#000000" points="436.2101,-743.4139 336.7888,-743.4139 336.7888,-702.2101 436.2101,-702.2101 436.2101,-743.4139"/>
<text text-anchor="middle" x="386.4995" y="-727.012" font-family="Times,serif" font-size="14.00" fill="#000000">AIF184004-08</text>
<text text-anchor="middle" x="386.4995" y="-710.212" font-family="Times,serif" font-size="14.00" fill="#000000">Tugas Akhir</text>
</g>
<!-- AIF182007&#45;&gt;AIF184004 -->
<g id="edge23" class="edge">
<title>AIF182007-&gt;AIF184004</title>
<path fill="none" stroke="#000000" d="M346.3581,-688.7736C348.9283,-690.953 351.5695,-693.1926 354.2108,-695.4324"/>
<polygon fill="#000000" stroke="#000000" points="352.1737,-698.2939 362.0644,-702.092 356.701,-692.955 352.1737,-698.2939"/>
</g>
<!-- AIF182109 -->
<g id="node26" class="node">
<title>AIF182109</title>
<polygon fill="none" stroke="#000000" points="212.657,-437.4019 43.7806,-437.4019 43.7806,-396.1981 212.657,-396.1981 212.657,-437.4019"/>
<text text-anchor="middle" x="128.2188" y="-421" font-family="Times,serif" font-size="14.00" fill="#000000">AIF182109-03</text>
<text text-anchor="middle" x="128.2188" y="-404.2" font-family="Times,serif" font-size="14.00" fill="#000000">Statistika untuk Komputasi</text>
</g>
<!-- MKU180370 -->
<g id="node27" class="node">
<title>MKU180370</title>
<polygon fill="none" stroke="#000000" points="285.4781,-63.4019 175.8403,-63.4019 175.8403,-22.1981 285.4781,-22.1981 285.4781,-63.4019"/>
<text text-anchor="middle" x="230.6592" y="-47" font-family="Times,serif" font-size="14.00" fill="#000000">MKU180370-02</text>
<text text-anchor="middle" x="230.6592" y="-30.2" font-family="Times,serif" font-size="14.00" fill="#000000">Agama Katolik</text>
</g>
<!-- MKU180380 -->
<g id="node28" class="node">
<title>MKU180380</title>
<polygon fill="none" stroke="#000000" points="889.7152,-371.4019 770.0948,-371.4019 770.0948,-330.1981 889.7152,-330.1981 889.7152,-371.4019"/>
<text text-anchor="middle" x="829.905" y="-355" font-family="Times,serif" font-size="14.00" fill="#000000">MKU180380-02</text>
<text text-anchor="middle" x="829.905" y="-338.2" font-family="Times,serif" font-size="14.00" fill="#000000">Fenomena Katolik</text>
</g>
<!-- MKU180250 -->
<g id="node29" class="node">
<title>MKU180250</title>
<polygon fill="none" stroke="#000000" points="109.4781,-525.4019 -.1597,-525.4019 -.1597,-484.1981 109.4781,-484.1981 109.4781,-525.4019"/>
<text text-anchor="middle" x="54.6592" y="-509" font-family="Times,serif" font-size="14.00" fill="#000000">MKU180250-02</text>
<text text-anchor="middle" x="54.6592" y="-492.2" font-family="Times,serif" font-size="14.00" fill="#000000">Pancasila</text>
</g>
<!-- AIF183303 -->
<g id="node37" class="node">
<title>AIF183303</title>
<polygon fill="none" stroke="#000000" points="674.6556,-399.8331 505.886,-399.8331 505.886,-358.6293 674.6556,-358.6293 674.6556,-399.8331"/>
<text text-anchor="middle" x="590.2708" y="-383.4312" font-family="Times,serif" font-size="14.00" fill="#000000">AIF183303-03</text>
<text text-anchor="middle" x="590.2708" y="-366.6312" font-family="Times,serif" font-size="14.00" fill="#000000">Rekayasa Perangkat Lunak</text>
</g>
<!-- AIF182100&#45;&gt;AIF183303 -->
<g id="edge30" class="edge">
<title>AIF182100-&gt;AIF183303</title>
<path fill="none" stroke="#000000" stroke-dasharray="1,5" d="M549.4721,-411.5728C551.5885,-409.8951 553.7466,-408.1844 555.9099,-406.4695"/>
<polygon fill="#000000" stroke="#000000" points="558.5411,-408.85 564.2034,-399.8951 554.1927,-403.3645 558.5411,-408.85"/>
</g>
<!-- AIF183209 -->
<g id="node40" class="node">
<title>AIF183209</title>
<polygon fill="none" stroke="#000000" points="661.7347,-532.6356 423.26,-532.6356 423.26,-491.4318 661.7347,-491.4318 661.7347,-532.6356"/>
<text text-anchor="middle" x="542.4973" y="-516.2337" font-family="Times,serif" font-size="14.00" fill="#000000">AIF183209-03</text>
<text text-anchor="middle" x="542.4973" y="-499.4337" font-family="Times,serif" font-size="14.00" fill="#000000">Pemrograman pada Perangkat Bergerak</text>
</g>
<!-- AIF182100&#45;&gt;AIF183209 -->
<g id="edge34" class="edge">
<title>AIF182100-&gt;AIF183209</title>
<path fill="none" stroke="#000000" stroke-dasharray="1,5" d="M528.4497,-453.1798C530.5064,-461.7965 532.929,-471.9463 535.178,-481.3685"/>
<polygon fill="#000000" stroke="#000000" points="531.7985,-482.2858 537.5246,-491.2 538.6073,-480.6606 531.7985,-482.2858"/>
</g>
<!-- AIF182204 -->
<g id="node32" class="node">
<title>AIF182204</title>
<polygon fill="none" stroke="#000000" points="448.1345,-153.6897 271.8059,-153.6897 271.8059,-112.4859 448.1345,-112.4859 448.1345,-153.6897"/>
<text text-anchor="middle" x="359.9702" y="-137.2878" font-family="Times,serif" font-size="14.00" fill="#000000">AIF182204-03</text>
<text text-anchor="middle" x="359.9702" y="-120.4878" font-family="Times,serif" font-size="14.00" fill="#000000">Pemrograman Berbasis Web</text>
</g>
<!-- AIF182302&#45;&gt;AIF182204 -->
<g id="edge26" class="edge">
<title>AIF182302-&gt;AIF182204</title>
<path fill="none" stroke="#000000" stroke-dasharray="1,5" d="M390.2864,-180.652C386.6479,-174.9434 382.6364,-168.6496 378.7556,-162.5609"/>
<polygon fill="#000000" stroke="#000000" points="381.5485,-160.4307 373.2221,-153.8791 375.6455,-164.1931 381.5485,-160.4307"/>
</g>
<!-- AIF182302&#45;&gt;AIF182308 -->
<g id="edge28" class="edge">
<title>AIF182302-&gt;AIF182308</title>
<path fill="none" stroke="#000000" stroke-dasharray="1,5" d="M491.4569,-189.875C491.4674,-189.8736 491.4767,-189.8723 491.4847,-189.8713"/>
<polygon fill="#000000" stroke="#000000" points="482.0687,-194.7011 491.5046,-189.8686 481.1146,-187.762 482.0687,-194.7011"/>
</g>
<!-- AIF183300 -->
<g id="node42" class="node">
<title>AIF183300</title>
<polygon fill="none" stroke="#000000" points="479.3733,-140.452 341.7611,-140.452 341.7611,-99.2482 479.3733,-99.2482 479.3733,-140.452"/>
<text text-anchor="middle" x="410.5672" y="-124.0501" font-family="Times,serif" font-size="14.00" fill="#000000">AIF183300-02</text>
<text text-anchor="middle" x="410.5672" y="-107.2501" font-family="Times,serif" font-size="14.00" fill="#000000">Teknologi Basis Data</text>
</g>
<!-- AIF182302&#45;&gt;AIF183300 -->
<g id="edge14" class="edge">
<title>AIF182302-&gt;AIF183300</title>
<path fill="none" stroke="#000000" d="M405.3731,-180.9497C406.1547,-171.7552 407.0918,-160.7316 407.9536,-150.5945"/>
<polygon fill="#000000" stroke="#000000" points="411.455,-150.7258 408.8147,-140.4652 404.4801,-150.1328 411.455,-150.7258"/>
</g>
<!-- AIF182106&#45;&gt;AIF183107 -->
<g id="edge32" class="edge">
<title>AIF182106-&gt;AIF183107</title>
<path fill="none" stroke="#000000" stroke-dasharray="1,5" d="M218.8081,-267.1357C218.7238,-267.1857 218.6395,-267.2356 218.5552,-267.2856"/>
<polygon fill="#000000" stroke="#000000" points="221.5767,-261.4266 214.758,-269.5357 225.1453,-267.4487 221.5767,-261.4266"/>
</g>
<!-- AIF183308 -->
<g id="node46" class="node">
<title>AIF183308</title>
<polygon fill="none" stroke="#000000" points="652.6766,-245.9779 487.2888,-245.9779 487.2888,-204.7741 652.6766,-204.7741 652.6766,-245.9779"/>
<text text-anchor="middle" x="569.9827" y="-229.576" font-family="Times,serif" font-size="14.00" fill="#000000">AIF183308-03</text>
<text text-anchor="middle" x="569.9827" y="-212.776" font-family="Times,serif" font-size="14.00" fill="#000000">Proyek Sistem Informasi 1</text>
</g>
<!-- AIF182308&#45;&gt;AIF183308 -->
<g id="edge15" class="edge">
<title>AIF182308-&gt;AIF183308</title>
<path fill="none" stroke="#000000" d="M537.1623,-210.5225C537.2297,-210.553 537.2971,-210.5835 537.3645,-210.614"/>
<polygon fill="#000000" stroke="#000000" points="527.0117,-209.7685 537.5666,-210.7054 529.8997,-203.3909 527.0117,-209.7685"/>
</g>
<!-- AIF182210 -->
<g id="node35" class="node">
<title>AIF182210</title>
<polygon fill="none" stroke="#000000" points="657.3447,-605.6812 474.0134,-605.6812 474.0134,-564.4773 657.3447,-564.4773 657.3447,-605.6812"/>
<text text-anchor="middle" x="565.679" y="-589.2792" font-family="Times,serif" font-size="14.00" fill="#000000">AIF182210-02</text>
<text text-anchor="middle" x="565.679" y="-572.4792" font-family="Times,serif" font-size="14.00" fill="#000000">Pengantar Jaringan Komputer</text>
</g>
<!-- AIF182210&#45;&gt;AIF183209 -->
<g id="edge35" class="edge">
<title>AIF182210-&gt;AIF183209</title>
<path fill="none" stroke="#000000" stroke-dasharray="1,5" d="M559.0981,-564.3427C556.9447,-557.5572 554.5055,-549.8715 552.1729,-542.5212"/>
<polygon fill="#000000" stroke="#000000" points="555.4557,-541.2949 549.0947,-532.8221 548.7837,-543.4123 555.4557,-541.2949"/>
</g>
<!-- AIF183204 -->
<g id="node44" class="node">
<title>AIF183204</title>
<polygon fill="none" stroke="#000000" points="651.6232,-675.9174 528.2464,-675.9174 528.2464,-634.7136 651.6232,-634.7136 651.6232,-675.9174"/>
<text text-anchor="middle" x="589.9348" y="-659.5155" font-family="Times,serif" font-size="14.00" fill="#000000">AIF183204-02</text>
<text text-anchor="middle" x="589.9348" y="-642.7155" font-family="Times,serif" font-size="14.00" fill="#000000">Jaringan Komputer</text>
</g>
<!-- AIF182210&#45;&gt;AIF183204 -->
<g id="edge36" class="edge">
<title>AIF182210-&gt;AIF183204</title>
<path fill="none" stroke="#000000" stroke-dasharray="1,5" d="M572.8254,-605.7726C574.8796,-611.7209 577.1646,-618.3375 579.3786,-624.7483"/>
<polygon fill="#000000" stroke="#000000" points="576.1831,-626.2177 582.7557,-634.5274 582.7997,-623.9327 576.1831,-626.2177"/>
</g>
<!-- AIF183305 -->
<g id="node38" class="node">
<title>AIF183305</title>
<polygon fill="none" stroke="#000000" points="668.6332,-321.1426 543.1487,-321.1426 543.1487,-279.9388 668.6332,-279.9388 668.6332,-321.1426"/>
<text text-anchor="middle" x="605.891" y="-304.7407" font-family="Times,serif" font-size="14.00" fill="#000000">AIF183305-02</text>
<text text-anchor="middle" x="605.891" y="-287.9407" font-family="Times,serif" font-size="14.00" fill="#000000">Manajemen Proyek</text>
</g>
<!-- AIF183303&#45;&gt;AIF183305 -->
<g id="edge31" class="edge">
<title>AIF183303-&gt;AIF183305</title>
<path fill="none" stroke="#000000" stroke-dasharray="1,5" d="M594.3748,-358.5562C596.0298,-350.2187 597.9738,-340.4252 599.7885,-331.2832"/>
<polygon fill="#000000" stroke="#000000" points="603.2461,-331.8409 601.7601,-321.3508 596.38,-330.4779 603.2461,-331.8409"/>
</g>
<!-- AIF183106 -->
<g id="node45" class="node">
<title>AIF183106</title>
<polygon fill="none" stroke="#000000" points="721.5624,-370.6837 596.0807,-370.6837 596.0807,-329.4799 721.5624,-329.4799 721.5624,-370.6837"/>
<text text-anchor="middle" x="658.8216" y="-354.2818" font-family="Times,serif" font-size="14.00" fill="#000000">AIF183106-06</text>
<text text-anchor="middle" x="658.8216" y="-337.4818" font-family="Times,serif" font-size="14.00" fill="#000000">Proyek Informatika</text>
</g>
<!-- AIF183303&#45;&gt;AIF183106 -->
<g id="edge37" class="edge">
<title>AIF183303-&gt;AIF183106</title>
<path fill="none" stroke="#000000" stroke-dasharray="1,5" d="M638.9939,-358.513C639.0375,-358.4945 639.081,-358.476 639.1246,-358.4574"/>
<polygon fill="#000000" stroke="#000000" points="631.4231,-365.5405 639.2551,-358.4019 628.6809,-359.0983 631.4231,-365.5405"/>
</g>
<!-- AIF183305&#45;&gt;AIF183106 -->
<g id="edge38" class="edge">
<title>AIF183305-&gt;AIF183106</title>
<path fill="none" stroke="#000000" stroke-dasharray="1,5" d="M628.0316,-321.2635C628.3857,-321.595 628.7409,-321.9274 629.0969,-322.2606"/>
<polygon fill="#000000" stroke="#000000" points="626.9068,-325.0046 636.5995,-329.2828 631.6902,-319.894 626.9068,-325.0046"/>
</g>
<!-- AIF183305&#45;&gt;AIF183308 -->
<g id="edge39" class="edge">
<title>AIF183305-&gt;AIF183308</title>
<path fill="none" stroke="#000000" stroke-dasharray="1,5" d="M595.8885,-279.6031C592.3088,-272.1099 588.2006,-263.5105 584.3264,-255.4008"/>
<polygon fill="#000000" stroke="#000000" points="587.4003,-253.7157 579.9315,-246.2012 581.0841,-256.7332 587.4003,-253.7157"/>
</g>
<!-- AIF183111 -->
<g id="node41" class="node">
<title>AIF183111</title>
<polygon fill="none" stroke="#000000" points="880.9223,-283.4019 704.0259,-283.4019 704.0259,-242.1981 880.9223,-242.1981 880.9223,-283.4019"/>
<text text-anchor="middle" x="792.4741" y="-267" font-family="Times,serif" font-size="14.00" fill="#000000">AIF183111-03</text>
<text text-anchor="middle" x="792.4741" y="-250.2" font-family="Times,serif" font-size="14.00" fill="#000000">Interaksi Manusia Komputer</text>
</g>
<!-- AIF183002 -->
<g id="node43" class="node">
<title>AIF183002</title>
<polygon fill="none" stroke="#000000" points="489.949,-673.7579 378.9777,-673.7579 378.9777,-632.554 489.949,-632.554 489.949,-673.7579"/>
<text text-anchor="middle" x="434.4633" y="-657.356" font-family="Times,serif" font-size="14.00" fill="#000000">AIF183002-02</text>
<text text-anchor="middle" x="434.4633" y="-640.556" font-family="Times,serif" font-size="14.00" fill="#000000">Penulisan Ilmiah</text>
</g>
<!-- AIF183002&#45;&gt;AIF184001 -->
<g id="edge16" class="edge">
<title>AIF183002-&gt;AIF184001</title>
<path fill="none" stroke="#000000" d="M412.0761,-632.3849C407.9414,-628.5487 403.5639,-624.4872 399.2499,-620.4846"/>
<polygon fill="#000000" stroke="#000000" points="401.3306,-617.6407 391.6193,-613.4049 396.5695,-622.7722 401.3306,-617.6407"/>
</g>
<!-- AIF183002&#45;&gt;AIF184002 -->
<g id="edge19" class="edge">
<title>AIF183002-&gt;AIF184002</title>
<path fill="none" stroke="#000000" d="M379.0458,-642.2537C378.9767,-642.2401 378.9085,-642.2267 378.8411,-642.2134"/>
<polygon fill="#000000" stroke="#000000" points="389.131,-640.6743 378.6419,-642.1742 387.777,-647.5427 389.131,-640.6743"/>
</g>
<!-- AIF183002&#45;&gt;AIF184004 -->
<g id="edge22" class="edge">
<title>AIF183002-&gt;AIF184004</title>
<path fill="none" stroke="#000000" d="M420.0726,-674.0551C415.899,-680.1162 411.2614,-686.8511 406.7982,-693.3329"/>
<polygon fill="#000000" stroke="#000000" points="403.6687,-691.7064 400.88,-701.9276 409.4341,-695.6763 403.6687,-691.7064"/>
</g>
<!-- AIF184303 -->
<g id="node48" class="node">
<title>AIF184303</title>
<polygon fill="none" stroke="#000000" points="719.4817,-195.8088 554.094,-195.8088 554.094,-154.605 719.4817,-154.605 719.4817,-195.8088"/>
<text text-anchor="middle" x="636.7879" y="-179.4069" font-family="Times,serif" font-size="14.00" fill="#000000">AIF184303-03</text>
<text text-anchor="middle" x="636.7879" y="-162.6069" font-family="Times,serif" font-size="14.00" fill="#000000">Proyek Sistem Informasi 2</text>
</g>
<!-- AIF183308&#45;&gt;AIF184303 -->
<g id="edge18" class="edge">
<title>AIF183308-&gt;AIF184303</title>
<path fill="none" stroke="#000000" d="M597.5406,-204.6806C598.7536,-203.7697 599.9773,-202.8507 601.2049,-201.9288"/>
<polygon fill="#000000" stroke="#000000" points="603.3988,-204.6584 609.2933,-195.8547 599.1952,-199.061 603.3988,-204.6584"/>
</g>
<!-- AIF184001&#45;&gt;AIF184002 -->
<g id="edge20" class="edge">
<title>AIF184001-&gt;AIF184002</title>
<path fill="none" stroke="#000000" d="M372.0087,-613.48C372.0274,-613.6293 372.0462,-613.7787 372.065,-613.9283"/>
<polygon fill="#000000" stroke="#000000" points="368.1959,-611.2095 372.915,-620.6953 375.1413,-610.3371 368.1959,-611.2095"/>
</g>
<!-- AIF184005 -->
<g id="node49" class="node">
<title>AIF184005</title>
<polygon fill="none" stroke="#000000" points="297.4148,-767.4019 131.8616,-767.4019 131.8616,-726.1981 297.4148,-726.1981 297.4148,-767.4019"/>
<text text-anchor="middle" x="214.6382" y="-751" font-family="Times,serif" font-size="14.00" fill="#000000">AIF184005-02</text>
<text text-anchor="middle" x="214.6382" y="-734.2" font-family="Times,serif" font-size="14.00" fill="#000000">Komputer dan Masyarakat</text>
</g>
<!-- AIF184000 -->
<g id="node50" class="node">
<title>AIF184000</title>
<polygon fill="none" stroke="#000000" points="99.3158,-833.4019 -.1054,-833.4019 -.1054,-792.1981 99.3158,-792.1981 99.3158,-833.4019"/>
<text text-anchor="middle" x="49.6052" y="-817" font-family="Times,serif" font-size="14.00" fill="#000000">AIF184000-02</text>
<text text-anchor="middle" x="49.6052" y="-800.2" font-family="Times,serif" font-size="14.00" fill="#000000">Etika Profesi</text>
</g>
</g>
</svg>