<?xml version="1.0" encoding="UTF-8" standalone="no"?>
<!DOCTYPE svg PUBLIC "-//W3C//DTD SVG 1.1//EN" "http://www.w3.org/Graphics/SVG/1.1/DTD/svg11.dtd">
<!-- Generated by graphviz version 2.40.1 (20161225.0304)
 -->
<!-- Title: G Pages: 1 -->
<svg width="576pt" height="109pt" viewBox="0.00 0.00 576.00 108.78" xmlns="http://www.w3.org/2000/svg" xmlns:xlink="http://www.w3.org/1999/xlink">
<g id="graph0" class="graph" transform="scale(.3372 .3372) rotate(0) translate(4 318.6)">
<title>G</title>
<polygon fill="#ffffff" stroke="transparent" points="-4,4 -4,-318.6 1704.1656,-318.6 1704.1656,4 -4,4"/>
<!-- Semester 1 -->
<g id="node1" class="node">
<title>Semester 1</title>
<ellipse fill="none" stroke="#000000" cx="587.266" cy="-111.2333" rx="61.0329" ry="19.4695"/>
<text text-anchor="middle" x="587.266" y="-106.4333" font-family="Times,serif" font-size="16.00" fill="#000000">Semester 1</text>
</g>
<!-- Semester 2 -->
<g id="node2" class="node">
<title>Semester 2</title>
<ellipse fill="none" stroke="#000000" cx="356.266" cy="-111.2333" rx="61.0329" ry="19.4695"/>
<text text-anchor="middle" x="356.266" y="-106.4333" font-family="Times,serif" font-size="16.00" fill="#000000">Semester 2</text>
</g>
<!-- Semester 1&#45;&gt;Semester 2 -->
<g id="edge1" class="edge">
<title>Semester 1-&gt;Semester 2</title>
<path fill="none" stroke="#000000" d="M525.9687,-111.2333C495.8165,-111.2333 459.2905,-111.2333 427.8606,-111.2333"/>
<polygon fill="#000000" stroke="#000000" points="427.8498,-107.7334 417.8497,-111.2333 427.8497,-114.7334 427.8498,-107.7334"/>
</g>
<!-- Semester 3 -->
<g id="node3" class="node">
<title>Semester 3</title>
<ellipse fill="none" stroke="#000000" cx="814.266" cy="-111.2333" rx="61.0329" ry="19.4695"/>
<text text-anchor="middle" x="814.266" y="-106.4333" font-family="Times,serif" font-size="16.00" fill="#000000">Semester 3</text>
</g>
<!-- Semester 2&#45;&gt;Semester 3 -->
<g id="edge2" class="edge">
<title>Semester 2-&gt;Semester 3</title>
<path fill="none" stroke="#000000" d="M417.5587,-111.2333C501.9355,-111.2333 653.5545,-111.2333 742.9231,-111.2333"/>
<polygon fill="#000000" stroke="#000000" points="742.971,-114.7334 752.971,-111.2333 742.971,-107.7334 742.971,-114.7334"/>
</g>
<!-- Semester 4 -->
<g id="node4" class="node">
<title>Semester 4</title>
<ellipse fill="none" stroke="#000000" cx="119.266" cy="-111.2333" rx="61.0329" ry="19.4695"/>
<text text-anchor="middle" x="119.266" y="-106.4333" font-family="Times,serif" font-size="16.00" fill="#000000">Semester 4</text>
</g>
<!-- Semester 3&#45;&gt;Semester 4 -->
<g id="edge3" class="edge">
<title>Semester 3-&gt;Semester 4</title>
<path fill="none" stroke="#000000" d="M752.8943,-111.2333C624.5433,-111.2333 328.3259,-111.2333 191.2559,-111.2333"/>
<polygon fill="#000000" stroke="#000000" points="190.8729,-107.7334 180.8729,-111.2333 190.8728,-114.7334 190.8729,-107.7334"/>
</g>
<!-- Semester 5 -->
<g id="node5" class="node">
<title>Semester 5</title>
<ellipse fill="none" stroke="#000000" cx="1030.266" cy="-111.2333" rx="61.0329" ry="19.4695"/>
<text text-anchor="middle" x="1030.266" y="-106.4333" font-family="Times,serif" font-size="16.00" fill="#000000">Semester 5</text>
</g>
<!-- Semester 4&#45;&gt;Semester 5 -->
<g id="edge4" class="edge">
<title>Semester 4-&gt;Semester 5</title>
<path fill="none" stroke="#000000" d="M180.8097,-111.2333C343.6445,-111.2333 785.1402,-111.2333 958.7605,-111.2333"/>
<polygon fill="#000000" stroke="#000000" points="958.8131,-114.7334 968.813,-111.2333 958.813,-107.7334 958.8131,-114.7334"/>
</g>
<!-- Semester 6 -->
<g id="node6" class="node">
<title>Semester 6</title>
<ellipse fill="none" stroke="#000000" cx="1421.266" cy="-157.2333" rx="61.0329" ry="19.4695"/>
<text text-anchor="middle" x="1421.266" y="-152.4333" font-family="Times,serif" font-size="16.00" fill="#000000">Semester 6</text>
</g>
<!-- Semester 5&#45;&gt;Semester 6 -->
<g id="edge5" class="edge">
<title>Semester 5-&gt;Semester 6</title>
<path fill="none" stroke="#000000" d="M1087.9594,-118.0208C1158.665,-126.3391 1278.3008,-140.4139 1353.3679,-149.2453"/>
<polygon fill="#000000" stroke="#000000" points="1353.3142,-152.763 1363.6547,-150.4555 1354.1322,-145.811 1353.3142,-152.763"/>
</g>
<!-- Semester 7 -->
<g id="node7" class="node">
<title>Semester 7</title>
<ellipse fill="none" stroke="#000000" cx="1231.266" cy="-157.2333" rx="61.0329" ry="19.4695"/>
<text text-anchor="middle" x="1231.266" y="-152.4333" font-family="Times,serif" font-size="16.00" fill="#000000">Semester 7</text>
</g>
<!-- Semester 6&#45;&gt;Semester 7 -->
<g id="edge6" class="edge">
<title>Semester 6-&gt;Semester 7</title>
<path fill="none" stroke="#000000" d="M1359.8408,-157.2333C1341.7279,-157.2333 1321.7461,-157.2333 1303.0436,-157.2333"/>
<polygon fill="#000000" stroke="#000000" points="1302.8049,-153.7334 1292.8049,-157.2333 1302.8049,-160.7334 1302.8049,-153.7334"/>
</g>
<!-- Semester 8 -->
<g id="node8" class="node">
<title>Semester 8</title>
<ellipse fill="none" stroke="#000000" cx="1609.266" cy="-157.2333" rx="61.0329" ry="19.4695"/>
<text text-anchor="middle" x="1609.266" y="-152.4333" font-family="Times,serif" font-size="16.00" fill="#000000">Semester 8</text>
</g>
<!-- Semester 7&#45;&gt;Semester 8 -->
<g id="edge7" class="edge">
<title>Semester 7-&gt;Semester 8</title>
<path fill="none" stroke="#000000" d="M1292.8395,-157.2333C1359.836,-157.2333 1466.8188,-157.2333 1537.5545,-157.2333"/>
<polygon fill="#000000" stroke="#000000" points="1537.7189,-160.7334 1547.7188,-157.2333 1537.7188,-153.7334 1537.7189,-160.7334"/>
</g>
<!-- AIF181101 -->
<g id="node9" class="node">
<title>AIF181101</title>
<polygon fill="none" stroke="#000000" points="664.0789,-223.4019 509.9737,-223.4019 509.9737,-182.1981 664.0789,-182.1981 664.0789,-223.4019"/>
<text text-anchor="middle" x="587.0263" y="-207" font-family="Times,serif" font-size="14.00" fill="#000000">AIF181101-03</text>
<text text-anchor="middle" x="587.0263" y="-190.2" font-family="Times,serif" font-size="14.00" fill="#000000">Computational Thinking</text>
</g>
<!-- AIF181100 -->
<g id="node16" class="node">
<title>AIF181100</title>
<polygon fill="none" stroke="#000000" points="1486.5051,-223.4019 1356.1647,-223.4019 1356.1647,-182.1981 1486.5051,-182.1981 1486.5051,-223.4019"/>
<text text-anchor="middle" x="1421.3349" y="-207" font-family="Times,serif" font-size="14.00" fill="#000000">AIF181100-04</text>
<text text-anchor="middle" x="1421.3349" y="-190.2" font-family="Times,serif" font-size="14.00" fill="#000000">Dasar Pemrograman</text>
</g>
<!-- AIF181101&#45;&gt;AIF181100 -->
<g id="edge8" class="edge">
<title>AIF181101-&gt;AIF181100</title>
<path fill="none" stroke="#000000" d="M664.3933,-202.8C823.9895,-202.8 1187.9819,-202.8 1345.9069,-202.8"/>
<polygon fill="#000000" stroke="#000000" points="1346.0069,-206.3001 1356.0068,-202.8 1346.0068,-199.3001 1346.0069,-206.3001"/>
</g>
<!-- AIF181103 -->
<g id="node10" class="node">
<title>AIF181103</title>
<polygon fill="none" stroke="#000000" points="1291.0096,-132.4019 1171.9968,-132.4019 1171.9968,-91.1981 1291.0096,-91.1981 1291.0096,-132.4019"/>
<text text-anchor="middle" x="1231.5032" y="-116" font-family="Times,serif" font-size="14.00" fill="#000000">AIF181103-04</text>
<text text-anchor="middle" x="1231.5032" y="-99.2" font-family="Times,serif" font-size="14.00" fill="#000000">Matematika Dasar</text>
</g>
<!-- AIF181105 -->
<g id="node11" class="node">
<title>AIF181105</title>
<polygon fill="none" stroke="#000000" points="1101.3413,-223.4019 960.2191,-223.4019 960.2191,-182.1981 1101.3413,-182.1981 1101.3413,-223.4019"/>
<text text-anchor="middle" x="1030.7802" y="-207" font-family="Times,serif" font-size="14.00" fill="#000000">AIF181105-02</text>
<text text-anchor="middle" x="1030.7802" y="-190.2" font-family="Times,serif" font-size="14.00" fill="#000000">Pengantar Informatika</text>
</g>
<!-- AIF182308 -->
<g id="node34" class="node">
<title>AIF182308</title>
<polygon fill="none" stroke="#000000" points="672.2708,-268.4019 501.2426,-268.4019 501.2426,-227.1981 672.2708,-227.1981 672.2708,-268.4019"/>
<text text-anchor="middle" x="586.7567" y="-252" font-family="Times,serif" font-size="14.00" fill="#000000">AIF182308-03</text>
<text text-anchor="middle" x="586.7567" y="-235.2" font-family="Times,serif" font-size="14.00" fill="#000000">Pengantar Sistem Informasi</text>
</g>
<!-- AIF181105&#45;&gt;AIF182308 -->
<g id="edge13" class="edge">
<title>AIF181105-&gt;AIF182308</title>
<path fill="none" stroke="#000000" d="M959.9324,-209.9801C884.8783,-217.5866 765.9295,-229.6416 682.5497,-238.0918"/>
<polygon fill="#000000" stroke="#000000" points="682.1592,-234.6133 672.5631,-239.1039 682.8651,-241.5776 682.1592,-234.6133"/>
</g>
<!-- AIF181107 -->
<g id="node12" class="node">
<title>AIF181107</title>
<polygon fill="none" stroke="#000000" points="1672.3602,-223.4019 1545.2128,-223.4019 1545.2128,-182.1981 1672.3602,-182.1981 1672.3602,-223.4019"/>
<text text-anchor="middle" x="1608.7865" y="-207" font-family="Times,serif" font-size="14.00" fill="#000000">AIF181107-03</text>
<text text-anchor="middle" x="1608.7865" y="-190.2" font-family="Times,serif" font-size="14.00" fill="#000000">Matematika Diskret</text>
</g>
<!-- AIF182103 -->
<g id="node23" class="node">
<title>AIF182103</title>
<polygon fill="none" stroke="#000000" points="1474.3897,-86.4019 1368.2029,-86.4019 1368.2029,-45.1981 1474.3897,-45.1981 1474.3897,-86.4019"/>
<text text-anchor="middle" x="1421.2963" y="-70" font-family="Times,serif" font-size="14.00" fill="#000000">AIF182103-04</text>
<text text-anchor="middle" x="1421.2963" y="-53.2" font-family="Times,serif" font-size="14.00" fill="#000000">Struktur Diskret</text>
</g>
<!-- AIF181107&#45;&gt;AIF182103 -->
<g id="edge24" class="edge">
<title>AIF181107-&gt;AIF182103</title>
<path fill="none" stroke="#000000" stroke-dasharray="1,5" d="M1580.3108,-181.9926C1547.5917,-158.0846 1493.8139,-118.7889 1457.9835,-92.6075"/>
<polygon fill="#000000" stroke="#000000" points="1459.8714,-89.6522 1449.7322,-86.5783 1455.7415,-95.3041 1459.8714,-89.6522"/>
</g>
<!-- MKU170130 -->
<g id="node13" class="node">
<title>MKU170130</title>
<polygon fill="none" stroke="#000000" points="1666.5255,-132.4019 1551.8245,-132.4019 1551.8245,-91.1981 1666.5255,-91.1981 1666.5255,-132.4019"/>
<text text-anchor="middle" x="1609.175" y="-116" font-family="Times,serif" font-size="14.00" fill="#000000">MKU170130-02</text>
<text text-anchor="middle" x="1609.175" y="-99.2" font-family="Times,serif" font-size="14.00" fill="#000000">Bahasa Indonesia</text>
</g>
<!-- MKU170110 -->
<g id="node14" class="node">
<title>MKU170110</title>
<polygon fill="none" stroke="#000000" points="1513.295,-314.4019 1330.2346,-314.4019 1330.2346,-273.1981 1513.295,-273.1981 1513.295,-314.4019"/>
<text text-anchor="middle" x="1421.7648" y="-298" font-family="Times,serif" font-size="14.00" fill="#000000">MKU170110-02</text>
<text text-anchor="middle" x="1421.7648" y="-281.2" font-family="Times,serif" font-size="14.00" fill="#000000">Pendidikan Kewarganegaraan</text>
</g>
<!-- MKU170120 -->
<g id="node15" class="node">
<title>MKU170120</title>
<polygon fill="none" stroke="#000000" points="1286.4781,-86.4019 1176.8403,-86.4019 1176.8403,-45.1981 1286.4781,-45.1981 1286.4781,-86.4019"/>
<text text-anchor="middle" x="1231.6592" y="-70" font-family="Times,serif" font-size="14.00" fill="#000000">MKU170120-02</text>
<text text-anchor="middle" x="1231.6592" y="-53.2" font-family="Times,serif" font-size="14.00" fill="#000000">Logika</text>
</g>
<!-- AIF182101 -->
<g id="node22" class="node">
<title>AIF182101</title>
<polygon fill="none" stroke="#000000" points="890.7835,-223.4019 738.0721,-223.4019 738.0721,-182.1981 890.7835,-182.1981 890.7835,-223.4019"/>
<text text-anchor="middle" x="814.4278" y="-207" font-family="Times,serif" font-size="14.00" fill="#000000">AIF182101-03</text>
<text text-anchor="middle" x="814.4278" y="-190.2" font-family="Times,serif" font-size="14.00" fill="#000000">Algoritma Struktur Data</text>
</g>
<!-- AIF181100&#45;&gt;AIF182101 -->
<g id="edge9" class="edge">
<title>AIF181100-&gt;AIF182101</title>
<path fill="none" stroke="#000000" d="M1356.0971,-202.8C1246.2163,-202.8 1024.2135,-202.8 901.2779,-202.8"/>
<polygon fill="#000000" stroke="#000000" points="901.1494,-199.3001 891.1494,-202.8 901.1494,-206.3001 901.1494,-199.3001"/>
</g>
<!-- AIF182105 -->
<g id="node24" class="node">
<title>AIF182105</title>
<polygon fill="none" stroke="#000000" points="1133.238,-314.4019 928.9206,-314.4019 928.9206,-273.1981 1133.238,-273.1981 1133.238,-314.4019"/>
<text text-anchor="middle" x="1031.0793" y="-298" font-family="Times,serif" font-size="14.00" fill="#000000">AIF182105-02</text>
<text text-anchor="middle" x="1031.0793" y="-281.2" font-family="Times,serif" font-size="14.00" fill="#000000">Pemrograman Berorientasi Objek</text>
</g>
<!-- AIF181100&#45;&gt;AIF182105 -->
<g id="edge10" class="edge">
<title>AIF181100-&gt;AIF182105</title>
<path fill="none" stroke="#000000" d="M1356.0149,-218.0314C1294.1545,-232.456 1200.439,-254.3086 1129.523,-270.8449"/>
<polygon fill="#000000" stroke="#000000" points="1128.6173,-267.4621 1119.6734,-273.1416 1130.207,-274.2792 1128.6173,-267.4621"/>
</g>
<!-- AIF181202 -->
<g id="node17" class="node">
<title>AIF181202</title>
<polygon fill="none" stroke="#000000" points="924.1548,-314.4019 703.9484,-314.4019 703.9484,-273.1981 924.1548,-273.1981 924.1548,-314.4019"/>
<text text-anchor="middle" x="814.0516" y="-298" font-family="Times,serif" font-size="14.00" fill="#000000">AIF181202-04</text>
<text text-anchor="middle" x="814.0516" y="-281.2" font-family="Times,serif" font-size="14.00" fill="#000000">Arsitektur dan Organisasi Komputer</text>
</g>
<!-- AIF181104 -->
<g id="node18" class="node">
<title>AIF181104</title>
<polygon fill="none" stroke="#000000" points="418.3611,-177.4019 292.8795,-177.4019 292.8795,-136.1981 418.3611,-136.1981 418.3611,-177.4019"/>
<text text-anchor="middle" x="355.6203" y="-161" font-family="Times,serif" font-size="14.00" fill="#000000">AIF181104-03</text>
<text text-anchor="middle" x="355.6203" y="-144.2" font-family="Times,serif" font-size="14.00" fill="#000000">Logika Informatika</text>
</g>
<!-- AIF183107 -->
<g id="node39" class="node">
<title>AIF183107</title>
<polygon fill="none" stroke="#000000" points="433.9433,-223.4019 278.0189,-223.4019 278.0189,-182.1981 433.9433,-182.1981 433.9433,-223.4019"/>
<text text-anchor="middle" x="355.9811" y="-207" font-family="Times,serif" font-size="14.00" fill="#000000">AIF183107-03</text>
<text text-anchor="middle" x="355.9811" y="-190.2" font-family="Times,serif" font-size="14.00" fill="#000000">Pengantar Sistem Cerdas</text>
</g>
<!-- AIF181104&#45;&gt;AIF183107 -->
<g id="edge33" class="edge">
<title>AIF181104-&gt;AIF183107</title>
<path fill="none" stroke="#000000" stroke-dasharray="1,5" d="M355.7838,-177.6466C355.7845,-177.7357 355.7852,-177.8249 355.7859,-177.9141"/>
<polygon fill="#000000" stroke="#000000" points="352.2389,-171.9645 355.8175,-181.9367 359.2387,-171.9094 352.2389,-171.9645"/>
</g>
<!-- AIF181106 -->
<g id="node19" class="node">
<title>AIF181106</title>
<polygon fill="none" stroke="#000000" points="1691.526,-268.4019 1526.1578,-268.4019 1526.1578,-227.1981 1691.526,-227.1981 1691.526,-268.4019"/>
<text text-anchor="middle" x="1608.8419" y="-252" font-family="Times,serif" font-size="14.00" fill="#000000">AIF181106-03</text>
<text text-anchor="middle" x="1608.8419" y="-235.2" font-family="Times,serif" font-size="14.00" fill="#000000">Matriks dan Ruang Vektor</text>
</g>
<!-- MKU180240 -->
<g id="node20" class="node">
<title>MKU180240</title>
<polygon fill="none" stroke="#000000" points="1085.4781,-86.4019 975.8403,-86.4019 975.8403,-45.1981 1085.4781,-45.1981 1085.4781,-86.4019"/>
<text text-anchor="middle" x="1030.6592" y="-70" font-family="Times,serif" font-size="14.00" fill="#000000">MKU180240-02</text>
<text text-anchor="middle" x="1030.6592" y="-53.2" font-family="Times,serif" font-size="14.00" fill="#000000">Etika</text>
</g>
<!-- MKU180360 -->
<g id="node21" class="node">
<title>MKU180360</title>
<polygon fill="none" stroke="#000000" points="869.4781,-86.4019 759.8403,-86.4019 759.8403,-45.1981 869.4781,-45.1981 869.4781,-86.4019"/>
<text text-anchor="middle" x="814.6592" y="-70" font-family="Times,serif" font-size="14.00" fill="#000000">MKU180360-02</text>
<text text-anchor="middle" x="814.6592" y="-53.2" font-family="Times,serif" font-size="14.00" fill="#000000">Estetika</text>
</g>
<!-- AIF182302 -->
<g id="node31" class="node">
<title>AIF182302</title>
<polygon fill="none" stroke="#000000" points="469.7181,-314.4019 241.7603,-314.4019 241.7603,-273.1981 469.7181,-273.1981 469.7181,-314.4019"/>
<text text-anchor="middle" x="355.7392" y="-298" font-family="Times,serif" font-size="14.00" fill="#000000">AIF182302-04</text>
<text text-anchor="middle" x="355.7392" y="-281.2" font-family="Times,serif" font-size="14.00" fill="#000000">Manajemen Informasi dan Basis Data</text>
</g>
<!-- AIF182101&#45;&gt;AIF182302 -->
<g id="edge25" class="edge">
<title>AIF182101-&gt;AIF182302</title>
<path fill="none" stroke="#000000" stroke-dasharray="1,5" d="M737.9119,-217.9801C664.7991,-232.4851 553.6573,-254.5347 470.0441,-271.1229"/>
<polygon fill="#000000" stroke="#000000" points="469.116,-267.7387 459.9883,-273.1179 470.4782,-274.6049 469.116,-267.7387"/>
</g>
<!-- AIF182106 -->
<g id="node33" class="node">
<title>AIF182106</title>
<polygon fill="none" stroke="#000000" points="1326.018,-314.4019 1136.994,-314.4019 1136.994,-273.1981 1326.018,-273.1981 1326.018,-314.4019"/>
<text text-anchor="middle" x="1231.506" y="-298" font-family="Times,serif" font-size="14.00" fill="#000000">AIF182106-03</text>
<text text-anchor="middle" x="1231.506" y="-281.2" font-family="Times,serif" font-size="14.00" fill="#000000">Desain dan Analisis Algoritma</text>
</g>
<!-- AIF182101&#45;&gt;AIF182106 -->
<g id="edge12" class="edge">
<title>AIF182101-&gt;AIF182106</title>
<path fill="none" stroke="#000000" d="M890.9264,-219.4908C957.0727,-233.9229 1053.3276,-254.9242 1126.6479,-270.9216"/>
<polygon fill="#000000" stroke="#000000" points="1126.3197,-274.4323 1136.836,-273.1445 1127.8119,-267.5931 1126.3197,-274.4323"/>
</g>
<!-- AIF183201 -->
<g id="node36" class="node">
<title>AIF183201</title>
<polygon fill="none" stroke="#000000" points="1659.2179,-86.4019 1557.9273,-86.4019 1557.9273,-45.1981 1659.2179,-45.1981 1659.2179,-86.4019"/>
<text text-anchor="middle" x="1608.5726" y="-70" font-family="Times,serif" font-size="14.00" fill="#000000">AIF183201-03</text>
<text text-anchor="middle" x="1608.5726" y="-53.2" font-family="Times,serif" font-size="14.00" fill="#000000">Sistem Operasi</text>
</g>
<!-- AIF182101&#45;&gt;AIF183201 -->
<g id="edge29" class="edge">
<title>AIF182101-&gt;AIF183201</title>
<path fill="none" stroke="#000000" stroke-dasharray="1,5" d="M890.9342,-189.6017C1048.2901,-162.4558 1405.3903,-100.8515 1548.0466,-76.2415"/>
<polygon fill="#000000" stroke="#000000" points="1548.6822,-79.6836 1557.9416,-74.5345 1547.4921,-72.7855 1548.6822,-79.6836"/>
</g>
<!-- AIF182103&#45;&gt;AIF182106 -->
<g id="edge27" class="edge">
<title>AIF182103-&gt;AIF182106</title>
<path fill="none" stroke="#000000" stroke-dasharray="1,5" d="M1404.1189,-86.4356C1370.1177,-127.2821 1294.1792,-218.509 1255.3558,-265.1486"/>
<polygon fill="#000000" stroke="#000000" points="1252.489,-263.1218 1248.7813,-273.0468 1257.869,-267.6002 1252.489,-263.1218"/>
</g>
<!-- AIF182100 -->
<g id="node30" class="node">
<title>AIF182100</title>
<polygon fill="none" stroke="#000000" points="700.5691,-314.4019 474.1435,-314.4019 474.1435,-273.1981 700.5691,-273.1981 700.5691,-314.4019"/>
<text text-anchor="middle" x="587.3563" y="-298" font-family="Times,serif" font-size="14.00" fill="#000000">AIF182100-04</text>
<text text-anchor="middle" x="587.3563" y="-281.2" font-family="Times,serif" font-size="14.00" fill="#000000">Analisis dan Desain Perangkat Lunak</text>
</g>
<!-- AIF182105&#45;&gt;AIF182100 -->
<g id="edge11" class="edge">
<title>AIF182105-&gt;AIF182100</title>
<path fill="none" stroke="#000000" d="M928.7231,-293.8C863.8339,-293.8 779.5045,-293.8 710.8986,-293.8"/>
<polygon fill="#000000" stroke="#000000" points="710.8947,-290.3001 700.8946,-293.8 710.8946,-297.3001 710.8947,-290.3001"/>
</g>
<!-- AIF182007 -->
<g id="node25" class="node">
<title>AIF182007</title>
<polygon fill="none" stroke="#000000" points="1479.8728,-132.4019 1364.0424,-132.4019 1364.0424,-91.1981 1479.8728,-91.1981 1479.8728,-132.4019"/>
<text text-anchor="middle" x="1421.9576" y="-116" font-family="Times,serif" font-size="14.00" fill="#000000">AIF182007-02</text>
<text text-anchor="middle" x="1421.9576" y="-99.2" font-family="Times,serif" font-size="14.00" fill="#000000">Teknik Presentasi</text>
</g>
<!-- AIF184001 -->
<g id="node47" class="node">
<title>AIF184001</title>
<polygon fill="none" stroke="#000000" points="168.3158,-41.4019 68.8946,-41.4019 68.8946,-.1981 168.3158,-.1981 168.3158,-41.4019"/>
<text text-anchor="middle" x="118.6052" y="-25" font-family="Times,serif" font-size="14.00" fill="#000000">AIF184001-03</text>
<text text-anchor="middle" x="118.6052" y="-8.2" font-family="Times,serif" font-size="14.00" fill="#000000">Skripsi 1</text>
</g>
<!-- AIF182007&#45;&gt;AIF184001 -->
<g id="edge17" class="edge">
<title>AIF182007-&gt;AIF184001</title>
<path fill="none" stroke="#000000" d="M1363.8485,-107.7428C1148.4286,-92.7022 396.6388,-40.2123 178.4174,-24.9761"/>
<polygon fill="#000000" stroke="#000000" points="178.653,-21.4841 168.4335,-24.279 178.1654,-28.4671 178.653,-21.4841"/>
</g>
<!-- AIF184002 -->
<g id="node51" class="node">
<title>AIF184002</title>
<polygon fill="none" stroke="#000000" points="636.3158,-41.4019 536.8946,-41.4019 536.8946,-.1981 636.3158,-.1981 636.3158,-41.4019"/>
<text text-anchor="middle" x="586.6052" y="-25" font-family="Times,serif" font-size="14.00" fill="#000000">AIF184002-05</text>
<text text-anchor="middle" x="586.6052" y="-8.2" font-family="Times,serif" font-size="14.00" fill="#000000">Skripsi 2</text>
</g>
<!-- AIF182007&#45;&gt;AIF184002 -->
<g id="edge21" class="edge">
<title>AIF182007-&gt;AIF184002</title>
<path fill="none" stroke="#000000" d="M1363.8805,-105.4733C1211.4289,-88.8658 800.9658,-44.1516 646.4929,-27.3239"/>
<polygon fill="#000000" stroke="#000000" points="646.5768,-23.8124 636.2566,-26.2088 645.8187,-30.7713 646.5768,-23.8124"/>
</g>
<!-- AIF184004 -->
<g id="node52" class="node">
<title>AIF184004</title>
<polygon fill="none" stroke="#000000" points="864.3158,-41.4019 764.8946,-41.4019 764.8946,-.1981 864.3158,-.1981 864.3158,-41.4019"/>
<text text-anchor="middle" x="814.6052" y="-25" font-family="Times,serif" font-size="14.00" fill="#000000">AIF184004-08</text>
<text text-anchor="middle" x="814.6052" y="-8.2" font-family="Times,serif" font-size="14.00" fill="#000000">Tugas Akhir</text>
</g>
<!-- AIF182007&#45;&gt;AIF184004 -->
<g id="edge23" class="edge">
<title>AIF182007-&gt;AIF184004</title>
<path fill="none" stroke="#000000" d="M1363.9972,-103.1158C1248.7258,-85.8446 991.7551,-47.3425 874.7323,-29.8089"/>
<polygon fill="#000000" stroke="#000000" points="874.9351,-26.3003 864.5269,-28.2798 873.8978,-33.223 874.9351,-26.3003"/>
</g>
<!-- AIF182109 -->
<g id="node26" class="node">
<title>AIF182109</title>
<polygon fill="none" stroke="#000000" points="898.657,-268.4019 729.7806,-268.4019 729.7806,-227.1981 898.657,-227.1981 898.657,-268.4019"/>
<text text-anchor="middle" x="814.2188" y="-252" font-family="Times,serif" font-size="14.00" fill="#000000">AIF182109-03</text>
<text text-anchor="middle" x="814.2188" y="-235.2" font-family="Times,serif" font-size="14.00" fill="#000000">Statistika untuk Komputasi</text>
</g>
<!-- MKU180370 -->
<g id="node27" class="node">
<title>MKU180370</title>
<polygon fill="none" stroke="#000000" points="641.4781,-86.4019 531.8403,-86.4019 531.8403,-45.1981 641.4781,-45.1981 641.4781,-86.4019"/>
<text text-anchor="middle" x="586.6592" y="-70" font-family="Times,serif" font-size="14.00" fill="#000000">MKU180370-02</text>
<text text-anchor="middle" x="586.6592" y="-53.2" font-family="Times,serif" font-size="14.00" fill="#000000">Agama Katolik</text>
</g>
<!-- MKU180380 -->
<g id="node28" class="node">
<title>MKU180380</title>
<polygon fill="none" stroke="#000000" points="1090.7152,-177.4019 971.0948,-177.4019 971.0948,-136.1981 1090.7152,-136.1981 1090.7152,-177.4019"/>
<text text-anchor="middle" x="1030.905" y="-161" font-family="Times,serif" font-size="14.00" fill="#000000">MKU180380-02</text>
<text text-anchor="middle" x="1030.905" y="-144.2" font-family="Times,serif" font-size="14.00" fill="#000000">Fenomena Katolik</text>
</g>
<!-- MKU180250 -->
<g id="node29" class="node">
<title>MKU180250</title>
<polygon fill="none" stroke="#000000" points="410.4781,-86.4019 300.8403,-86.4019 300.8403,-45.1981 410.4781,-45.1981 410.4781,-86.4019"/>
<text text-anchor="middle" x="355.6592" y="-70" font-family="Times,serif" font-size="14.00" fill="#000000">MKU180250-02</text>
<text text-anchor="middle" x="355.6592" y="-53.2" font-family="Times,serif" font-size="14.00" fill="#000000">Pancasila</text>
</g>
<!-- AIF183303 -->
<g id="node37" class="node">
<title>AIF183303</title>
<polygon fill="none" stroke="#000000" points="1114.577,-268.4019 945.8074,-268.4019 945.8074,-227.1981 1114.577,-227.1981 1114.577,-268.4019"/>
<text text-anchor="middle" x="1030.1922" y="-252" font-family="Times,serif" font-size="14.00" fill="#000000">AIF183303-03</text>
<text text-anchor="middle" x="1030.1922" y="-235.2" font-family="Times,serif" font-size="14.00" fill="#000000">Rekayasa Perangkat Lunak</text>
</g>
<!-- AIF182100&#45;&gt;AIF183303 -->
<g id="edge30" class="edge">
<title>AIF182100-&gt;AIF183303</title>
<path fill="none" stroke="#000000" stroke-dasharray="1,5" d="M700.8225,-282.0136C773.6088,-274.4528 867.0011,-264.7516 935.7374,-257.6116"/>
<polygon fill="#000000" stroke="#000000" points="936.1097,-261.0918 945.6946,-256.5773 935.3864,-254.1293 936.1097,-261.0918"/>
</g>
<!-- AIF183209 -->
<g id="node40" class="node">
<title>AIF183209</title>
<polygon fill="none" stroke="#000000" points="238.6059,-314.4019 .1313,-314.4019 .1313,-273.1981 238.6059,-273.1981 238.6059,-314.4019"/>
<text text-anchor="middle" x="119.3686" y="-298" font-family="Times,serif" font-size="14.00" fill="#000000">AIF183209-03</text>
<text text-anchor="middle" x="119.3686" y="-281.2" font-family="Times,serif" font-size="14.00" fill="#000000">Pemrograman pada Perangkat Bergerak</text>
</g>
<!-- AIF182100&#45;&gt;AIF183209 -->
<g id="edge34" class="edge">
<title>AIF182100-&gt;AIF183209</title>
<path fill="none" stroke="#000000" stroke-dasharray="1,5" d="M474.0695,-293.8C406.2597,-293.8 319.8259,-293.8 249.2587,-293.8"/>
<polygon fill="#000000" stroke="#000000" points="248.9664,-290.3001 238.9663,-293.8 248.9663,-297.3001 248.9664,-290.3001"/>
</g>
<!-- AIF182204 -->
<g id="node32" class="node">
<title>AIF182204</title>
<polygon fill="none" stroke="#000000" points="444.2464,-268.4019 267.9178,-268.4019 267.9178,-227.1981 444.2464,-227.1981 444.2464,-268.4019"/>
<text text-anchor="middle" x="356.0821" y="-252" font-family="Times,serif" font-size="14.00" fill="#000000">AIF182204-03</text>
<text text-anchor="middle" x="356.0821" y="-235.2" font-family="Times,serif" font-size="14.00" fill="#000000">Pemrograman Berbasis Web</text>
</g>
<!-- AIF182302&#45;&gt;AIF182204 -->
<g id="edge26" class="edge">
<title>AIF182302-&gt;AIF182204</title>
<path fill="none" stroke="#000000" stroke-dasharray="1,5" d="M355.8946,-272.9534C355.8953,-272.8643 355.8959,-272.7751 355.8966,-272.6859"/>
<polygon fill="#000000" stroke="#000000" points="359.3517,-278.6892 355.9266,-268.6633 352.3519,-278.6369 359.3517,-278.6892"/>
</g>
<!-- AIF182302&#45;&gt;AIF182308 -->
<g id="edge28" class="edge">
<title>AIF182302-&gt;AIF182308</title>
<path fill="none" stroke="#000000" stroke-dasharray="1,5" d="M459.4222,-273.1547C469.9665,-271.0552 480.6437,-268.9291 491.0972,-266.8476"/>
<polygon fill="#000000" stroke="#000000" points="491.9156,-270.2535 501.0395,-264.8679 490.5485,-263.3882 491.9156,-270.2535"/>
</g>
<!-- AIF183300 -->
<g id="node42" class="node">
<title>AIF183300</title>
<polygon fill="none" stroke="#000000" points="1300.459,-223.4019 1162.8468,-223.4019 1162.8468,-182.1981 1300.459,-182.1981 1300.459,-223.4019"/>
<text text-anchor="middle" x="1231.6529" y="-207" font-family="Times,serif" font-size="14.00" fill="#000000">AIF183300-02</text>
<text text-anchor="middle" x="1231.6529" y="-190.2" font-family="Times,serif" font-size="14.00" fill="#000000">Teknologi Basis Data</text>
</g>
<!-- AIF182302&#45;&gt;AIF183300 -->
<g id="edge14" class="edge">
<title>AIF182302-&gt;AIF183300</title>
<path fill="none" stroke="#000000" d="M469.8003,-281.95C650.3491,-263.1925 997.4039,-227.1365 1152.9096,-210.9808"/>
<polygon fill="#000000" stroke="#000000" points="1153.2869,-214.4605 1162.8717,-209.9458 1152.5635,-207.498 1153.2869,-214.4605"/>
</g>
<!-- AIF182106&#45;&gt;AIF183107 -->
<g id="edge32" class="edge">
<title>AIF182106-&gt;AIF183107</title>
<path fill="none" stroke="#000000" stroke-dasharray="1,5" d="M1136.9776,-283.9749C966.5516,-266.2613 610.1277,-229.2154 444.3219,-211.9819"/>
<polygon fill="#000000" stroke="#000000" points="444.4698,-208.4785 434.1615,-210.9259 443.7461,-215.441 444.4698,-208.4785"/>
</g>
<!-- AIF183308 -->
<g id="node46" class="node">
<title>AIF183308</title>
<polygon fill="none" stroke="#000000" points="1313.5407,-268.4019 1148.1529,-268.4019 1148.1529,-227.1981 1313.5407,-227.1981 1313.5407,-268.4019"/>
<text text-anchor="middle" x="1230.8468" y="-252" font-family="Times,serif" font-size="14.00" fill="#000000">AIF183308-03</text>
<text text-anchor="middle" x="1230.8468" y="-235.2" font-family="Times,serif" font-size="14.00" fill="#000000">Proyek Sistem Informasi 1</text>
</g>
<!-- AIF182308&#45;&gt;AIF183308 -->
<g id="edge15" class="edge">
<title>AIF182308-&gt;AIF183308</title>
<path fill="none" stroke="#000000" d="M672.2869,-247.8C793.108,-247.8 1012.9138,-247.8 1137.729,-247.8"/>
<polygon fill="#000000" stroke="#000000" points="1138.0261,-251.3001 1148.026,-247.8 1138.026,-244.3001 1138.0261,-251.3001"/>
</g>
<!-- AIF182210 -->
<g id="node35" class="node">
<title>AIF182210</title>
<polygon fill="none" stroke="#000000" points="1700.2485,-314.4019 1516.9171,-314.4019 1516.9171,-273.1981 1700.2485,-273.1981 1700.2485,-314.4019"/>
<text text-anchor="middle" x="1608.5828" y="-298" font-family="Times,serif" font-size="14.00" fill="#000000">AIF182210-02</text>
<text text-anchor="middle" x="1608.5828" y="-281.2" font-family="Times,serif" font-size="14.00" fill="#000000">Pengantar Jaringan Komputer</text>
</g>
<!-- AIF182210&#45;&gt;AIF183209 -->
<g id="edge35" class="edge">
<title>AIF182210-&gt;AIF183209</title>
<path fill="none" stroke="#000000" stroke-dasharray="1,5" d="M1516.8297,-293.8C1261.9438,-293.8 544.6496,-293.8 249.1186,-293.8"/>
<polygon fill="#000000" stroke="#000000" points="248.785,-290.3001 238.785,-293.8 248.7849,-297.3001 248.785,-290.3001"/>
</g>
<!-- AIF183204 -->
<g id="node44" class="node">
<title>AIF183204</title>
<polygon fill="none" stroke="#000000" points="876.5324,-177.4019 753.1556,-177.4019 753.1556,-136.1981 876.5324,-136.1981 876.5324,-177.4019"/>
<text text-anchor="middle" x="814.844" y="-161" font-family="Times,serif" font-size="14.00" fill="#000000">AIF183204-02</text>
<text text-anchor="middle" x="814.844" y="-144.2" font-family="Times,serif" font-size="14.00" fill="#000000">Jaringan Komputer</text>
</g>
<!-- AIF182210&#45;&gt;AIF183204 -->
<g id="edge36" class="edge">
<title>AIF182210-&gt;AIF183204</title>
<path fill="none" stroke="#000000" stroke-dasharray="1,5" d="M1516.7555,-277.9505C1357.0506,-250.3853 1031.3931,-194.1766 886.7908,-169.2181"/>
<polygon fill="#000000" stroke="#000000" points="887.1467,-165.7278 876.6971,-167.4759 885.9561,-172.6258 887.1467,-165.7278"/>
</g>
<!-- AIF183305 -->
<g id="node38" class="node">
<title>AIF183305</title>
<polygon fill="none" stroke="#000000" points="181.3632,-177.4019 55.8788,-177.4019 55.8788,-136.1981 181.3632,-136.1981 181.3632,-177.4019"/>
<text text-anchor="middle" x="118.621" y="-161" font-family="Times,serif" font-size="14.00" fill="#000000">AIF183305-02</text>
<text text-anchor="middle" x="118.621" y="-144.2" font-family="Times,serif" font-size="14.00" fill="#000000">Manajemen Proyek</text>
</g>
<!-- AIF183303&#45;&gt;AIF183305 -->
<g id="edge31" class="edge">
<title>AIF183303-&gt;AIF183305</title>
<path fill="none" stroke="#000000" stroke-dasharray="1,5" d="M945.6605,-239.3614C767.9763,-221.6236 358.4129,-180.7379 191.4591,-164.0713"/>
<polygon fill="#000000" stroke="#000000" points="191.5942,-160.5674 181.2959,-163.0567 190.8988,-167.5328 191.5942,-160.5674"/>
</g>
<!-- AIF183106 -->
<g id="node45" class="node">
<title>AIF183106</title>
<polygon fill="none" stroke="#000000" points="649.3611,-177.4019 523.8795,-177.4019 523.8795,-136.1981 649.3611,-136.1981 649.3611,-177.4019"/>
<text text-anchor="middle" x="586.6203" y="-161" font-family="Times,serif" font-size="14.00" fill="#000000">AIF183106-06</text>
<text text-anchor="middle" x="586.6203" y="-144.2" font-family="Times,serif" font-size="14.00" fill="#000000">Proyek Informatika</text>
</g>
<!-- AIF183303&#45;&gt;AIF183106 -->
<g id="edge37" class="edge">
<title>AIF183303-&gt;AIF183106</title>
<path fill="none" stroke="#000000" stroke-dasharray="1,5" d="M945.9771,-230.523C863.0872,-213.518 737.8269,-187.8205 659.2075,-171.6915"/>
<polygon fill="#000000" stroke="#000000" points="659.8822,-168.2571 649.3828,-169.6759 658.4754,-175.1143 659.8822,-168.2571"/>
</g>
<!-- AIF183305&#45;&gt;AIF183106 -->
<g id="edge38" class="edge">
<title>AIF183305-&gt;AIF183106</title>
<path fill="none" stroke="#000000" stroke-dasharray="1,5" d="M181.2519,-156.8C267.4709,-156.8 422.4,-156.8 513.7198,-156.8"/>
<polygon fill="#000000" stroke="#000000" points="513.9871,-160.3001 523.9871,-156.8 513.987,-153.3001 513.9871,-160.3001"/>
</g>
<!-- AIF183305&#45;&gt;AIF183308 -->
<g id="edge39" class="edge">
<title>AIF183305-&gt;AIF183308</title>
<path fill="none" stroke="#000000" stroke-dasharray="1,5" d="M181.6058,-161.9533C367.9779,-177.2019 917.435,-222.1573 1137.8293,-240.1895"/>
<polygon fill="#000000" stroke="#000000" points="1137.8206,-243.7004 1148.0728,-241.0276 1138.3915,-236.7237 1137.8206,-243.7004"/>
</g>
<!-- AIF183111 -->
<g id="node41" class="node">
<title>AIF183111</title>
<polygon fill="none" stroke="#000000" points="206.9223,-268.4019 30.0259,-268.4019 30.0259,-227.1981 206.9223,-227.1981 206.9223,-268.4019"/>
<text text-anchor="middle" x="118.4741" y="-252" font-family="Times,serif" font-size="14.00" fill="#000000">AIF183111-03</text>
<text text-anchor="middle" x="118.4741" y="-235.2" font-family="Times,serif" font-size="14.00" fill="#000000">Interaksi Manusia Komputer</text>
</g>
<!-- AIF183002 -->
<g id="node43" class="node">
<title>AIF183002</title>
<polygon fill="none" stroke="#000000" points="174.728,-86.4019 63.7566,-86.4019 63.7566,-45.1981 174.728,-45.1981 174.728,-86.4019"/>
<text text-anchor="middle" x="119.2423" y="-70" font-family="Times,serif" font-size="14.00" fill="#000000">AIF183002-02</text>
<text text-anchor="middle" x="119.2423" y="-53.2" font-family="Times,serif" font-size="14.00" fill="#000000">Penulisan Ilmiah</text>
</g>
<!-- AIF183002&#45;&gt;AIF184001 -->
<g id="edge16" class="edge">
<title>AIF183002-&gt;AIF184001</title>
<path fill="none" stroke="#000000" d="M118.9499,-45.1439C118.9477,-44.9937 118.9456,-44.8434 118.9435,-44.693"/>
<polygon fill="#000000" stroke="#000000" points="122.5402,-51.4815 118.8987,-41.5321 115.5409,-51.5808 122.5402,-51.4815"/>
</g>
<!-- AIF183002&#45;&gt;AIF184002 -->
<g id="edge19" class="edge">
<title>AIF183002-&gt;AIF184002</title>
<path fill="none" stroke="#000000" d="M174.6903,-60.4612C263.1631,-51.9426 435.5549,-35.3439 526.7364,-26.5645"/>
<polygon fill="#000000" stroke="#000000" points="527.2889,-30.0275 536.9074,-25.5852 526.6179,-23.0598 527.2889,-30.0275"/>
</g>
<!-- AIF183002&#45;&gt;AIF184004 -->
<g id="edge22" class="edge">
<title>AIF183002-&gt;AIF184004</title>
<path fill="none" stroke="#000000" d="M174.6791,-62.2124C303.4055,-53.882 621.6887,-33.2845 754.6904,-24.6774"/>
<polygon fill="#000000" stroke="#000000" points="754.9483,-28.1681 764.7014,-24.0295 754.4962,-21.1827 754.9483,-28.1681"/>
</g>
<!-- AIF184303 -->
<g id="node48" class="node">
<title>AIF184303</title>
<polygon fill="none" stroke="#000000" points="1504.5407,-268.4019 1339.1529,-268.4019 1339.1529,-227.1981 1504.5407,-227.1981 1504.5407,-268.4019"/>
<text text-anchor="middle" x="1421.8468" y="-252" font-family="Times,serif" font-size="14.00" fill="#000000">AIF184303-03</text>
<text text-anchor="middle" x="1421.8468" y="-235.2" font-family="Times,serif" font-size="14.00" fill="#000000">Proyek Sistem Informasi 2</text>
</g>
<!-- AIF183308&#45;&gt;AIF184303 -->
<g id="edge18" class="edge">
<title>AIF183308-&gt;AIF184303</title>
<path fill="none" stroke="#000000" d="M1313.7889,-247.8C1318.7503,-247.8 1323.7577,-247.8 1328.7563,-247.8"/>
<polygon fill="#000000" stroke="#000000" points="1328.9866,-251.3001 1338.9866,-247.8 1328.9866,-244.3001 1328.9866,-251.3001"/>
</g>
<!-- AIF184001&#45;&gt;AIF184002 -->
<g id="edge20" class="edge">
<title>AIF184001-&gt;AIF184002</title>
<path fill="none" stroke="#000000" d="M168.2463,-20.8C254.8629,-20.8 433.258,-20.8 526.6351,-20.8"/>
<polygon fill="#000000" stroke="#000000" points="526.7687,-24.3001 536.7687,-20.8 526.7687,-17.3001 526.7687,-24.3001"/>
</g>
<!-- AIF184005 -->
<g id="node49" class="node">
<title>AIF184005</title>
<polygon fill="none" stroke="#000000" points="201.4148,-223.4019 35.8616,-223.4019 35.8616,-182.1981 201.4148,-182.1981 201.4148,-223.4019"/>
<text text-anchor="middle" x="118.6382" y="-207" font-family="Times,serif" font-size="14.00" fill="#000000">AIF184005-02</text>
<text text-anchor="middle" x="118.6382" y="-190.2" font-family="Times,serif" font-size="14.00" fill="#000000">Komputer dan Masyarakat</text>
</g>
<!-- AIF184000 -->
<g id="node50" class="node">
<title>AIF184000</title>
<polygon fill="none" stroke="#000000" points="405.3158,-41.4019 305.8946,-41.4019 305.8946,-.1981 405.3158,-.1981 405.3158,-41.4019"/>
<text text-anchor="middle" x="355.6052" y="-25" font-family="Times,serif" font-size="14.00" fill="#000000">AIF184000-02</text>
<text text-anchor="middle" x="355.6052" y="-8.2" font-family="Times,serif" font-size="14.00" fill="#000000">Etika Profesi</text>
</g>
</g>
</svg>