<?xml version="1.0" encoding="UTF-8" standalone="no"?>
<!DOCTYPE svg PUBLIC "-//W3C//DTD SVG 1.1//EN" "http://www.w3.org/Graphics/SVG/1.1/DTD/svg11.dtd">
<!-- Generated by graphviz version 2.40.1 (20161225.0304)
 -->
<!-- Title: G Pages: 1 -->
<svg width="398pt" height="576pt" viewBox="0.00 0.00 397.70 576.00" xmlns="http://www.w3.org/2000/svg" xmlns:xlink="http://www.w3.org/1999/xlink">
<g id="graph0" class="graph" transform="scale(.3669 .3669) rotate(0) translate(4 1566.0333)">
<title>G</title>
<polygon fill="#ffffff" stroke="transparent" points="-4,4 -4,-1566.0333 1080.0188,-1566.0333 1080.0188,4 -4,4"/>
<!-- Semester 1 -->
<g id="node1" class="node">
<title>Semester 1</title>
<ellipse fill="none" stroke="#000000" cx="565.1765" cy="-887.6" rx="61.0329" ry="19.4695"/>
<text text-anchor="middle" x="565.1765" y="-882.8" font-family="Times,serif" font-size="16.00" fill="#000000">Semester 1</text>
</g>
<!-- Semester 2 -->
<g id="node2" class="node">
<title>Semester 2</title>
<ellipse fill="none" stroke="#000000" cx="565.1765" cy="-981.2" rx="61.0329" ry="19.4695"/>
<text text-anchor="middle" x="565.1765" y="-976.4" font-family="Times,serif" font-size="16.00" fill="#000000">Semester 2</text>
</g>
<!-- Semester 1&#45;&gt;Semester 2 -->
<g id="edge1" class="edge">
<title>Semester 1-&gt;Semester 2</title>
<path fill="none" stroke="#000000" d="M565.1765,-906.994C565.1765,-919.9205 565.1765,-937.1541 565.1765,-951.7595"/>
<polygon fill="#000000" stroke="#000000" points="561.6766,-951.8308 565.1765,-961.8309 568.6766,-951.8309 561.6766,-951.8308"/>
</g>
<!-- Semester 3 -->
<g id="node3" class="node">
<title>Semester 3</title>
<ellipse fill="none" stroke="#000000" cx="565.1765" cy="-1074.8" rx="61.0329" ry="19.4695"/>
<text text-anchor="middle" x="565.1765" y="-1070" font-family="Times,serif" font-size="16.00" fill="#000000">Semester 3</text>
</g>
<!-- Semester 2&#45;&gt;Semester 3 -->
<g id="edge2" class="edge">
<title>Semester 2-&gt;Semester 3</title>
<path fill="none" stroke="#000000" d="M565.1765,-1000.594C565.1765,-1013.5205 565.1765,-1030.7541 565.1765,-1045.3595"/>
<polygon fill="#000000" stroke="#000000" points="561.6766,-1045.4308 565.1765,-1055.4309 568.6766,-1045.4309 561.6766,-1045.4308"/>
</g>
<!-- Semester 4 -->
<g id="node4" class="node">
<title>Semester 4</title>
<ellipse fill="none" stroke="#000000" cx="565.1765" cy="-1168.4" rx="61.0329" ry="19.4695"/>
<text text-anchor="middle" x="565.1765" y="-1163.6" font-family="Times,serif" font-size="16.00" fill="#000000">Semester 4</text>
</g>
<!-- Semester 3&#45;&gt;Semester 4 -->
<g id="edge3" class="edge">
<title>Semester 3-&gt;Semester 4</title>
<path fill="none" stroke="#000000" d="M565.1765,-1094.194C565.1765,-1107.1205 565.1765,-1124.3541 565.1765,-1138.9595"/>
<polygon fill="#000000" stroke="#000000" points="561.6766,-1139.0308 565.1765,-1149.0309 568.6766,-1139.0309 561.6766,-1139.0308"/>
</g>
<!-- Semester 5 -->
<g id="node5" class="node">
<title>Semester 5</title>
<ellipse fill="none" stroke="#000000" cx="565.1765" cy="-1262" rx="61.0329" ry="19.4695"/>
<text text-anchor="middle" x="565.1765" y="-1257.2" font-family="Times,serif" font-size="16.00" fill="#000000">Semester 5</text>
</g>
<!-- Semester 4&#45;&gt;Semester 5 -->
<g id="edge4" class="edge">
<title>Semester 4-&gt;Semester 5</title>
<path fill="none" stroke="#000000" d="M565.1765,-1187.794C565.1765,-1200.7205 565.1765,-1217.9541 565.1765,-1232.5595"/>
<polygon fill="#000000" stroke="#000000" points="561.6766,-1232.6308 565.1765,-1242.6309 568.6766,-1232.6309 561.6766,-1232.6308"/>
</g>
<!-- Semester 6 -->
<g id="node6" class="node">
<title>Semester 6</title>
<ellipse fill="none" stroke="#000000" cx="565.1765" cy="-1355.6" rx="61.0329" ry="19.4695"/>
<text text-anchor="middle" x="565.1765" y="-1350.8" font-family="Times,serif" font-size="16.00" fill="#000000">Semester 6</text>
</g>
<!-- Semester 5&#45;&gt;Semester 6 -->
<g id="edge5" class="edge">
<title>Semester 5-&gt;Semester 6</title>
<path fill="none" stroke="#000000" d="M565.1765,-1281.394C565.1765,-1294.3205 565.1765,-1311.5541 565.1765,-1326.1595"/>
<polygon fill="#000000" stroke="#000000" points="561.6766,-1326.2308 565.1765,-1336.2309 568.6766,-1326.2309 561.6766,-1326.2308"/>
</g>
<!-- Semester 7 -->
<g id="node7" class="node">
<title>Semester 7</title>
<ellipse fill="none" stroke="#000000" cx="565.1765" cy="-1449.2" rx="61.0329" ry="19.4695"/>
<text text-anchor="middle" x="565.1765" y="-1444.4" font-family="Times,serif" font-size="16.00" fill="#000000">Semester 7</text>
</g>
<!-- Semester 6&#45;&gt;Semester 7 -->
<g id="edge6" class="edge">
<title>Semester 6-&gt;Semester 7</title>
<path fill="none" stroke="#000000" d="M565.1765,-1374.994C565.1765,-1387.9205 565.1765,-1405.1541 565.1765,-1419.7595"/>
<polygon fill="#000000" stroke="#000000" points="561.6766,-1419.8308 565.1765,-1429.8309 568.6766,-1419.8309 561.6766,-1419.8308"/>
</g>
<!-- Semester 8 -->
<g id="node8" class="node">
<title>Semester 8</title>
<ellipse fill="none" stroke="#000000" cx="565.1765" cy="-1542.8" rx="61.0329" ry="19.4695"/>
<text text-anchor="middle" x="565.1765" y="-1538" font-family="Times,serif" font-size="16.00" fill="#000000">Semester 8</text>
</g>
<!-- Semester 7&#45;&gt;Semester 8 -->
<g id="edge7" class="edge">
<title>Semester 7-&gt;Semester 8</title>
<path fill="none" stroke="#000000" d="M565.1765,-1468.594C565.1765,-1481.5205 565.1765,-1498.7541 565.1765,-1513.3595"/>
<polygon fill="#000000" stroke="#000000" points="561.6766,-1513.4308 565.1765,-1523.4309 568.6766,-1513.4309 561.6766,-1513.4308"/>
</g>
<!-- AIF181101 -->
<g id="node9" class="node">
<title>AIF181101</title>
<polygon fill="none" stroke="#000000" points="877.2858,-516.2299 723.1806,-516.2299 723.1806,-475.0261 877.2858,-475.0261 877.2858,-516.2299"/>
<text text-anchor="middle" x="800.2332" y="-499.828" font-family="Times,serif" font-size="14.00" fill="#000000">AIF181101-03</text>
<text text-anchor="middle" x="800.2332" y="-483.028" font-family="Times,serif" font-size="14.00" fill="#000000">Computational Thinking</text>
</g>
<!-- AIF181100 -->
<g id="node16" class="node">
<title>AIF181100</title>
<polygon fill="none" stroke="#000000" points="540.4988,-424.9641 410.1584,-424.9641 410.1584,-383.7603 540.4988,-383.7603 540.4988,-424.9641"/>
<text text-anchor="middle" x="475.3286" y="-408.5622" font-family="Times,serif" font-size="14.00" fill="#000000">AIF181100-04</text>
<text text-anchor="middle" x="475.3286" y="-391.7622" font-family="Times,serif" font-size="14.00" fill="#000000">Dasar Pemrograman</text>
</g>
<!-- AIF181101&#45;&gt;AIF181100 -->
<g id="edge8" class="edge">
<title>AIF181101-&gt;AIF181100</title>
<path fill="none" stroke="#000000" d="M726.5073,-474.9184C673.8064,-460.1147 603.1348,-440.263 550.1804,-425.3881"/>
<polygon fill="#000000" stroke="#000000" points="551.0811,-422.0057 540.5072,-422.6709 549.188,-428.7449 551.0811,-422.0057"/>
</g>
<!-- AIF181103 -->
<g id="node10" class="node">
<title>AIF181103</title>
<polygon fill="none" stroke="#000000" points="763.6829,-126.0019 644.6701,-126.0019 644.6701,-84.7981 763.6829,-84.7981 763.6829,-126.0019"/>
<text text-anchor="middle" x="704.1765" y="-109.6" font-family="Times,serif" font-size="14.00" fill="#000000">AIF181103-04</text>
<text text-anchor="middle" x="704.1765" y="-92.8" font-family="Times,serif" font-size="14.00" fill="#000000">Matematika Dasar</text>
</g>
<!-- AIF181105 -->
<g id="node11" class="node">
<title>AIF181105</title>
<polygon fill="none" stroke="#000000" points="878.8211,-981.6219 737.699,-981.6219 737.699,-940.418 878.8211,-940.418 878.8211,-981.6219"/>
<text text-anchor="middle" x="808.26" y="-965.22" font-family="Times,serif" font-size="14.00" fill="#000000">AIF181105-02</text>
<text text-anchor="middle" x="808.26" y="-948.42" font-family="Times,serif" font-size="14.00" fill="#000000">Pengantar Informatika</text>
</g>
<!-- AIF182308 -->
<g id="node34" class="node">
<title>AIF182308</title>
<polygon fill="none" stroke="#000000" points="838.7574,-905.8979 667.7293,-905.8979 667.7293,-864.6941 838.7574,-864.6941 838.7574,-905.8979"/>
<text text-anchor="middle" x="753.2433" y="-889.496" font-family="Times,serif" font-size="14.00" fill="#000000">AIF182308-03</text>
<text text-anchor="middle" x="753.2433" y="-872.696" font-family="Times,serif" font-size="14.00" fill="#000000">Pengantar Sistem Informasi</text>
</g>
<!-- AIF181105&#45;&gt;AIF182308 -->
<g id="edge13" class="edge">
<title>AIF181105-&gt;AIF182308</title>
<path fill="none" stroke="#000000" d="M793.2265,-940.328C787.3436,-932.231 780.4951,-922.8048 774.1456,-914.0655"/>
<polygon fill="#000000" stroke="#000000" points="776.9682,-911.9958 768.2587,-905.9629 771.3051,-916.1103 776.9682,-911.9958"/>
</g>
<!-- AIF181107 -->
<g id="node12" class="node">
<title>AIF181107</title>
<polygon fill="none" stroke="#000000" points="596.7503,-41.4019 469.6028,-41.4019 469.6028,-.1981 596.7503,-.1981 596.7503,-41.4019"/>
<text text-anchor="middle" x="533.1765" y="-25" font-family="Times,serif" font-size="14.00" fill="#000000">AIF181107-03</text>
<text text-anchor="middle" x="533.1765" y="-8.2" font-family="Times,serif" font-size="14.00" fill="#000000">Matematika Diskret</text>
</g>
<!-- AIF182103 -->
<g id="node23" class="node">
<title>AIF182103</title>
<polygon fill="none" stroke="#000000" points="586.2699,-135.0019 480.0832,-135.0019 480.0832,-93.7981 586.2699,-93.7981 586.2699,-135.0019"/>
<text text-anchor="middle" x="533.1765" y="-118.6" font-family="Times,serif" font-size="14.00" fill="#000000">AIF182103-04</text>
<text text-anchor="middle" x="533.1765" y="-101.8" font-family="Times,serif" font-size="14.00" fill="#000000">Struktur Diskret</text>
</g>
<!-- AIF181107&#45;&gt;AIF182103 -->
<g id="edge24" class="edge">
<title>AIF181107-&gt;AIF182103</title>
<path fill="none" stroke="#000000" stroke-dasharray="1,5" d="M533.1765,-41.5729C533.1765,-53.9333 533.1765,-69.8453 533.1765,-83.6415"/>
<polygon fill="#000000" stroke="#000000" points="529.6766,-83.6852 533.1765,-93.6852 536.6766,-83.6852 529.6766,-83.6852"/>
</g>
<!-- MKU170130 -->
<g id="node13" class="node">
<title>MKU170130</title>
<polygon fill="none" stroke="#000000" points="254.5271,-826.0019 139.826,-826.0019 139.826,-784.7981 254.5271,-784.7981 254.5271,-826.0019"/>
<text text-anchor="middle" x="197.1765" y="-809.6" font-family="Times,serif" font-size="14.00" fill="#000000">MKU170130-02</text>
<text text-anchor="middle" x="197.1765" y="-792.8" font-family="Times,serif" font-size="14.00" fill="#000000">Bahasa Indonesia</text>
</g>
<!-- MKU170110 -->
<g id="node14" class="node">
<title>MKU170110</title>
<polygon fill="none" stroke="#000000" points="827.7068,-210.0019 644.6463,-210.0019 644.6463,-168.7981 827.7068,-168.7981 827.7068,-210.0019"/>
<text text-anchor="middle" x="736.1765" y="-193.6" font-family="Times,serif" font-size="14.00" fill="#000000">MKU170110-02</text>
<text text-anchor="middle" x="736.1765" y="-176.8" font-family="Times,serif" font-size="14.00" fill="#000000">Pendidikan Kewarganegaraan</text>
</g>
<!-- MKU170120 -->
<g id="node15" class="node">
<title>MKU170120</title>
<polygon fill="none" stroke="#000000" points="697.9954,-406.0019 588.3577,-406.0019 588.3577,-364.7981 697.9954,-364.7981 697.9954,-406.0019"/>
<text text-anchor="middle" x="643.1765" y="-389.6" font-family="Times,serif" font-size="14.00" fill="#000000">MKU170120-02</text>
<text text-anchor="middle" x="643.1765" y="-372.8" font-family="Times,serif" font-size="14.00" fill="#000000">Logika</text>
</g>
<!-- AIF182101 -->
<g id="node22" class="node">
<title>AIF182101</title>
<polygon fill="none" stroke="#000000" points="444.4821,-375.8299 291.7708,-375.8299 291.7708,-334.6261 444.4821,-334.6261 444.4821,-375.8299"/>
<text text-anchor="middle" x="368.1265" y="-359.428" font-family="Times,serif" font-size="14.00" fill="#000000">AIF182101-03</text>
<text text-anchor="middle" x="368.1265" y="-342.628" font-family="Times,serif" font-size="14.00" fill="#000000">Algoritma Struktur Data</text>
</g>
<!-- AIF181100&#45;&gt;AIF182101 -->
<g id="edge9" class="edge">
<title>AIF181100-&gt;AIF182101</title>
<path fill="none" stroke="#000000" d="M430.1759,-383.6673C427.6349,-382.5027 425.0679,-381.3261 422.4986,-380.1485"/>
<polygon fill="#000000" stroke="#000000" points="423.7759,-376.8839 413.2269,-375.899 420.8593,-383.2474 423.7759,-376.8839"/>
</g>
<!-- AIF182105 -->
<g id="node24" class="node">
<title>AIF182105</title>
<polygon fill="none" stroke="#000000" points="606.4112,-513.983 402.0939,-513.983 402.0939,-472.7792 606.4112,-472.7792 606.4112,-513.983"/>
<text text-anchor="middle" x="504.2526" y="-497.5811" font-family="Times,serif" font-size="14.00" fill="#000000">AIF182105-02</text>
<text text-anchor="middle" x="504.2526" y="-480.7811" font-family="Times,serif" font-size="14.00" fill="#000000">Pemrograman Berorientasi Objek</text>
</g>
<!-- AIF181100&#45;&gt;AIF182105 -->
<g id="edge10" class="edge">
<title>AIF181100-&gt;AIF182105</title>
<path fill="none" stroke="#000000" d="M482.037,-425.0087C485.6978,-436.2753 490.2995,-450.4382 494.3641,-462.9475"/>
<polygon fill="#000000" stroke="#000000" points="491.0614,-464.1093 497.4803,-472.5382 497.7188,-461.9461 491.0614,-464.1093"/>
</g>
<!-- AIF181202 -->
<g id="node17" class="node">
<title>AIF181202</title>
<polygon fill="none" stroke="#000000" points="920.2798,-602.0019 700.0733,-602.0019 700.0733,-560.7981 920.2798,-560.7981 920.2798,-602.0019"/>
<text text-anchor="middle" x="810.1765" y="-585.6" font-family="Times,serif" font-size="14.00" fill="#000000">AIF181202-04</text>
<text text-anchor="middle" x="810.1765" y="-568.8" font-family="Times,serif" font-size="14.00" fill="#000000">Arsitektur dan Organisasi Komputer</text>
</g>
<!-- AIF181104 -->
<g id="node18" class="node">
<title>AIF181104</title>
<polygon fill="none" stroke="#000000" points="265.8172,-148.658 140.3355,-148.658 140.3355,-107.4542 265.8172,-107.4542 265.8172,-148.658"/>
<text text-anchor="middle" x="203.0764" y="-132.2561" font-family="Times,serif" font-size="14.00" fill="#000000">AIF181104-03</text>
<text text-anchor="middle" x="203.0764" y="-115.4561" font-family="Times,serif" font-size="14.00" fill="#000000">Logika Informatika</text>
</g>
<!-- AIF183107 -->
<g id="node39" class="node">
<title>AIF183107</title>
<polygon fill="none" stroke="#000000" points="336.0553,-224.382 180.1308,-224.382 180.1308,-183.1781 336.0553,-183.1781 336.0553,-224.382"/>
<text text-anchor="middle" x="258.0931" y="-207.98" font-family="Times,serif" font-size="14.00" fill="#000000">AIF183107-03</text>
<text text-anchor="middle" x="258.0931" y="-191.18" font-family="Times,serif" font-size="14.00" fill="#000000">Pengantar Sistem Cerdas</text>
</g>
<!-- AIF181104&#45;&gt;AIF183107 -->
<g id="edge33" class="edge">
<title>AIF181104-&gt;AIF183107</title>
<path fill="none" stroke="#000000" stroke-dasharray="1,5" d="M218.1099,-148.748C223.9928,-156.845 230.8413,-166.2712 237.1908,-175.0105"/>
<polygon fill="#000000" stroke="#000000" points="234.3682,-177.0802 243.0777,-183.1132 240.0313,-172.9657 234.3682,-177.0802"/>
</g>
<!-- AIF181106 -->
<g id="node19" class="node">
<title>AIF181106</title>
<polygon fill="none" stroke="#000000" points="445.8607,-910.0019 280.4924,-910.0019 280.4924,-868.7981 445.8607,-868.7981 445.8607,-910.0019"/>
<text text-anchor="middle" x="363.1765" y="-893.6" font-family="Times,serif" font-size="14.00" fill="#000000">AIF181106-03</text>
<text text-anchor="middle" x="363.1765" y="-876.8" font-family="Times,serif" font-size="14.00" fill="#000000">Matriks dan Ruang Vektor</text>
</g>
<!-- MKU180240 -->
<g id="node20" class="node">
<title>MKU180240</title>
<polygon fill="none" stroke="#000000" points="1033.9954,-966.0019 924.3577,-966.0019 924.3577,-924.7981 1033.9954,-924.7981 1033.9954,-966.0019"/>
<text text-anchor="middle" x="979.1765" y="-949.6" font-family="Times,serif" font-size="14.00" fill="#000000">MKU180240-02</text>
<text text-anchor="middle" x="979.1765" y="-932.8" font-family="Times,serif" font-size="14.00" fill="#000000">Etika</text>
</g>
<!-- MKU180360 -->
<g id="node21" class="node">
<title>MKU180360</title>
<polygon fill="none" stroke="#000000" points="249.9954,-378.0019 140.3577,-378.0019 140.3577,-336.7981 249.9954,-336.7981 249.9954,-378.0019"/>
<text text-anchor="middle" x="195.1765" y="-361.6" font-family="Times,serif" font-size="14.00" fill="#000000">MKU180360-02</text>
<text text-anchor="middle" x="195.1765" y="-344.8" font-family="Times,serif" font-size="14.00" fill="#000000">Estetika</text>
</g>
<!-- AIF182302 -->
<g id="node31" class="node">
<title>AIF182302</title>
<polygon fill="none" stroke="#000000" points="272.7555,-603.0019 44.7976,-603.0019 44.7976,-561.7981 272.7555,-561.7981 272.7555,-603.0019"/>
<text text-anchor="middle" x="158.7765" y="-586.6" font-family="Times,serif" font-size="14.00" fill="#000000">AIF182302-04</text>
<text text-anchor="middle" x="158.7765" y="-569.8" font-family="Times,serif" font-size="14.00" fill="#000000">Manajemen Informasi dan Basis Data</text>
</g>
<!-- AIF182101&#45;&gt;AIF182302 -->
<g id="edge25" class="edge">
<title>AIF182101-&gt;AIF182302</title>
<path fill="none" stroke="#000000" stroke-dasharray="1,5" d="M348.8066,-376.1926C311.1056,-417.1031 227.6955,-507.6139 185.0289,-553.9128"/>
<polygon fill="#000000" stroke="#000000" points="182.2527,-551.7605 178.0497,-561.4861 187.4003,-556.5043 182.2527,-551.7605"/>
</g>
<!-- AIF182106 -->
<g id="node33" class="node">
<title>AIF182106</title>
<polygon fill="none" stroke="#000000" points="511.9926,-246.9263 322.9686,-246.9263 322.9686,-205.7225 511.9926,-205.7225 511.9926,-246.9263"/>
<text text-anchor="middle" x="417.4806" y="-230.5244" font-family="Times,serif" font-size="14.00" fill="#000000">AIF182106-03</text>
<text text-anchor="middle" x="417.4806" y="-213.7244" font-family="Times,serif" font-size="14.00" fill="#000000">Desain dan Analisis Algoritma</text>
</g>
<!-- AIF182101&#45;&gt;AIF182106 -->
<g id="edge12" class="edge">
<title>AIF182101-&gt;AIF182106</title>
<path fill="none" stroke="#000000" d="M376.056,-334.5174C384.1508,-313.3755 396.7977,-280.3442 405.9892,-256.3377"/>
<polygon fill="#000000" stroke="#000000" points="409.2636,-257.574 409.5707,-246.9836 402.7264,-255.071 409.2636,-257.574"/>
</g>
<!-- AIF183201 -->
<g id="node36" class="node">
<title>AIF183201</title>
<polygon fill="none" stroke="#000000" points="803.8887,-300.1059 702.598,-300.1059 702.598,-258.9021 803.8887,-258.9021 803.8887,-300.1059"/>
<text text-anchor="middle" x="753.2433" y="-283.704" font-family="Times,serif" font-size="14.00" fill="#000000">AIF183201-03</text>
<text text-anchor="middle" x="753.2433" y="-266.904" font-family="Times,serif" font-size="14.00" fill="#000000">Sistem Operasi</text>
</g>
<!-- AIF182101&#45;&gt;AIF183201 -->
<g id="edge29" class="edge">
<title>AIF182101-&gt;AIF183201</title>
<path fill="none" stroke="#000000" stroke-dasharray="1,5" d="M444.6736,-340.1769C517.4917,-325.8589 625.5982,-304.6024 692.6237,-291.4234"/>
<polygon fill="#000000" stroke="#000000" points="693.4739,-294.8234 702.6107,-289.4597 692.1233,-287.9549 693.4739,-294.8234"/>
</g>
<!-- AIF182103&#45;&gt;AIF182106 -->
<g id="edge27" class="edge">
<title>AIF182103-&gt;AIF182106</title>
<path fill="none" stroke="#000000" stroke-dasharray="1,5" d="M511.6862,-135.1898C493.2594,-153.0159 466.5558,-178.849 446.281,-198.4629"/>
<polygon fill="#000000" stroke="#000000" points="443.6096,-196.1774 438.8559,-205.646 448.4767,-201.2085 443.6096,-196.1774"/>
</g>
<!-- AIF182100 -->
<g id="node30" class="node">
<title>AIF182100</title>
<polygon fill="none" stroke="#000000" points="646.3893,-603.0019 419.9638,-603.0019 419.9638,-561.7981 646.3893,-561.7981 646.3893,-603.0019"/>
<text text-anchor="middle" x="533.1765" y="-586.6" font-family="Times,serif" font-size="14.00" fill="#000000">AIF182100-04</text>
<text text-anchor="middle" x="533.1765" y="-569.8" font-family="Times,serif" font-size="14.00" fill="#000000">Analisis dan Desain Perangkat Lunak</text>
</g>
<!-- AIF182105&#45;&gt;AIF182100 -->
<g id="edge11" class="edge">
<title>AIF182105-&gt;AIF182100</title>
<path fill="none" stroke="#000000" d="M510.961,-514.0276C514.6218,-525.2942 519.2235,-539.457 523.2881,-551.9663"/>
<polygon fill="#000000" stroke="#000000" points="519.9854,-553.1281 526.4043,-561.5571 526.6428,-550.965 519.9854,-553.1281"/>
</g>
<!-- AIF182007 -->
<g id="node25" class="node">
<title>AIF182007</title>
<polygon fill="none" stroke="#000000" points="985.0918,-375.0019 869.2613,-375.0019 869.2613,-333.7981 985.0918,-333.7981 985.0918,-375.0019"/>
<text text-anchor="middle" x="927.1765" y="-358.6" font-family="Times,serif" font-size="14.00" fill="#000000">AIF182007-02</text>
<text text-anchor="middle" x="927.1765" y="-341.8" font-family="Times,serif" font-size="14.00" fill="#000000">Teknik Presentasi</text>
</g>
<!-- AIF184001 -->
<g id="node47" class="node">
<title>AIF184001</title>
<polygon fill="none" stroke="#000000" points="1023.6872,-456.0619 924.2659,-456.0619 924.2659,-414.8581 1023.6872,-414.8581 1023.6872,-456.0619"/>
<text text-anchor="middle" x="973.9765" y="-439.66" font-family="Times,serif" font-size="14.00" fill="#000000">AIF184001-03</text>
<text text-anchor="middle" x="973.9765" y="-422.86" font-family="Times,serif" font-size="14.00" fill="#000000">Skripsi 1</text>
</g>
<!-- AIF182007&#45;&gt;AIF184001 -->
<g id="edge17" class="edge">
<title>AIF182007-&gt;AIF184001</title>
<path fill="none" stroke="#000000" d="M939.2287,-375.275C944.5785,-384.541 950.9723,-395.6155 956.8084,-405.7238"/>
<polygon fill="#000000" stroke="#000000" points="953.9341,-407.7455 961.9652,-414.6558 959.9963,-404.2455 953.9341,-407.7455"/>
</g>
<!-- AIF184002 -->
<g id="node51" class="node">
<title>AIF184002</title>
<polygon fill="none" stroke="#000000" points="883.2872,-375.0019 783.8659,-375.0019 783.8659,-333.7981 883.2872,-333.7981 883.2872,-375.0019"/>
<text text-anchor="middle" x="833.5765" y="-358.6" font-family="Times,serif" font-size="14.00" fill="#000000">AIF184002-05</text>
<text text-anchor="middle" x="833.5765" y="-341.8" font-family="Times,serif" font-size="14.00" fill="#000000">Skripsi 2</text>
</g>
<!-- AIF182007&#45;&gt;AIF184002 -->
<g id="edge21" class="edge">
<title>AIF182007-&gt;AIF184002</title>
<path fill="none" stroke="#000000" d="M869.2297,-354.4C869.1549,-354.4 869.0802,-354.4 869.0054,-354.4"/>
<polygon fill="#000000" stroke="#000000" points="878.783,-350.9045 868.7814,-354.4 878.7798,-357.9045 878.783,-350.9045"/>
</g>
<!-- AIF184004 -->
<g id="node52" class="node">
<title>AIF184004</title>
<polygon fill="none" stroke="#000000" points="1023.6872,-293.9419 924.2659,-293.9419 924.2659,-252.7381 1023.6872,-252.7381 1023.6872,-293.9419"/>
<text text-anchor="middle" x="973.9765" y="-277.54" font-family="Times,serif" font-size="14.00" fill="#000000">AIF184004-08</text>
<text text-anchor="middle" x="973.9765" y="-260.74" font-family="Times,serif" font-size="14.00" fill="#000000">Tugas Akhir</text>
</g>
<!-- AIF182007&#45;&gt;AIF184004 -->
<g id="edge23" class="edge">
<title>AIF182007-&gt;AIF184004</title>
<path fill="none" stroke="#000000" d="M939.2287,-333.525C944.5785,-324.259 950.9723,-313.1845 956.8084,-303.0762"/>
<polygon fill="#000000" stroke="#000000" points="959.9963,-304.5545 961.9652,-294.1442 953.9341,-301.0545 959.9963,-304.5545"/>
</g>
<!-- AIF182109 -->
<g id="node26" class="node">
<title>AIF182109</title>
<polygon fill="none" stroke="#000000" points="1064.6147,-798.0019 895.7384,-798.0019 895.7384,-756.7981 1064.6147,-756.7981 1064.6147,-798.0019"/>
<text text-anchor="middle" x="980.1765" y="-781.6" font-family="Times,serif" font-size="14.00" fill="#000000">AIF182109-03</text>
<text text-anchor="middle" x="980.1765" y="-764.8" font-family="Times,serif" font-size="14.00" fill="#000000">Statistika untuk Komputasi</text>
</g>
<!-- MKU180370 -->
<g id="node27" class="node">
<title>MKU180370</title>
<polygon fill="none" stroke="#000000" points="221.9954,-938.0019 112.3577,-938.0019 112.3577,-896.7981 221.9954,-896.7981 221.9954,-938.0019"/>
<text text-anchor="middle" x="167.1765" y="-921.6" font-family="Times,serif" font-size="14.00" fill="#000000">MKU180370-02</text>
<text text-anchor="middle" x="167.1765" y="-904.8" font-family="Times,serif" font-size="14.00" fill="#000000">Agama Katolik</text>
</g>
<!-- MKU180380 -->
<g id="node28" class="node">
<title>MKU180380</title>
<polygon fill="none" stroke="#000000" points="427.9867,-154.0019 308.3664,-154.0019 308.3664,-112.7981 427.9867,-112.7981 427.9867,-154.0019"/>
<text text-anchor="middle" x="368.1765" y="-137.6" font-family="Times,serif" font-size="14.00" fill="#000000">MKU180380-02</text>
<text text-anchor="middle" x="368.1765" y="-120.8" font-family="Times,serif" font-size="14.00" fill="#000000">Fenomena Katolik</text>
</g>
<!-- MKU180250 -->
<g id="node29" class="node">
<title>MKU180250</title>
<polygon fill="none" stroke="#000000" points="921.9954,-98.0019 812.3577,-98.0019 812.3577,-56.7981 921.9954,-56.7981 921.9954,-98.0019"/>
<text text-anchor="middle" x="867.1765" y="-81.6" font-family="Times,serif" font-size="14.00" fill="#000000">MKU180250-02</text>
<text text-anchor="middle" x="867.1765" y="-64.8" font-family="Times,serif" font-size="14.00" fill="#000000">Pancasila</text>
</g>
<!-- AIF183303 -->
<g id="node37" class="node">
<title>AIF183303</title>
<polygon fill="none" stroke="#000000" points="672.5781,-678.7259 503.8084,-678.7259 503.8084,-637.5221 672.5781,-637.5221 672.5781,-678.7259"/>
<text text-anchor="middle" x="588.1932" y="-662.324" font-family="Times,serif" font-size="14.00" fill="#000000">AIF183303-03</text>
<text text-anchor="middle" x="588.1932" y="-645.524" font-family="Times,serif" font-size="14.00" fill="#000000">Rekayasa Perangkat Lunak</text>
</g>
<!-- AIF182100&#45;&gt;AIF183303 -->
<g id="edge30" class="edge">
<title>AIF182100-&gt;AIF183303</title>
<path fill="none" stroke="#000000" stroke-dasharray="1,5" d="M548.2101,-603.0919C554.093,-611.189 560.9415,-620.6152 567.291,-629.3545"/>
<polygon fill="#000000" stroke="#000000" points="564.4684,-631.4242 573.1779,-637.4571 570.1315,-627.3096 564.4684,-631.4242"/>
</g>
<!-- AIF183209 -->
<g id="node40" class="node">
<title>AIF183209</title>
<polygon fill="none" stroke="#000000" points="597.3972,-678.7259 358.9225,-678.7259 358.9225,-637.5221 597.3972,-637.5221 597.3972,-678.7259"/>
<text text-anchor="middle" x="478.1599" y="-662.324" font-family="Times,serif" font-size="14.00" fill="#000000">AIF183209-03</text>
<text text-anchor="middle" x="478.1599" y="-645.524" font-family="Times,serif" font-size="14.00" fill="#000000">Pemrograman pada Perangkat Bergerak</text>
</g>
<!-- AIF182100&#45;&gt;AIF183209 -->
<g id="edge34" class="edge">
<title>AIF182100-&gt;AIF183209</title>
<path fill="none" stroke="#000000" stroke-dasharray="1,5" d="M518.143,-603.0919C512.2601,-611.189 505.4116,-620.6152 499.0621,-629.3545"/>
<polygon fill="#000000" stroke="#000000" points="496.2216,-627.3096 493.1752,-637.4571 501.8847,-631.4242 496.2216,-627.3096"/>
</g>
<!-- AIF182204 -->
<g id="node32" class="node">
<title>AIF182204</title>
<polygon fill="none" stroke="#000000" points="176.2464,-747.6219 -.0822,-747.6219 -.0822,-706.418 176.2464,-706.418 176.2464,-747.6219"/>
<text text-anchor="middle" x="88.0821" y="-731.22" font-family="Times,serif" font-size="14.00" fill="#000000">AIF182204-03</text>
<text text-anchor="middle" x="88.0821" y="-714.42" font-family="Times,serif" font-size="14.00" fill="#000000">Pemrograman Berbasis Web</text>
</g>
<!-- AIF182302&#45;&gt;AIF182204 -->
<g id="edge26" class="edge">
<title>AIF182302-&gt;AIF182204</title>
<path fill="none" stroke="#000000" stroke-dasharray="1,5" d="M148.6478,-603.1205C136.6261,-627.7132 116.4842,-668.9177 102.7564,-697.0006"/>
<polygon fill="#000000" stroke="#000000" points="99.4394,-695.8167 98.1921,-706.3379 105.7282,-698.8909 99.4394,-695.8167"/>
</g>
<!-- AIF182302&#45;&gt;AIF182308 -->
<g id="edge28" class="edge">
<title>AIF182302-&gt;AIF182308</title>
<path fill="none" stroke="#000000" stroke-dasharray="1,5" d="M199.6367,-603.2193C305.5006,-657.1597 588.4299,-801.3193 703.5172,-859.9592"/>
<polygon fill="#000000" stroke="#000000" points="701.9921,-863.1102 712.4912,-864.5317 705.1701,-856.8732 701.9921,-863.1102"/>
</g>
<!-- AIF183300 -->
<g id="node42" class="node">
<title>AIF183300</title>
<polygon fill="none" stroke="#000000" points="156.8882,-458.382 19.276,-458.382 19.276,-417.1781 156.8882,-417.1781 156.8882,-458.382"/>
<text text-anchor="middle" x="88.0821" y="-441.98" font-family="Times,serif" font-size="14.00" fill="#000000">AIF183300-02</text>
<text text-anchor="middle" x="88.0821" y="-425.18" font-family="Times,serif" font-size="14.00" fill="#000000">Teknologi Basis Data</text>
</g>
<!-- AIF182302&#45;&gt;AIF183300 -->
<g id="edge14" class="edge">
<title>AIF182302-&gt;AIF183300</title>
<path fill="none" stroke="#000000" d="M148.6478,-561.6795C136.6261,-537.0868 116.4842,-495.8823 102.7564,-467.7994"/>
<polygon fill="#000000" stroke="#000000" points="105.7282,-465.9091 98.1921,-458.4621 99.4394,-468.9833 105.7282,-465.9091"/>
</g>
<!-- AIF182106&#45;&gt;AIF183107 -->
<g id="edge32" class="edge">
<title>AIF182106-&gt;AIF183107</title>
<path fill="none" stroke="#000000" stroke-dasharray="1,5" d="M322.9221,-212.9497C322.855,-212.9402 322.788,-212.9308 322.721,-212.9213"/>
<polygon fill="#000000" stroke="#000000" points="332.9132,-210.8321 322.52,-212.8929 331.9299,-217.7631 332.9132,-210.8321"/>
</g>
<!-- AIF183308 -->
<g id="node46" class="node">
<title>AIF183308</title>
<polygon fill="none" stroke="#000000" points="843.0424,-768.052 677.6546,-768.052 677.6546,-726.8482 843.0424,-726.8482 843.0424,-768.052"/>
<text text-anchor="middle" x="760.3485" y="-751.6501" font-family="Times,serif" font-size="14.00" fill="#000000">AIF183308-03</text>
<text text-anchor="middle" x="760.3485" y="-734.8501" font-family="Times,serif" font-size="14.00" fill="#000000">Proyek Sistem Informasi 1</text>
</g>
<!-- AIF182308&#45;&gt;AIF183308 -->
<g id="edge15" class="edge">
<title>AIF182308-&gt;AIF183308</title>
<path fill="none" stroke="#000000" d="M754.3071,-864.659C755.4843,-841.8191 757.3944,-804.7623 758.7515,-778.4342"/>
<polygon fill="#000000" stroke="#000000" points="762.258,-778.395 759.2775,-768.2281 755.2673,-778.0346 762.258,-778.395"/>
</g>
<!-- AIF182210 -->
<g id="node35" class="node">
<title>AIF182210</title>
<polygon fill="none" stroke="#000000" points="514.8088,-754.4499 331.4775,-754.4499 331.4775,-713.2461 514.8088,-713.2461 514.8088,-754.4499"/>
<text text-anchor="middle" x="423.1432" y="-738.048" font-family="Times,serif" font-size="14.00" fill="#000000">AIF182210-02</text>
<text text-anchor="middle" x="423.1432" y="-721.248" font-family="Times,serif" font-size="14.00" fill="#000000">Pengantar Jaringan Komputer</text>
</g>
<!-- AIF182210&#45;&gt;AIF183209 -->
<g id="edge35" class="edge">
<title>AIF182210-&gt;AIF183209</title>
<path fill="none" stroke="#000000" stroke-dasharray="1,5" d="M438.1767,-713.1561C444.0596,-705.059 450.9081,-695.6328 457.2576,-686.8935"/>
<polygon fill="#000000" stroke="#000000" points="460.0981,-688.9383 463.1445,-678.7909 454.435,-684.8238 460.0981,-688.9383"/>
</g>
<!-- AIF183204 -->
<g id="node44" class="node">
<title>AIF183204</title>
<polygon fill="none" stroke="#000000" points="429.8148,-830.1739 306.4381,-830.1739 306.4381,-788.9701 429.8148,-788.9701 429.8148,-830.1739"/>
<text text-anchor="middle" x="368.1265" y="-813.772" font-family="Times,serif" font-size="14.00" fill="#000000">AIF183204-02</text>
<text text-anchor="middle" x="368.1265" y="-796.972" font-family="Times,serif" font-size="14.00" fill="#000000">Jaringan Komputer</text>
</g>
<!-- AIF182210&#45;&gt;AIF183204 -->
<g id="edge36" class="edge">
<title>AIF182210-&gt;AIF183204</title>
<path fill="none" stroke="#000000" stroke-dasharray="1,5" d="M408.1096,-754.5399C402.2267,-762.6369 395.3782,-772.0632 389.0287,-780.8025"/>
<polygon fill="#000000" stroke="#000000" points="386.1882,-778.7576 383.1418,-788.9051 391.8513,-782.8722 386.1882,-778.7576"/>
</g>
<!-- AIF183305 -->
<g id="node38" class="node">
<title>AIF183305</title>
<polygon fill="none" stroke="#000000" points="747.3668,-713.0353 621.8823,-713.0353 621.8823,-671.8315 747.3668,-671.8315 747.3668,-713.0353"/>
<text text-anchor="middle" x="684.6245" y="-696.6334" font-family="Times,serif" font-size="14.00" fill="#000000">AIF183305-02</text>
<text text-anchor="middle" x="684.6245" y="-679.8334" font-family="Times,serif" font-size="14.00" fill="#000000">Manajemen Proyek</text>
</g>
<!-- AIF183303&#45;&gt;AIF183305 -->
<g id="edge31" class="edge">
<title>AIF183303-&gt;AIF183305</title>
<path fill="none" stroke="#000000" stroke-dasharray="1,5" d="M646.2353,-678.7748C646.315,-678.8032 646.3948,-678.8316 646.4745,-678.8599"/>
<polygon fill="#000000" stroke="#000000" points="636.1176,-678.8879 646.7135,-678.945 638.4659,-672.2927 636.1176,-678.8879"/>
</g>
<!-- AIF183106 -->
<g id="node45" class="node">
<title>AIF183106</title>
<polygon fill="none" stroke="#000000" points="595.9174,-790.2019 470.4357,-790.2019 470.4357,-748.9981 595.9174,-748.9981 595.9174,-790.2019"/>
<text text-anchor="middle" x="533.1765" y="-773.8" font-family="Times,serif" font-size="14.00" fill="#000000">AIF183106-06</text>
<text text-anchor="middle" x="533.1765" y="-757" font-family="Times,serif" font-size="14.00" fill="#000000">Proyek Informatika</text>
</g>
<!-- AIF183303&#45;&gt;AIF183106 -->
<g id="edge37" class="edge">
<title>AIF183303-&gt;AIF183106</title>
<path fill="none" stroke="#000000" stroke-dasharray="1,5" d="M577.974,-678.8305C569.5735,-695.8517 557.5556,-720.2026 548.0819,-739.3984"/>
<polygon fill="#000000" stroke="#000000" points="544.8149,-738.1097 543.5278,-748.6261 551.0921,-741.2077 544.8149,-738.1097"/>
</g>
<!-- AIF183305&#45;&gt;AIF183106 -->
<g id="edge38" class="edge">
<title>AIF183305-&gt;AIF183106</title>
<path fill="none" stroke="#000000" stroke-dasharray="1,5" d="M644.0393,-713.1126C625.1198,-722.7526 602.4401,-734.3085 582.5369,-744.4496"/>
<polygon fill="#000000" stroke="#000000" points="580.9321,-741.3391 573.611,-748.9976 584.1101,-747.5762 580.9321,-741.3391"/>
</g>
<!-- AIF183305&#45;&gt;AIF183308 -->
<g id="edge39" class="edge">
<title>AIF183305-&gt;AIF183308</title>
<path fill="none" stroke="#000000" stroke-dasharray="1,5" d="M713.2525,-713.2329C716.6921,-715.7319 720.24,-718.3095 723.7729,-720.8763"/>
<polygon fill="#000000" stroke="#000000" points="721.7838,-723.7574 731.9312,-726.8037 725.8983,-718.0943 721.7838,-723.7574"/>
</g>
<!-- AIF183111 -->
<g id="node41" class="node">
<title>AIF183111</title>
<polygon fill="none" stroke="#000000" points="1044.6248,-182.0019 867.7283,-182.0019 867.7283,-140.7981 1044.6248,-140.7981 1044.6248,-182.0019"/>
<text text-anchor="middle" x="956.1765" y="-165.6" font-family="Times,serif" font-size="14.00" fill="#000000">AIF183111-03</text>
<text text-anchor="middle" x="956.1765" y="-148.8" font-family="Times,serif" font-size="14.00" fill="#000000">Interaksi Manusia Komputer</text>
</g>
<!-- AIF183002 -->
<g id="node43" class="node">
<title>AIF183002</title>
<polygon fill="none" stroke="#000000" points="1076.2622,-537.1219 965.2909,-537.1219 965.2909,-495.9181 1076.2622,-495.9181 1076.2622,-537.1219"/>
<text text-anchor="middle" x="1020.7765" y="-520.72" font-family="Times,serif" font-size="14.00" fill="#000000">AIF183002-02</text>
<text text-anchor="middle" x="1020.7765" y="-503.92" font-family="Times,serif" font-size="14.00" fill="#000000">Penulisan Ilmiah</text>
</g>
<!-- AIF183002&#45;&gt;AIF184001 -->
<g id="edge16" class="edge">
<title>AIF183002-&gt;AIF184001</title>
<path fill="none" stroke="#000000" d="M1008.7244,-495.645C1003.3746,-486.379 996.9808,-475.3045 991.1447,-465.1961"/>
<polygon fill="#000000" stroke="#000000" points="994.019,-463.1744 985.9879,-456.2642 987.9568,-466.6745 994.019,-463.1744"/>
</g>
<!-- AIF183002&#45;&gt;AIF184002 -->
<g id="edge19" class="edge">
<title>AIF183002-&gt;AIF184002</title>
<path fill="none" stroke="#000000" d="M996.6867,-495.6575C963.2692,-466.7171 902.7709,-414.3241 865.5884,-382.1231"/>
<polygon fill="#000000" stroke="#000000" points="867.4246,-379.0832 857.574,-375.1824 862.842,-384.3747 867.4246,-379.0832"/>
</g>
<!-- AIF183002&#45;&gt;AIF184004 -->
<g id="edge22" class="edge">
<title>AIF183002-&gt;AIF184004</title>
<path fill="none" stroke="#000000" d="M1016.7864,-495.7866C1008.5317,-452.894 989.5445,-354.2333 979.872,-303.9736"/>
<polygon fill="#000000" stroke="#000000" points="983.2834,-303.1793 977.9566,-294.0209 976.4096,-304.5022 983.2834,-303.1793"/>
</g>
<!-- AIF184303 -->
<g id="node48" class="node">
<title>AIF184303</title>
<polygon fill="none" stroke="#000000" points="971.946,-718.6979 806.5582,-718.6979 806.5582,-677.4941 971.946,-677.4941 971.946,-718.6979"/>
<text text-anchor="middle" x="889.2521" y="-702.296" font-family="Times,serif" font-size="14.00" fill="#000000">AIF184303-03</text>
<text text-anchor="middle" x="889.2521" y="-685.496" font-family="Times,serif" font-size="14.00" fill="#000000">Proyek Sistem Informasi 2</text>
</g>
<!-- AIF183308&#45;&gt;AIF184303 -->
<g id="edge18" class="edge">
<title>AIF183308-&gt;AIF184303</title>
<path fill="none" stroke="#000000" d="M814.2684,-726.8055C818.0413,-725.3609 821.8636,-723.8974 825.6819,-722.4355"/>
<polygon fill="#000000" stroke="#000000" points="827.0466,-725.6608 835.134,-718.8165 824.5436,-719.1236 827.0466,-725.6608"/>
</g>
<!-- AIF184001&#45;&gt;AIF184002 -->
<g id="edge20" class="edge">
<title>AIF184001-&gt;AIF184002</title>
<path fill="none" stroke="#000000" d="M938.1844,-414.7954C919.8664,-404.2195 897.3957,-391.246 877.9821,-380.0375"/>
<polygon fill="#000000" stroke="#000000" points="879.7136,-376.9958 869.3033,-375.0269 876.2136,-383.058 879.7136,-376.9958"/>
</g>
<!-- AIF184005 -->
<g id="node49" class="node">
<title>AIF184005</title>
<polygon fill="none" stroke="#000000" points="1061.9532,-882.0019 896.3999,-882.0019 896.3999,-840.7981 1061.9532,-840.7981 1061.9532,-882.0019"/>
<text text-anchor="middle" x="979.1765" y="-865.6" font-family="Times,serif" font-size="14.00" fill="#000000">AIF184005-02</text>
<text text-anchor="middle" x="979.1765" y="-848.8" font-family="Times,serif" font-size="14.00" fill="#000000">Komputer dan Masyarakat</text>
</g>
<!-- AIF184000 -->
<g id="node50" class="node">
<title>AIF184000</title>
<polygon fill="none" stroke="#000000" points="659.8872,-294.0019 560.4659,-294.0019 560.4659,-252.7981 659.8872,-252.7981 659.8872,-294.0019"/>
<text text-anchor="middle" x="610.1765" y="-277.6" font-family="Times,serif" font-size="14.00" fill="#000000">AIF184000-02</text>
<text text-anchor="middle" x="610.1765" y="-260.8" font-family="Times,serif" font-size="14.00" fill="#000000">Etika Profesi</text>
</g>
</g>
</svg>